<svg xmlns="http://www.w3.org/2000/svg" width="30" height="30" viewBox="0 0 30 30" fill="none">
  <path d="M5.42528 5.48083C10.7938 0.0815877 19.5179 0.056689 24.9171 5.4252C30.3163 10.7937 30.3412 19.5178 24.9727 24.917C19.6042 30.3163 10.8802 30.3412 5.48091 24.9727C0.0816642 19.6041 0.0567651 10.8801 5.42528 5.48083ZM18.613 22.5473C19.0784 23.01 19.8348 23.0078 20.2975 22.5425L22.5715 20.2554C23.0342 19.7901 23.0321 19.0337 22.5667 18.571L19.164 15.1876L22.5473 11.7849C23.0101 11.3195 23.0079 10.5631 22.5425 10.1004L20.2555 7.82642C19.7901 7.36371 19.0337 7.36586 18.571 7.83123L15.1877 11.2339L11.785 7.85059C11.3196 7.38788 10.5632 7.39004 10.1005 7.8554L7.8265 10.1424C7.36378 10.6078 7.36594 11.3642 7.8313 11.8269L11.234 15.2102L7.85067 18.613C7.38796 19.0783 7.39012 19.8347 7.85548 20.2974L10.1425 22.5714C10.6079 23.0342 11.3643 23.032 11.827 22.5666L15.2103 19.1639L18.613 22.5473Z" stroke="#484D57"/>
</svg>