<svg xmlns="http://www.w3.org/2000/svg" width="30" height="32" viewBox="0 0 30 32" fill="none">
  <path d="M0.859152 22.7679H18.4266C18.5394 22.768 18.6512 22.7444 18.7554 22.6986C18.8597 22.6527 18.9545 22.5855 19.0343 22.5007C19.1141 22.4159 19.1773 22.3152 19.2205 22.2045C19.2636 22.0937 19.2858 21.9749 19.2857 21.855V19.1271C19.2858 19.0072 19.2636 18.8885 19.2205 18.7777C19.1773 18.6669 19.1141 18.5662 19.0343 18.4814C18.9545 18.3967 18.8597 18.3294 18.7554 18.2836C18.6512 18.2377 18.5394 18.2142 18.4266 18.2143H0.859152C0.746302 18.2142 0.634542 18.2377 0.530265 18.2836C0.425988 18.3294 0.331241 18.3967 0.251444 18.4814C0.171646 18.5662 0.108365 18.6669 0.0652199 18.7777C0.0220747 18.8885 -8.77996e-05 19.0072 2.61399e-07 19.1271V21.855C-8.77996e-05 21.9749 0.0220747 22.0937 0.0652199 22.2045C0.108365 22.3152 0.171646 22.4159 0.251444 22.5007C0.331241 22.5855 0.425988 22.6527 0.530265 22.6986C0.634542 22.7444 0.746302 22.768 0.859152 22.7679ZM0.859152 4.55357H18.4266C18.5394 4.55367 18.6512 4.53012 18.7554 4.48428C18.8597 4.43843 18.9545 4.3712 19.0343 4.28641C19.1141 4.20163 19.1773 4.10096 19.2205 3.99017C19.2636 3.87937 19.2858 3.76063 19.2857 3.64072V0.912849C19.2858 0.792946 19.2636 0.6742 19.2205 0.563406C19.1773 0.452612 19.1141 0.351943 19.0343 0.267159C18.9545 0.182374 18.8597 0.115138 18.7554 0.0692961C18.6512 0.0234543 18.5394 -9.32871e-05 18.4266 2.77738e-07H0.859152C0.746302 -9.32871e-05 0.634542 0.0234543 0.530265 0.0692961C0.425988 0.115138 0.331241 0.182374 0.251444 0.267159C0.171646 0.351943 0.108365 0.452612 0.0652199 0.563406C0.0220747 0.6742 -8.77996e-05 0.792946 2.61399e-07 0.912849V3.64072C-8.77996e-05 3.76063 0.0220747 3.87937 0.0652199 3.99017C0.108365 4.10096 0.171646 4.20163 0.251444 4.28641C0.331241 4.3712 0.425988 4.43843 0.530265 4.48428C0.634542 4.53012 0.746302 4.55367 0.859152 4.55357ZM28.9286 9.10714H1.07143C0.787268 9.10714 0.514746 9.22708 0.313814 9.44057C0.112883 9.65406 2.61399e-07 9.94361 2.61399e-07 10.2455V12.5223C2.61399e-07 12.8242 0.112883 13.1138 0.313814 13.3273C0.514746 13.5408 0.787268 13.6607 1.07143 13.6607H28.9286C29.2127 13.6607 29.4853 13.5408 29.6862 13.3273C29.8871 13.1138 30 12.8242 30 12.5223V10.2455C30 9.94361 29.8871 9.65406 29.6862 9.44057C29.4853 9.22708 29.2127 9.10714 28.9286 9.10714ZM28.9286 27.3214H1.07143C0.787268 27.3214 0.514746 27.4414 0.313814 27.6549C0.112883 27.8683 2.61399e-07 28.1579 2.61399e-07 28.4598V30.7366C2.61399e-07 31.0385 0.112883 31.3281 0.313814 31.5416C0.514746 31.7551 0.787268 31.875 1.07143 31.875H28.9286C29.2127 31.875 29.4853 31.7551 29.6862 31.5416C29.8871 31.3281 30 31.0385 30 30.7366V28.4598C30 28.1579 29.8871 27.8683 29.6862 27.6549C29.4853 27.4414 29.2127 27.3214 28.9286 27.3214Z" fill="#323232"/>
</svg>