<svg xmlns="http://www.w3.org/2000/svg" width="15" height="16" viewBox="0 0 15 16" fill="none">
<path d="M14.1449 2.92137L13.6887 4.57989H10.9674C10.7895 6.34267 9.54627 7.77847 7.91758 8.18125H7.9153C7.62105 8.2547 7.3131 8.29261 6.99603 8.29261H2.61182L3.40335 9.11476L5.06853 10.8444L6.02658 11.8395L10.0321 16H7.77616L4.48002 12.5787L3.74095 11.8087L2.1077 10.1146L0.68432 8.63616V6.63409H6.99603C8.17535 6.63409 9.15392 5.7456 9.35238 4.57989H0.230387L0.6866 2.92137H9.08093C8.98056 2.73893 8.85966 2.57308 8.7228 2.42381C8.28712 1.95232 7.67579 1.65852 6.99603 1.65852H0L0.68432 0H14.1426L13.4583 1.65852H10.1872C10.461 2.03524 10.6708 2.46172 10.8077 2.92137H14.1449Z" fill="white"/>
</svg>