<svg width="120" height="120" viewBox="0 0 120 120" fill="none" xmlns="http://www.w3.org/2000/svg">
<g id="2" clip-path="url(#clip0_32_3235)">
<path id="Vector" d="M60 120C93.1371 120 120 93.1371 120 60C120 26.8629 93.1371 0 60 0C26.8629 0 0 26.8629 0 60C0 93.1371 26.8629 120 60 120Z" fill="#DFEFF2"/>
<path id="Vector_2" d="M68.4375 72.6406C67.8906 72.3125 67.2344 72.5312 66.9062 73.0781C65.7031 75.2656 65.1562 77.6718 65.1562 80.1875C65.1562 80.8437 64.6094 81.2812 64.0625 81.2812H50.9375C50.2812 81.2812 49.8438 80.7343 49.8438 80.1875C49.8438 76.25 48.3125 72.5312 45.6875 69.6875C42.7344 66.625 41.0938 62.5781 41.0938 58.3125C41.0938 57.6562 40.6562 57.2187 40 57.2187C39.3437 57.2187 38.9062 57.6562 38.9062 58.3125C38.9062 63.125 40.7657 67.7187 44.047 71.2187C46.3439 73.625 47.6562 76.7968 47.6562 80.1875C47.6562 81.6093 48.6406 82.8125 49.8438 83.3593V89.0468C49.8438 90.7968 51.2656 92.3281 53.125 92.3281H54.4375C54.875 93.6406 56.0781 94.5156 57.5 94.5156C58.9219 94.5156 60.125 93.6406 60.5625 92.3281H61.875C63.625 92.3281 65.1562 90.9062 65.1562 89.0468V87.4062C65.1562 86.8593 64.6094 86.3125 64.0625 86.3125C63.4062 86.3125 62.9688 86.8593 62.9688 87.4062V89.0468C62.9688 89.5937 62.5312 90.1406 61.875 90.1406H59.6875C59.0312 90.1406 58.5938 90.5781 58.5938 91.2343C58.5938 91.8906 58.1562 92.3281 57.5 92.3281C56.8438 92.3281 56.4062 91.8906 56.4062 91.2343C56.4062 90.5781 55.9688 90.1406 55.3125 90.1406H53.125C52.5781 90.1406 52.0312 89.7031 52.0312 89.0468V83.5781H64.0625C65.9219 83.5781 67.3439 82.0468 67.3439 80.2968C67.3439 78.2187 67.8906 76.1406 68.875 74.2812C69.0938 73.625 68.9844 72.8593 68.4375 72.6406ZM76.0939 57.2187C75.547 47.8125 67.7812 40.1562 58.375 39.7187C49.625 39.2812 41.75 45.1875 39.5625 53.6093C39.4531 54.1562 39.7812 54.8125 40.3281 54.9218C40.875 55.0312 41.5312 54.7031 41.6406 54.1562C43.6094 46.7187 50.5 41.5781 58.2656 41.9062C66.5781 42.2343 73.4688 49.0156 73.9062 57.3281C74.125 61.7031 72.7031 65.8593 69.8594 69.1406C69.4219 69.5781 69.5314 70.2343 69.9689 70.6718C70.4064 71.2187 71.2812 70.7812 71.5 70.5625C74.672 66.8437 76.3126 62.1406 76.0939 57.2187Z" fill="#005E9E"/>
<path id="Vector_3" d="M61.2391 56.2288L63.3478 56.1878C63.4891 56.1842 63.6166 56.1109 63.6883 55.991L64.2925 54.9939C64.4611 54.7179 64.2577 54.3672 63.9342 54.3725L51.7671 54.615C51.6258 54.6186 51.4983 54.6919 51.4238 54.8127L50.8214 55.8154C50.6557 56.0905 50.859 56.4412 51.1798 56.4368L57.5236 56.3111C58.7947 56.2853 59.9106 57.07 60.3318 58.2437L51.8428 58.4131C51.7015 58.4167 51.5741 58.4901 51.5024 58.61L50.8981 59.6071C50.7296 59.8831 50.9329 60.2338 51.2565 60.2285L60.3953 60.0475C60.0428 61.2615 58.9291 62.1336 57.6423 62.1585L51.1106 62.2878C50.8856 62.2913 50.706 62.478 50.7105 62.7058L50.7381 64.0289C50.7408 64.1395 50.7891 64.2474 50.8699 64.3228L60.0154 72.7189L60.0823 72.7804L61.6824 72.7473C62.0515 72.7393 62.223 72.2857 61.9508 72.0354L53.2587 64.0524L57.6817 63.9642C59.9503 63.9196 61.8838 62.2328 62.253 60.0063L63.4254 59.9822C63.5668 59.9786 63.6942 59.9053 63.7659 59.7854L64.3702 58.7883C64.5387 58.5123 64.3354 58.1616 64.0118 58.1669L62.1987 58.2025C62.0404 57.4744 61.7118 56.8028 61.2391 56.2288Z" fill="#005E9E"/>
<path id="Vector_4" d="M55.3125 85.6561C54.6562 85.6561 54.2188 86.0938 54.2188 86.75C54.2188 87.4062 54.6562 87.8438 55.3125 87.8438H59.6875C60.3438 87.8438 60.7812 87.4062 60.7812 86.75C60.7812 86.0938 60.3438 85.6561 59.6875 85.6561H55.3125ZM57.5 33.1562C58.1562 33.1562 58.5938 32.7188 58.5938 32.0625V27.6875C58.5938 27.0312 58.1562 26.5938 57.5 26.5938C56.8438 26.5938 56.4062 27.0312 56.4062 27.6875V32.0625C56.4062 32.7188 56.8438 33.1562 57.5 33.1562ZM38.1406 40.4844C38.3594 40.7031 39.0157 41.1406 39.672 40.4844C40.1095 40.0469 40.1095 39.3905 39.672 38.953L36.6095 35.8905C36.172 35.453 35.5156 35.453 35.0781 35.8905C34.6406 36.328 34.6406 36.9844 35.0781 37.4219L38.1406 40.4844ZM31.25 57.2188H26.875C26.2188 57.2188 25.7812 57.6562 25.7812 58.3125C25.7812 58.9688 26.2188 59.4062 26.875 59.4062H31.25C31.9062 59.4062 32.3438 58.9688 32.3438 58.3125C32.3438 57.6562 31.9062 57.2188 31.25 57.2188ZM38.1406 76.1406L35.0781 79.2031C34.6406 79.6406 34.75 80.2968 35.0781 80.7343C35.4062 81.1718 36.3907 80.953 36.6095 80.7343L39.672 77.6718C40.1095 77.2343 40.1095 76.5781 39.672 76.1406C39.2345 75.7031 38.5781 75.7031 38.1406 76.1406ZM76.8594 76.1406C76.4219 75.7031 75.7657 75.7031 75.3282 76.1406C74.8907 76.5781 74.8907 77.2343 75.3282 77.6718L78.3907 80.7343C78.6095 80.953 79.2656 81.2811 79.9219 80.7343C80.3594 80.2968 80.3594 79.6406 79.9219 79.2031L76.8594 76.1406ZM88.125 57.2188H83.75C83.0938 57.2188 82.6562 57.6562 82.6562 58.3125C82.6562 58.9688 83.0938 59.4062 83.75 59.4062H88.125C88.7812 59.4062 89.2189 58.9688 89.2189 58.3125C89.2189 57.6562 88.7812 57.2188 88.125 57.2188ZM78.3907 35.8905L75.3282 38.953C74.8907 39.3905 74.8907 40.0469 75.3282 40.4844C75.9845 41.1406 76.6406 40.7031 76.8594 40.4844L79.9219 37.4219C80.3594 36.9844 80.3594 36.328 79.9219 35.8905C79.4844 35.453 78.8282 35.453 78.3907 35.8905ZM69.8594 51.203C67.7812 47.4843 64.0625 44.9688 59.9062 44.3125C59.3595 44.2031 58.7031 44.6406 58.5938 45.1875C58.4844 45.7344 58.9219 46.3906 59.4688 46.5C62.9688 47.0469 66.0312 49.2344 67.8907 52.2969C68.1095 52.625 68.4375 53.0625 69.4219 52.7344C69.9688 52.5156 70.0781 51.7499 69.8594 51.203ZM53.125 47.0469C53.2344 47.0469 54.7656 46.6094 55.5312 46.5C56.0781 46.3906 56.5156 45.8438 56.4062 45.1875C56.2969 44.6406 55.75 44.2031 55.0938 44.3125C54.2188 44.4219 53.4531 44.6406 52.6875 44.9688C52.1406 45.1875 51.8125 45.8437 52.0312 46.3905C52.25 46.7187 52.6875 47.0469 53.125 47.0469Z" fill="#005E9E"/>
</g>
<defs>
<clipPath id="clip0_32_3235">
<rect width="120" height="120" fill="white"/>
</clipPath>
</defs>
</svg>
