<svg width="120" height="120" viewBox="0 0 120 120" fill="none" xmlns="http://www.w3.org/2000/svg">
<g id="3" clip-path="url(#clip0_32_3231)">
<path id="Vector" d="M60 120C93.1371 120 120 93.1371 120 60C120 26.8629 93.1371 0 60 0C26.8629 0 0 26.8629 0 60C0 93.1371 26.8629 120 60 120Z" fill="#DFEFF2"/>
<path id="Vector_2" d="M66.1403 32.0974C65.8561 32.1015 65.5846 32.216 65.3834 32.4168L55.5703 42.2278C54.3691 40.4453 52.7486 38.985 50.851 37.9754C48.9534 36.9657 46.8369 36.4378 44.6875 36.4375C37.4512 36.4375 31.5625 42.3263 31.5625 49.5625C31.5625 53.4344 33.26 56.9125 35.9375 59.3187V82.375C35.9375 84.7813 37.9062 86.75 40.3125 86.75H81.875C84.2812 86.75 86.25 84.7813 86.25 82.375V53.9375C86.25 51.5313 84.2812 49.5625 81.875 49.5625L75.4788 37.4985C75.3845 37.3204 75.2429 37.1717 75.0696 37.0691C74.8963 36.9664 74.698 36.9137 74.4966 36.9166C74.3232 36.9196 74.1529 36.9638 74 37.0456L72.4031 37.8921L66.93 32.419C66.8266 32.3153 66.7034 32.2333 66.5678 32.178C66.4321 32.1228 66.2868 32.0954 66.1403 32.0974ZM66.1556 34.7376L70.3819 38.9639L57.2875 45.9093C57.1202 45.3343 56.9133 44.7714 56.6684 44.2249L66.1556 34.7376ZM44.6875 38.625C50.7403 38.625 55.625 43.5097 55.625 49.5625C55.625 55.6175 50.7403 60.5 44.6875 60.5C38.6347 60.5 33.75 55.6175 33.75 49.5625C33.75 43.5097 38.6347 38.625 44.6875 38.625ZM74.0612 39.4889L79.4009 49.5625H57.8125C57.8125 49.0857 57.7819 48.6129 57.7316 48.1492L74.0612 39.4889ZM57.6112 51.75H81.875C83.1066 51.75 84.0625 52.7082 84.0625 53.9375V62.6875H72.0312C70.5819 62.691 69.1929 63.2681 68.1681 64.2929C67.1433 65.3178 66.566 66.707 66.5625 68.1563C66.5625 71.1685 69.0213 73.625 72.0312 73.625H84.0625V82.375C84.0625 83.6066 83.1066 84.5625 81.875 84.5625H40.3125C39.0809 84.5625 38.125 83.6066 38.125 82.375V60.9113C40.1167 62.0737 42.3813 62.6867 44.6875 62.6875C51.1756 62.6875 56.5656 57.945 57.6112 51.75ZM57.8125 53.9375V56.125H60V53.9375H57.8125ZM62.1875 53.9375V56.125H64.375V53.9375H62.1875ZM66.5625 53.9375V56.125H68.75V53.9375H66.5625ZM70.9375 53.9375V56.125H73.125V53.9375H70.9375ZM75.3125 53.9375V56.125H77.5V53.9375H75.3125ZM79.6875 53.9375V56.125H81.875V53.9375H79.6875ZM79.6875 58.3125V60.5H81.875V58.3125H79.6875ZM40.3125 62.6875V64.875H42.5V62.6875H40.3125ZM72.0312 64.875H84.0625V71.4375H72.0312C70.1937 71.4375 68.75 69.9938 68.75 68.1563C68.75 66.3188 70.1937 64.875 72.0312 64.875ZM40.3125 67.0625V69.25H42.5V67.0625H40.3125ZM70.9375 67.0625V69.25H73.125V67.0625H70.9375ZM40.3125 71.4375V73.625H42.5V71.4375H40.3125ZM40.3125 75.8125V78H42.5V75.8125H40.3125ZM79.6875 75.8125V78H81.875V75.8125H79.6875ZM40.3125 80.1875V82.375H42.5V80.1875H40.3125ZM44.6875 80.1875V82.375H46.875V80.1875H44.6875ZM49.0625 80.1875V82.375H51.25V80.1875H49.0625ZM53.4375 80.1875V82.375H55.625V80.1875H53.4375ZM57.8125 80.1875V82.375H60V80.1875H57.8125ZM62.1875 80.1875V82.375H64.375V80.1875H62.1875ZM66.5625 80.1875V82.375H68.75V80.1875H66.5625ZM70.9375 80.1875V82.375H73.125V80.1875H70.9375ZM75.3125 80.1875V82.375H77.5V80.1875H75.3125ZM79.6875 80.1875V82.375H81.875V80.1875H79.6875Z" fill="#005E9E"/>
<path id="Vector_3" d="M47.1039 45.1926L48.6893 45.2092C48.7956 45.2097 48.893 45.1574 48.9495 45.0689L49.426 44.3333C49.5588 44.1297 49.4139 43.8616 49.1707 43.8583L40.0229 43.767C39.9166 43.7666 39.8192 43.8188 39.7605 43.9079L39.2853 44.6478C39.1546 44.8508 39.2995 45.1188 39.5406 45.1228L44.3102 45.1709C45.2658 45.1801 46.0868 45.7948 46.3768 46.6862L39.9944 46.6227C39.8881 46.6222 39.7907 46.6744 39.7342 46.7629L39.2577 47.4986C39.1249 47.7022 39.2698 47.9702 39.513 47.9735L46.384 48.043C46.0918 48.9473 45.2354 49.5775 44.2679 49.5673L39.3571 49.5176C39.188 49.5152 39.0488 49.6515 39.047 49.8227L39.0381 50.8175C39.0376 50.9007 39.0715 50.9829 39.1305 51.0413L45.8137 57.5558L45.8626 57.6035L47.0656 57.6146C47.3432 57.6168 47.4822 57.2799 47.2833 57.0857L40.9315 50.8919L44.2569 50.925C45.9626 50.9425 47.4534 49.7185 47.7808 48.0538L48.6623 48.0621C48.7686 48.0625 48.866 48.0103 48.9226 47.9218L49.399 47.1862C49.5319 46.9826 49.387 46.7145 49.1437 46.7112L47.7806 46.6972C47.678 46.1465 47.4462 45.6345 47.1039 45.1926Z" fill="#005E9E"/>
</g>
<defs>
<clipPath id="clip0_32_3231">
<rect width="120" height="120" fill="white"/>
</clipPath>
</defs>
</svg>
