<svg width="120" height="120" viewBox="0 0 120 120" fill="none" xmlns="http://www.w3.org/2000/svg">
<g id="4" clip-path="url(#clip0_32_3227)">
<path id="Vector" d="M60 120C93.1371 120 120 93.1371 120 60C120 26.8629 93.1371 0 60 0C26.8629 0 0 26.8629 0 60C0 93.1371 26.8629 120 60 120Z" fill="#DFEFF2"/>
<path id="Vector_2" d="M90.625 82.9688H89.0939V45.2344C89.0939 44.5781 88.6562 44.1405 88 44.1405H80.8907C80.2345 44.1405 79.7969 44.5781 79.7969 45.2344V82.9688H73.4532V56.1719C73.4532 55.5156 73.0156 55.078 72.3594 55.078H65.25C64.5938 55.078 64.1562 55.5156 64.1562 56.1719V82.9688H57.8125V61.6405C57.8125 60.9843 57.375 60.5469 56.7188 60.5469H49.6095C48.9532 60.5469 48.5156 60.9843 48.5156 61.6405V82.9688H42.172V66.0156C42.172 65.3594 41.7344 64.9218 41.0781 64.9218H34.1875C33.5312 64.9218 33.0938 65.3594 33.0938 66.0156V82.9688H30.4688V35.9375C30.4688 35.2812 30.0312 34.8438 29.375 34.8438C28.7187 34.8438 28.2812 35.2812 28.2812 35.9375V84.0625C28.2812 84.7188 28.7187 85.1561 29.375 85.1561H34.1875H41.297H49.8281H56.9375H65.4689H72.5782H81.1094H88.2189H90.625C91.2812 85.1561 91.7189 84.7188 91.7189 84.0625C91.7189 83.4062 91.2812 82.9688 90.625 82.9688ZM35.2812 82.9688V67.1093H40.2031V82.9688H35.2812ZM50.8125 82.9688V62.7344H55.7345V82.9688H50.8125ZM66.4532 82.9688V57.2655H71.375V82.9688H66.4532ZM81.9844 82.9688V46.328H86.9062V82.9688H81.9844Z" fill="#005E9E"/>
<path id="Vector_3" d="M35.9375 61.0938H36.0469C36.375 61.0938 68.6406 57.1563 86.5781 36.4845L86.6875 38.2345C86.6875 38.7814 87.2343 39.2188 87.7811 39.2188H87.8906C88.5469 39.1094 88.9844 38.6719 88.875 38.0156L88.5468 33.75C88.5468 33.4219 88.328 33.2032 88.1093 32.9845C87.8905 32.7657 87.6718 32.6562 87.3436 32.6562L83.0781 33.0938C82.4219 33.2031 81.9843 33.6407 82.0936 34.297C82.203 34.9532 82.6405 35.3907 83.2968 35.2812L84.9375 35.172C67.4375 55.0782 36.1561 58.9062 35.828 58.9062C35.2811 59.0156 34.8438 59.5626 34.8438 60.1095C34.9531 60.6563 35.3906 61.0938 35.9375 61.0938Z" fill="#005E9E"/>
</g>
<defs>
<clipPath id="clip0_32_3227">
<rect width="120" height="120" fill="white"/>
</clipPath>
</defs>
</svg>
