<svg xmlns="http://www.w3.org/2000/svg" width="1440" height="575" viewBox="0 0 1440 575" fill="none">
  <path d="M0 198.247C0 195.975 1.53211 193.988 3.72978 193.411L48 181.783C96 168.224 192 144.435 288 92.8153C384 42.1466 480 -33.9753 576 16.6934C672 68.3135 768 244.345 864 334.027C960 422.756 1056 422.756 1152 410.148C1248 396.589 1344 372.801 1392 359.242L1433.73 348.281C1436.9 347.449 1440 349.84 1440 353.117V570C1440 572.761 1437.76 575 1435 575H1392C1344 575 1248 575 1152 575C1056 575 960 575 864 575C768 575 672 575 576 575C480 575 384 575 288 575C192 575 96 575 48 575H5C2.23858 575 0 572.761 0 570V198.247Z" fill="#D6EDFC"/>
</svg>