<svg xmlns="http://www.w3.org/2000/svg" width="157" height="72" viewBox="0 0 157 72" fill="none">
  <path d="M92.4697 47.3893C90.8509 46.8256 94.1029 47.953 92.4697 47.3893V47.3893Z" fill="#005E9E"/>
  <path d="M92.4703 47.3888C90.5191 46.7095 88.409 46.6662 86.4578 45.9869C85.8652 45.7845 84.6945 45.5388 84.4488 44.8595C84.2176 44.1947 84.2176 43.4142 84.1742 42.7205C84.1453 42.1713 84.1309 41.622 84.1309 41.0728C84.1309 40.7115 85.0559 39.9455 85.2582 39.6131C86.0387 38.3123 86.1109 36.5634 86.2555 35.0892C87.5129 35.4361 87.6719 33.1091 87.8887 32.4009C88.0477 31.9095 89.016 28.5275 87.5129 28.99C87.8742 28.3541 88.0188 27.5736 88.1199 26.8654C88.409 25.0154 88.5246 22.992 87.9609 21.1853C86.7902 17.4275 83.1914 15.3173 79.3902 15.2017C75.5313 15.0716 71.6578 16.9216 70.2125 20.665C69.5187 22.4861 69.5766 24.4662 69.8078 26.374C69.909 27.2412 70.0535 28.2095 70.4871 28.99C69.0852 28.5709 69.8367 31.5482 69.9957 32.0685C70.227 32.8056 70.4293 35.4506 71.7445 35.0892C71.8602 36.2599 71.9902 37.4595 72.3082 38.6013C72.525 39.3673 72.973 40.0177 73.4934 40.6103C73.7535 40.8994 73.8836 40.9283 73.8691 41.3041C73.8547 42.4314 73.8836 43.6455 73.5945 44.7439C73.3055 45.8424 70.8918 46.3049 69.9234 46.5072C67.3219 47.042 64.9227 47.2877 62.7547 48.9064C60.2254 50.7709 58.9102 53.6759 58.9102 56.8123H99.0898C99.0898 52.5486 96.5172 48.7908 92.4703 47.3888Z" fill="#005E9E"/>
  <path d="M62.7109 45.6117L62.9422 45.4961C62.8988 45.5105 62.8555 45.5395 62.8266 45.5539C62.7832 45.5684 62.7543 45.5828 62.7109 45.6117Z" fill="#005E9E"/>
  <path d="M62.7113 45.6115C62.2199 45.8572 61.6273 46.1607 62.827 45.5537L62.9426 45.4959C63.9254 45.0334 64.9805 44.9178 66.0355 44.8166C66.4402 44.7732 66.6281 44.4986 66.3246 44.1084C65.7465 43.3713 63.752 43.2268 62.9137 42.8943C62.3934 42.692 62.2488 42.5041 62.2055 41.926C62.191 41.6658 62.0465 40.5096 62.2488 40.3217C62.3934 40.1771 63.3039 40.235 63.5063 40.2061C64.3301 40.1049 65.1684 39.9314 65.9488 39.6279C66.2812 39.4979 66.5992 39.3389 66.8883 39.1365C67.2352 38.8764 66.6281 38.2404 66.4691 37.8936C65.9777 36.8096 65.7609 35.6244 65.6887 34.4393C65.5441 32.1123 65.9055 29.7709 65.4719 27.4584C64.8215 23.9174 62.0898 22.1396 58.6066 22.1396C56.4531 22.1396 54.3285 22.8768 53.1289 24.7557C51.7992 26.8225 51.8715 29.3951 51.9438 31.751C51.9871 33.0951 52.0449 34.4537 51.857 35.7979C51.7703 36.376 51.6402 36.9396 51.4379 37.4889C51.2789 37.908 50.4695 38.9486 50.7875 39.1654C51.9871 40.0182 54.0105 40.3072 55.4559 40.1916C55.4992 40.8998 55.6293 41.8103 55.3691 42.4752C54.9645 43.5158 51.9437 43.7904 51.0332 44.0939C48.5039 44.9322 46.625 46.9846 46.625 49.8752H58.1152C58.3031 49.8752 59.0258 48.5311 59.2281 48.3143C60.2109 47.2303 61.4105 46.2908 62.7113 45.6115Z" fill="#005E9E"/>
  <path d="M106.938 44.0789C105.767 43.7031 103.513 43.5875 102.674 42.5758C102.255 42.0699 102.486 40.7836 102.53 40.1766C103.166 40.2344 103.86 40.1332 104.51 40.0465C105.103 39.9598 105.681 39.8441 106.244 39.6418C106.504 39.5406 106.765 39.4394 107.01 39.2949C107.574 38.9625 107.314 38.9047 107.025 38.4133C105.449 35.7684 106.158 32.4152 106.085 29.5101C106.028 27.0965 105.392 24.4516 103.195 23.093C101.215 21.8644 98.2806 21.8211 96.156 22.6883C90.0279 25.1453 93.6412 33.268 91.5455 37.9219C91.1842 38.7023 90.6638 38.9769 91.5744 39.4394C92.0802 39.6996 92.6295 39.873 93.1787 40.0031C94.017 40.2055 94.8842 40.3211 95.7513 40.35C95.8959 40.35 95.7947 42.1711 95.7513 42.359C95.5924 43.0672 94.0459 43.2695 93.4678 43.4285C92.8752 43.5875 91.8924 43.6309 91.6033 44.2523C91.1697 45.1773 93.0342 44.9461 93.4967 45.0328C94.9853 45.3074 96.3006 46.1312 97.4568 47.0707C98.324 47.7789 99.4947 48.7328 99.8127 49.8891H111.404C111.375 46.984 109.482 44.9172 106.938 44.0789Z" fill="#005E9E"/>
  <path d="M141.552 44.6599C140.241 44.2029 138.823 44.1737 137.512 43.7167C137.113 43.5805 136.327 43.4152 136.162 42.9582C136.006 42.5109 136.006 41.9858 135.977 41.519C135.958 41.1495 135.948 40.78 135.948 40.4105C135.948 40.1674 136.569 39.652 136.705 39.4283C137.23 38.5532 137.278 37.3765 137.376 36.3847C138.221 36.6181 138.327 35.0525 138.473 34.576C138.58 34.2454 139.231 31.9699 138.221 32.2811C138.463 31.8532 138.56 31.3281 138.628 30.8517C138.823 29.607 138.9 28.2456 138.522 27.0301C137.735 24.5018 135.317 23.0821 132.762 23.0043C130.169 22.9168 127.566 24.1615 126.595 26.68C126.129 27.9053 126.168 29.2375 126.323 30.521C126.391 31.1045 126.488 31.756 126.779 32.2811C125.837 31.9991 126.342 34.0023 126.449 34.3523C126.605 34.8483 126.741 36.6278 127.624 36.3847C127.702 37.1723 127.79 37.9794 128.003 38.7476C128.149 39.263 128.45 39.7006 128.8 40.0993C128.974 40.2938 129.062 40.3132 129.052 40.566C129.042 41.3245 129.062 42.1413 128.868 42.8804C128.673 43.6194 127.051 43.9306 126.401 44.0667C124.653 44.4265 123.04 44.5918 121.583 45.6809C119.884 46.9353 119 48.8899 119 51H146C146 48.1314 144.271 45.6031 141.552 44.6599Z" fill="#005E9E"/>
  <path d="M122.057 43.9255C121.719 44.1027 121.312 44.3215 122.136 43.8838L122.216 43.8421C122.891 43.5086 123.616 43.4252 124.341 43.3523C124.62 43.321 124.749 43.123 124.54 42.8416C124.143 42.3101 122.772 42.2058 122.196 41.9661C121.838 41.8202 121.739 41.6847 121.709 41.2678C121.699 41.0802 121.6 40.2465 121.739 40.111C121.838 40.0068 122.464 40.0485 122.603 40.0276C123.169 39.9547 123.745 39.8296 124.282 39.6107C124.51 39.5169 124.729 39.4023 124.928 39.2564C125.166 39.0688 124.749 38.6102 124.639 38.3601C124.302 37.5784 124.153 36.7238 124.103 35.8692C124.004 34.1912 124.252 32.5029 123.954 30.8353C123.507 28.2819 121.629 27 119.235 27C117.755 27 116.295 27.5315 115.47 28.8864C114.556 30.3768 114.606 32.2319 114.656 33.9307C114.686 34.8999 114.725 35.8796 114.596 36.8489C114.537 37.2658 114.447 37.6722 114.308 38.0683C114.199 38.3705 113.642 39.1209 113.861 39.2772C114.686 39.8921 116.076 40.1006 117.07 40.0172C117.1 40.5279 117.189 41.1845 117.01 41.6639C116.732 42.4143 114.656 42.6123 114.03 42.8312C112.291 43.4356 111 44.9156 111 47H118.898C119.027 47 119.523 46.0307 119.663 45.8744C120.338 45.0928 121.163 44.4153 122.057 43.9255Z" fill="#005E9E"/>
  <path d="M150.926 42.819C150.12 42.5486 148.568 42.4654 147.991 41.7374C147.702 41.3734 147.861 40.4477 147.891 40.0109C148.329 40.0525 148.807 39.9797 149.254 39.9173C149.662 39.8549 150.06 39.7717 150.448 39.6261C150.627 39.5533 150.806 39.4805 150.975 39.3765C151.363 39.1373 151.184 39.0957 150.985 38.7421C149.901 36.8388 150.388 34.4259 150.339 32.3354C150.299 30.5985 149.861 28.6953 148.349 27.7176C146.986 26.8336 144.966 26.8024 143.504 27.4264C139.285 29.1945 141.772 35.0395 140.33 38.3884C140.081 38.9501 139.723 39.1477 140.35 39.4805C140.698 39.6677 141.076 39.7925 141.454 39.8861C142.031 40.0317 142.628 40.1149 143.225 40.1357C143.324 40.1357 143.255 41.4462 143.225 41.5814C143.116 42.091 142.051 42.2366 141.653 42.351C141.245 42.4654 140.569 42.4966 140.37 42.9438C140.071 43.6095 141.355 43.4431 141.673 43.5055C142.698 43.7031 143.603 44.2959 144.399 44.9719C144.996 45.4815 145.802 46.168 146.021 47H154C153.98 44.9095 152.677 43.4223 150.926 42.819Z" fill="#005E9E"/>
  <path d="M34.5518 44.6599C33.2406 44.2029 31.8227 44.1737 30.5115 43.7167C30.1133 43.5805 29.3266 43.4152 29.1615 42.9582C29.0061 42.5109 29.0061 41.9858 28.977 41.519C28.9576 41.1495 28.9478 40.78 28.9478 40.4105C28.9478 40.1674 29.5694 39.652 29.7054 39.4283C30.2299 38.5532 30.2784 37.3765 30.3755 36.3847C31.2205 36.6181 31.3273 35.0525 31.473 34.576C31.5799 34.2454 32.2306 31.9699 31.2205 32.2811C31.4633 31.8532 31.5604 31.3281 31.6284 30.8517C31.8227 29.607 31.9004 28.2456 31.5216 27.0301C30.7349 24.5018 28.3165 23.0821 25.7622 23.0043C23.1691 22.9168 20.5662 24.1615 19.595 26.68C19.1288 27.9053 19.1676 29.2375 19.323 30.521C19.391 31.1045 19.4881 31.756 19.7795 32.2811C18.8374 31.9991 19.3424 34.0023 19.4493 34.3523C19.6047 34.8483 19.7406 36.6278 20.6245 36.3847C20.7022 37.1723 20.7896 37.9794 21.0032 38.7476C21.1489 39.263 21.45 39.7006 21.7996 40.0993C21.9745 40.2938 22.0619 40.3132 22.0522 40.566C22.0424 41.3245 22.0619 42.1413 21.8676 42.8804C21.6734 43.6194 20.0514 43.9306 19.4007 44.0667C17.6525 44.4265 16.0403 44.5918 14.5835 45.6809C12.8838 46.9353 12 48.8899 12 51H39C39 48.1314 37.2712 45.6031 34.5518 44.6599Z" fill="#005E9E"/>
  <path d="M15.0566 43.9255C14.7189 44.1027 14.3116 44.3215 15.1361 43.8838L15.2156 43.8421C15.8911 43.5086 16.6163 43.4252 17.3415 43.3523C17.6196 43.321 17.7488 43.123 17.5401 42.8416C17.1428 42.3101 15.7719 42.2058 15.1957 41.9661C14.8381 41.8202 14.7387 41.6847 14.7089 41.2678C14.699 41.0802 14.5997 40.2465 14.7387 40.111C14.8381 40.0068 15.4639 40.0485 15.603 40.0276C16.1692 39.9547 16.7454 39.8296 17.2818 39.6107C17.5103 39.5169 17.7289 39.4023 17.9276 39.2564C18.166 39.0688 17.7488 38.6102 17.6395 38.3601C17.3017 37.5784 17.1527 36.7238 17.103 35.8692C17.0037 34.1912 17.252 32.5029 16.954 30.8353C16.507 28.2819 14.6295 27 12.2353 27C10.7552 27 9.29486 27.5315 8.47033 28.8864C7.5564 30.3768 7.60607 32.2319 7.65574 33.9307C7.68554 34.8999 7.72528 35.8796 7.59613 36.8489C7.53653 37.2658 7.44712 37.6722 7.30805 38.0683C7.19877 38.3705 6.64246 39.1209 6.86101 39.2772C7.68554 39.8921 9.07631 40.1006 10.0697 40.0172C10.0995 40.5279 10.1889 41.1845 10.0101 41.6639C9.73196 42.4143 7.65574 42.6123 7.02989 42.8312C5.29143 43.4356 4 44.9156 4 47H11.8976C12.0267 47 12.5234 46.0307 12.6625 45.8744C13.338 45.0928 14.1626 44.4153 15.0566 43.9255Z" fill="#005E9E"/>
  <path d="M43.9257 42.819C43.1198 42.5486 41.5677 42.4654 40.9907 41.7374C40.7021 41.3734 40.8613 40.4477 40.8912 40.0109C41.3289 40.0525 41.8065 39.9797 42.2542 39.9173C42.6621 39.8549 43.0601 39.7717 43.4481 39.6261C43.6272 39.5533 43.8063 39.4805 43.9754 39.3765C44.3635 39.1373 44.1844 39.0957 43.9854 38.7421C42.9009 36.8388 43.3884 34.4259 43.3387 32.3354C43.2989 30.5985 42.8611 28.6953 41.3488 27.7176C39.9858 26.8336 37.9661 26.8024 36.5036 27.4264C32.2851 29.1945 34.7724 35.0395 33.3298 38.3884C33.0811 38.9501 32.7229 39.1477 33.3497 39.4805C33.6979 39.6677 34.076 39.7925 34.454 39.8861C35.0311 40.0317 35.6281 40.1149 36.225 40.1357C36.3245 40.1357 36.2549 41.4462 36.225 41.5814C36.1156 42.091 35.051 42.2366 34.653 42.351C34.2451 42.4654 33.5686 42.4966 33.3696 42.9438C33.0711 43.6095 34.3546 43.4431 34.6729 43.5055C35.6977 43.7031 36.6031 44.2959 37.399 44.9719C37.996 45.4815 38.8019 46.168 39.0207 47H47C46.9801 44.9095 45.6768 43.4223 43.9257 42.819Z" fill="#005E9E"/>
</svg>