<svg width="157" height="72" viewBox="0 0 157 72" fill="none" xmlns="http://www.w3.org/2000/svg">
<g id="people ">
<path id="Vector" d="M92.4697 47.3893C90.8509 46.8256 94.1029 47.953 92.4697 47.3893V47.3893Z" fill="#005E9E"/>
<path id="Vector_2" d="M92.4703 47.3888C90.5191 46.7095 88.409 46.6662 86.4578 45.9869C85.8652 45.7845 84.6945 45.5388 84.4488 44.8595C84.2176 44.1947 84.2176 43.4142 84.1742 42.7205C84.1453 42.1713 84.1309 41.622 84.1309 41.0728C84.1309 40.7115 85.0559 39.9455 85.2582 39.6131C86.0387 38.3123 86.1109 36.5634 86.2555 35.0892C87.5129 35.4361 87.6719 33.1091 87.8887 32.4009C88.0477 31.9095 89.016 28.5275 87.5129 28.99C87.8742 28.3541 88.0188 27.5736 88.1199 26.8654C88.409 25.0154 88.5246 22.992 87.9609 21.1853C86.7902 17.4275 83.1914 15.3173 79.3902 15.2017C75.5313 15.0716 71.6578 16.9216 70.2125 20.665C69.5187 22.4861 69.5766 24.4662 69.8078 26.374C69.909 27.2412 70.0535 28.2095 70.4871 28.99C69.0852 28.5709 69.8367 31.5482 69.9957 32.0685C70.227 32.8056 70.4293 35.4506 71.7445 35.0892C71.8602 36.2599 71.9902 37.4595 72.3082 38.6013C72.525 39.3673 72.973 40.0177 73.4934 40.6103C73.7535 40.8994 73.8836 40.9283 73.8691 41.3041C73.8547 42.4314 73.8836 43.6455 73.5945 44.7439C73.3055 45.8424 70.8918 46.3049 69.9234 46.5072C67.3219 47.042 64.9227 47.2877 62.7547 48.9064C60.2254 50.7709 58.9102 53.6759 58.9102 56.8123H99.0898C99.0898 52.5486 96.5172 48.7908 92.4703 47.3888Z" fill="#005E9E"/>
<path id="Vector_3" d="M62.7109 45.6117L62.9422 45.4961C62.8988 45.5105 62.8555 45.5395 62.8266 45.5539C62.7832 45.5684 62.7543 45.5828 62.7109 45.6117Z" fill="#005E9E"/>
<path id="Vector_4" d="M62.7113 45.6115C62.2199 45.8572 61.6273 46.1607 62.827 45.5537L62.9426 45.4959C63.9254 45.0334 64.9805 44.9178 66.0355 44.8166C66.4402 44.7732 66.6281 44.4986 66.3246 44.1084C65.7465 43.3713 63.752 43.2268 62.9137 42.8943C62.3934 42.692 62.2488 42.5041 62.2055 41.926C62.191 41.6658 62.0465 40.5096 62.2488 40.3217C62.3934 40.1771 63.3039 40.235 63.5063 40.2061C64.3301 40.1049 65.1684 39.9314 65.9488 39.6279C66.2812 39.4979 66.5992 39.3389 66.8883 39.1365C67.2352 38.8764 66.6281 38.2404 66.4691 37.8936C65.9777 36.8096 65.7609 35.6244 65.6887 34.4393C65.5441 32.1123 65.9055 29.7709 65.4719 27.4584C64.8215 23.9174 62.0898 22.1396 58.6066 22.1396C56.4531 22.1396 54.3285 22.8768 53.1289 24.7557C51.7992 26.8225 51.8715 29.3951 51.9438 31.751C51.9871 33.0951 52.0449 34.4537 51.857 35.7979C51.7703 36.376 51.6402 36.9396 51.4379 37.4889C51.2789 37.908 50.4695 38.9486 50.7875 39.1654C51.9871 40.0182 54.0105 40.3072 55.4559 40.1916C55.4992 40.8998 55.6293 41.8103 55.3691 42.4752C54.9645 43.5158 51.9437 43.7904 51.0332 44.0939C48.5039 44.9322 46.625 46.9846 46.625 49.8752H58.1152C58.3031 49.8752 59.0258 48.5311 59.2281 48.3143C60.2109 47.2303 61.4105 46.2908 62.7113 45.6115Z" fill="#005E9E"/>
<path id="Vector_5" d="M106.938 44.0789C105.767 43.7031 103.513 43.5875 102.674 42.5758C102.255 42.0699 102.486 40.7836 102.53 40.1766C103.166 40.2344 103.86 40.1332 104.51 40.0465C105.103 39.9598 105.681 39.8441 106.244 39.6418C106.504 39.5406 106.765 39.4394 107.01 39.2949C107.574 38.9625 107.314 38.9047 107.025 38.4133C105.449 35.7684 106.158 32.4152 106.085 29.5101C106.028 27.0965 105.392 24.4516 103.195 23.093C101.215 21.8644 98.2806 21.8211 96.156 22.6883C90.0279 25.1453 93.6412 33.268 91.5455 37.9219C91.1842 38.7023 90.6638 38.9769 91.5744 39.4394C92.0802 39.6996 92.6295 39.873 93.1787 40.0031C94.017 40.2055 94.8842 40.3211 95.7513 40.35C95.8959 40.35 95.7947 42.1711 95.7513 42.359C95.5924 43.0672 94.0459 43.2695 93.4678 43.4285C92.8752 43.5875 91.8924 43.6309 91.6033 44.2523C91.1697 45.1773 93.0342 44.9461 93.4967 45.0328C94.9853 45.3074 96.3006 46.1312 97.4568 47.0707C98.324 47.7789 99.4947 48.7328 99.8127 49.8891H111.404C111.375 46.984 109.482 44.9172 106.938 44.0789Z" fill="#005E9E"/>
</g>
</svg>
