<svg xmlns="http://www.w3.org/2000/svg" width="71" height="70" viewBox="0 0 71 70" fill="none">
  <g clip-path="url(#clip0_1460_3839)">
    <path d="M39.2601 38.582C36.74 38.5809 34.264 39.2428 32.0807 40.5012C31.9562 40.5731 31.8471 40.6688 31.7596 40.7829C31.6721 40.897 31.608 41.0272 31.5708 41.1661C31.5336 41.3049 31.5242 41.4498 31.543 41.5923C31.5618 41.7348 31.6085 41.8722 31.6804 41.9967C31.7523 42.1212 31.848 42.2303 31.9621 42.3178C32.0762 42.4053 32.2063 42.4694 32.3452 42.5066C32.4841 42.5438 32.6289 42.5532 32.7715 42.5344C32.914 42.5156 33.0514 42.4689 33.1759 42.397C35.8571 40.8468 39.0277 40.375 42.0441 41.0774C45.0605 41.7798 47.6966 43.6037 49.4172 46.1788C51.1379 48.754 51.8141 51.8874 51.3086 54.9429C50.8031 57.9985 49.1538 60.7472 46.6955 62.631C44.2372 64.5148 41.1542 65.3926 38.0723 65.0861C34.9904 64.7796 32.1406 63.3118 30.1015 60.9807C28.0624 58.6497 26.9868 55.63 27.093 52.5347C27.1992 49.4394 28.4793 46.5006 30.6734 44.3147C30.7781 44.2141 30.8616 44.0936 30.9193 43.9603C30.9769 43.827 31.0074 43.6836 31.009 43.5383C31.0106 43.3931 30.9832 43.2491 30.9285 43.1145C30.8739 42.98 30.7929 42.8577 30.6905 42.7548C30.5881 42.6519 30.4661 42.5704 30.3319 42.515C30.1976 42.4597 30.0537 42.4317 29.9084 42.4326C29.7632 42.4335 29.6196 42.4633 29.4861 42.5203C29.3525 42.5773 29.2316 42.6603 29.1305 42.7645C26.7744 45.109 25.3046 48.1982 24.9717 51.5053C24.6387 54.8124 25.4633 58.1326 27.3048 60.8997C29.1463 63.6667 31.8906 65.7093 35.0698 66.6791C38.249 67.6489 41.6662 67.4858 44.7385 66.2176C47.8109 64.9495 50.3483 62.6548 51.9178 59.725C53.4874 56.7951 53.9921 53.4115 53.3457 50.1511C52.6993 46.8908 50.942 43.9556 48.3734 41.8461C45.8047 39.7367 42.5839 38.5836 39.2601 38.5835V38.582Z" fill="#005E9E"/>
    <path d="M65.2748 22.8037C64.9985 22.736 64.7067 22.7785 64.4613 22.9224C64.2159 23.0662 64.0361 23.3 63.9603 23.5742C63.8844 23.8484 63.9183 24.1413 64.0548 24.3909C64.1913 24.6405 64.4197 24.827 64.6915 24.911C67.6504 25.7335 68.3169 26.661 68.3169 26.9118C68.3169 27.8247 64.0367 29.9656 55.7388 29.9656C47.4408 29.9656 43.1592 27.8247 43.1592 26.9118C43.1592 25.9989 47.4379 23.8581 55.7388 23.8581C57.7019 23.851 59.6628 23.9889 61.6056 24.2708C61.8885 24.3045 62.1734 24.2265 62.3998 24.0536C62.6263 23.8806 62.7764 23.6263 62.8183 23.3445C62.8602 23.0627 62.7907 22.7756 62.6245 22.5442C62.4582 22.3128 62.2084 22.1553 61.9279 22.1052C59.8783 21.8085 57.8097 21.6623 55.7388 21.6677C48.6265 21.6677 40.9717 23.3083 40.9717 26.9089V35.4183C40.9717 39.0189 48.6265 40.6595 55.7388 40.6595C60.5192 40.6595 65.5358 39.9143 68.3169 38.3335V39.6722C68.3169 40.5852 64.0367 42.726 55.7388 42.726C54.7865 42.726 53.859 42.6968 52.9679 42.6385C52.6784 42.6216 52.3939 42.7192 52.1757 42.9101C51.9574 43.1011 51.823 43.3702 51.8013 43.6593C51.7912 43.8031 51.8096 43.9474 51.8555 44.084C51.9014 44.2206 51.9739 44.3467 52.0688 44.4552C52.1637 44.5636 52.2791 44.6522 52.4084 44.7158C52.5377 44.7795 52.6783 44.8169 52.8221 44.826C53.7627 44.8872 54.7383 44.9193 55.7388 44.9193C60.5192 44.9193 65.5358 44.1741 68.3169 42.586V43.9248C68.3169 44.8377 64.0367 46.9873 55.7388 46.9873H55.3785C55.3173 46.9873 55.2823 46.9873 55.0869 46.9873C54.8 46.9892 54.5245 47.0996 54.3157 47.2962C54.1069 47.4929 53.9802 47.7612 53.961 48.0475C53.9528 48.3376 54.0599 48.6192 54.2589 48.8305C54.4579 49.0418 54.7326 49.1656 55.0227 49.1748C55.1685 49.1748 55.2604 49.1748 55.3217 49.1748H55.4675H55.7504C60.5308 49.1748 65.5475 48.4281 68.3285 46.8414V48.1802C68.3285 49.0931 64.0483 51.2339 55.7504 51.2339C55.4603 51.2339 55.1821 51.3492 54.977 51.5543C54.7719 51.7594 54.6567 52.0376 54.6567 52.3277C54.6567 52.6178 54.7719 52.896 54.977 53.1011C55.1821 53.3062 55.4603 53.4214 55.7504 53.4214C60.5308 53.4214 65.5475 52.6748 68.3285 51.0954V52.5406C68.3285 53.4535 64.0483 55.5943 55.7504 55.5943H55.3581C55.0729 55.6067 54.8023 55.724 54.5982 55.9237C54.3942 56.1234 54.2711 56.3915 54.2527 56.6764C54.25 56.9664 54.3624 57.2456 54.5652 57.4528C54.7681 57.6601 55.0448 57.7784 55.3348 57.7818H55.7504C62.8452 57.7862 70.5 56.1456 70.5 52.545V26.9118C70.5 25.7014 69.5929 24.0068 65.2748 22.8037ZM55.7344 32.1531C60.5148 32.1531 65.5315 31.4079 68.3125 29.827V31.1658C68.3125 32.0787 64.0323 34.2283 55.7344 34.2283C47.4365 34.2283 43.1548 32.086 43.1548 31.1658V29.827C45.9358 31.4079 50.9583 32.1531 55.7344 32.1531ZM55.7344 38.475C47.4335 38.475 43.1548 36.3341 43.1548 35.4212V34.0825C45.9358 35.6633 50.951 36.4158 55.7344 36.4158C60.5177 36.4158 65.5315 35.6706 68.3125 34.0825V35.4212C68.3125 36.3341 64.0323 38.475 55.7344 38.475ZM23.5417 58.7414C23.1567 58.756 22.7687 58.7648 22.375 58.7648C10.7812 58.7648 2.6875 52.1133 2.6875 42.5904C2.6875 34.8247 7.9375 23.3404 15.7673 18.6227C15.8738 18.557 15.9627 18.4768 16.059 18.4039H25C25.2901 18.4039 25.5683 18.2887 25.7734 18.0836C25.9785 17.8784 26.0938 17.6002 26.0938 17.3102C26.0938 17.0201 25.9785 16.7419 25.7734 16.5368C25.5683 16.3317 25.2901 16.2164 25 16.2164H17.4385C17.5878 15.3943 17.4177 14.5462 16.9631 13.8452C13.2662 8.11829 12.5473 5.54142 12.6815 4.8735C12.6955 4.88174 12.7119 4.88532 12.7281 4.88371C14.3706 4.89515 16.0028 5.14369 17.5742 5.62163C19.0945 6.08372 20.6724 6.32919 22.2612 6.35079C24.0575 6.30673 25.8416 6.04325 27.574 5.56621C28.9468 5.18818 30.3564 4.95935 31.7783 4.88371C31.739 5.70767 30.9223 8.14163 28.0975 12.9629H19.75C19.4599 12.9629 19.1817 13.0781 18.9766 13.2832C18.7715 13.4883 18.6562 13.7665 18.6562 14.0566C18.6562 14.3467 18.7715 14.6249 18.9766 14.83C19.1817 15.0351 19.4599 15.1504 19.75 15.1504H27.1321C27.0782 15.558 27.1019 15.9722 27.2021 16.371C27.3193 16.8241 27.5258 17.2491 27.8095 17.6213C28.0933 17.9934 28.4485 18.3051 28.8544 18.5381C32.7915 21.1023 35.9844 24.6578 38.1119 28.847C38.1784 28.9769 38.2703 29.0922 38.3821 29.186C38.4938 29.2799 38.6233 29.3504 38.7627 29.3935C38.9022 29.4365 39.0488 29.4512 39.1941 29.4367C39.3393 29.4222 39.4801 29.3788 39.6083 29.309C39.7365 29.2392 39.8494 29.1445 39.9404 29.0304C40.0314 28.9163 40.0987 28.7851 40.1382 28.6446C40.1777 28.5041 40.1887 28.3571 40.1706 28.2123C40.1524 28.0675 40.1055 27.9278 40.0325 27.8014C37.717 23.2658 34.2461 19.4211 29.97 16.6554C29.8132 16.5682 29.6754 16.4507 29.5645 16.3098C29.4535 16.1688 29.3718 16.0072 29.324 15.8343C29.2866 15.6892 29.2792 15.5379 29.302 15.3898C29.3248 15.2417 29.3774 15.0997 29.4567 14.9725C34.9458 5.84037 34.0592 4.27267 33.6858 3.59746C33.5195 3.3098 33.278 3.07293 32.9871 2.91233C32.6962 2.75173 32.367 2.67348 32.035 2.686C30.3583 2.73423 28.6935 2.98443 27.0767 3.43121C25.5081 3.86889 23.892 4.11376 22.2642 4.16037C20.8642 4.1355 19.4748 3.9131 18.1371 3.49975C16.3824 2.97575 14.5623 2.70276 12.731 2.68892C12.3398 2.66358 11.9495 2.74941 11.605 2.93649C11.2605 3.12358 10.9759 3.40429 10.7842 3.74621C10.4167 4.42142 9.43958 6.21517 15.1285 15.0264C15.2141 15.1533 15.2724 15.2966 15.2998 15.4473C15.3271 15.5979 15.3229 15.7525 15.2875 15.9014C15.2423 16.079 15.1616 16.2456 15.0503 16.3912C14.939 16.5368 14.7995 16.6584 14.64 16.7487C6.1875 21.8485 0.5 34.2283 0.5 42.5904C0.5 53.2289 9.70208 60.9581 22.375 60.9581C22.795 60.9581 23.2121 60.9493 23.6263 60.9318C23.7699 60.9262 23.911 60.8923 24.0415 60.8321C24.1721 60.7719 24.2895 60.6866 24.387 60.5811C24.4846 60.4755 24.5604 60.3518 24.6102 60.2169C24.6599 60.082 24.6826 59.9387 24.677 59.7951C24.6713 59.6514 24.6374 59.5103 24.5773 59.3798C24.5171 59.2492 24.4318 59.1318 24.3262 59.0343C24.2206 58.9367 24.0969 58.8609 23.962 58.8111C23.8272 58.7614 23.6838 58.7387 23.5402 58.7443L23.5417 58.7414Z" fill="#005E9E"/>
    <path d="M41.629 48.3055L43.3219 48.2727C43.4354 48.2698 43.5377 48.2109 43.5953 48.1146L44.0804 47.3141C44.2157 47.0925 44.0525 46.811 43.7927 46.8152L34.0244 47.0099C33.9109 47.0128 33.8086 47.0717 33.7488 47.1687L33.2652 47.9737C33.1321 48.1945 33.2953 48.4761 33.5529 48.4726L38.646 48.3717C39.6665 48.3509 40.5624 48.9809 40.9005 49.9232L34.0852 50.0592C33.9717 50.0621 33.8694 50.121 33.8119 50.2173L33.3267 51.0178C33.1914 51.2394 33.3547 51.5209 33.6145 51.5167L40.9515 51.3714C40.6685 52.346 39.7744 53.0462 38.7413 53.0662L33.4974 53.17C33.3167 53.1728 33.1725 53.3227 33.1761 53.5056L33.1983 54.5678C33.2005 54.6567 33.2392 54.7433 33.3041 54.8038L40.6465 61.5446L40.7002 61.5939L41.9849 61.5674C42.2812 61.5609 42.4189 61.1968 42.2003 60.9958L35.2219 54.5867L38.7729 54.5159C40.5943 54.4801 42.1466 53.1259 42.443 51.3384L43.3843 51.319C43.4977 51.3161 43.6 51.2572 43.6576 51.161L44.1427 50.3605C44.278 50.1389 44.1148 49.8573 43.855 49.8616L42.3994 49.8902C42.2723 49.3056 42.0085 48.7664 41.629 48.3055Z" fill="#005E9E"/>
  </g>
  <defs>
    <clipPath id="clip0_1460_3839">
      <rect width="70" height="70" fill="white" transform="translate(0.5)"/>
    </clipPath>
  </defs>
</svg>