<svg xmlns="http://www.w3.org/2000/svg" width="100" height="100" viewBox="0 0 100 100" fill="none">
  <mask id="mask0_1428_678" style="mask-type:luminance" maskUnits="userSpaceOnUse" x="0" y="0" width="100" height="100">
    <path d="M100 0H0V100H100V0Z" fill="white"/>
  </mask>
  <g mask="url(#mask0_1428_678)">
    <path d="M100.812 90.7305H-0.542969V100.563H100.812V90.7305Z" fill="#828587"/>
  </g>
  <mask id="mask1_1428_678" style="mask-type:luminance" maskUnits="userSpaceOnUse" x="0" y="0" width="100" height="100">
    <path d="M100 0H0V100H100V0Z" fill="white"/>
  </mask>
  <g mask="url(#mask1_1428_678)">
    <path opacity="0.5" d="M55.9191 68.9087L56.1042 62.7566L53.7364 62.3798L57.1809 57.8601L64.2853 58.3622L68.0889 62.3798L65.7925 63.1333L65.5605 68.9087H66.7971V66.3977H68.4477V68.9087H69.8793L70.0981 64.8911L77.4848 58.8674L87.3215 66.6488L87.2182 68.9087H89.3242L89.3742 58.7424L88.1111 58.3622L91.5556 50.2009L95.072 58.4876L93.7631 58.8001L93.916 68.7284L97.0684 68.9087L97.0095 65.5189L94.7075 65.4926L99.7367 60.7476L102.464 62.9309V57.4834L108.205 49.9502L114.52 57.7343L114.591 68.9087H116.242V72.6752H52.1572V68.9087H55.9191Z" fill="#5E8DA8"/>
  </g>
  <mask id="mask2_1428_678" style="mask-type:luminance" maskUnits="userSpaceOnUse" x="0" y="0" width="100" height="100">
    <path d="M100 0H0V100H100V0Z" fill="white"/>
  </mask>
  <g mask="url(#mask2_1428_678)">
    <path d="M73.0339 72.2064L72.7988 67.4601L75.8058 67.1694L71.4318 63.6823L62.4105 64.0698L57.5808 67.1694L60.4968 67.7507L60.7912 72.2064H59.2212V70.2692H57.1252V72.2064H55.307L55.0294 69.1067L45.0054 66.2977L33.1592 70.4628L33.2903 72.2064H30.616L30.6988 64.5542L32.1568 64.0698L27.7828 57.7734L23.3175 64.1667L25.3223 64.4573L25.062 72.2064H20.7827L20.8572 69.5911L22.5887 69.0099L17.3943 65.9102L13.9317 67.5947V63.3918L6.12505 60.1166L-1.37745 63.5856L-1.46745 72.2064H-3.56445V75.1123H77.8107V72.2064H73.0339Z" fill="#5E8DA8"/>
  </g>
  <mask id="mask3_1428_678" style="mask-type:luminance" maskUnits="userSpaceOnUse" x="0" y="0" width="100" height="100">
    <path d="M100 0H0V100H100V0Z" fill="white"/>
  </mask>
  <g mask="url(#mask3_1428_678)">
    <path d="M106.213 72.4916L106.001 68.2105L108.713 67.9483L105.792 65.1471L94.9167 65.367L92.2745 67.9483L94.9047 68.4726L95.1703 72.4916H93.754V70.7442H91.8637V72.4916H90.2238L89.9733 69.6957L80.9318 67.162L70.2468 70.9188L70.3652 72.4916H67.953L68.0275 65.5893L69.3427 65.1525L65.3974 59.4733L61.37 65.2398L63.1782 65.5021L62.9436 72.4916H59.0834L59.1508 70.1327L60.7125 69.6083L56.0273 66.8125L52.9039 68.3318V64.541L46.3287 59.2988L39.0957 64.7157L39.0144 72.4916H37.123V75.1126H110.521V72.4916H106.213Z" fill="#5E8DA8"/>
  </g>
  <mask id="mask4_1428_678" style="mask-type:luminance" maskUnits="userSpaceOnUse" x="0" y="0" width="100" height="100">
    <path d="M100 0H0V100H100V0Z" fill="white"/>
  </mask>
  <g mask="url(#mask4_1428_678)">
    <path d="M100.812 75.1123H-0.542969V86.5826H100.812V75.1123Z" fill="#A1C66F"/>
  </g>
  <mask id="mask5_1428_678" style="mask-type:luminance" maskUnits="userSpaceOnUse" x="0" y="0" width="100" height="100">
    <path d="M100 0H0V100H100V0Z" fill="white"/>
  </mask>
  <g mask="url(#mask5_1428_678)">
    <path d="M84.4994 44.6357H15.583V79.0354H84.4994V44.6357Z" fill="#EAEBEC"/>
    <path opacity="0.3" d="M84.4995 77.7773H15.583V79.4432H84.4995V77.7773Z" fill="#231F20"/>
    <path d="M84.4992 44.635H49.7773V38.5117H82.6745L84.4992 44.635Z" fill="#BBBDBF"/>
    <path d="M50.3039 44.635H15.582L17.0678 38.5117H50.3039V44.635Z" fill="#BBBDBF"/>
    <path d="M24.3439 46.1143H17.1309V75.1143H24.3439V46.1143Z" fill="#C9CACB"/>
    <path d="M83.0354 46.1143H75.8223V75.1143H83.0354V46.1143Z" fill="#C9CACB"/>
    <path d="M24.1375 76.6451H23.4949V75.8738H24.1375V76.6451ZM22.8521 76.6451H22.2095V75.8738H22.8521V76.6451ZM21.5669 76.6451H20.9242V75.8738H21.5669V76.6451ZM20.2816 76.6451H19.639V75.8738H20.2816V76.6451ZM18.9964 76.6451H18.3537V75.8738H18.9964V76.6451ZM17.711 76.6451H17.0684V75.8738H17.711V76.6451Z" fill="#B4B7B8"/>
    <path d="M82.6689 76.6451H82.0261V75.8738H82.6689V76.6451ZM81.3835 76.6451H80.7407V75.8738H81.3835V76.6451ZM80.0982 76.6451H79.4555V75.8738H80.0982V76.6451ZM78.813 76.6451H78.1702V75.8738H78.813V76.6451ZM77.5277 76.6451H76.885V75.8738H77.5277V76.6451ZM76.2424 76.6451H75.5996V75.8738H76.2424V76.6451Z" fill="#B4B7B8"/>
    <path d="M84.4984 45.0098H84.332V44.2598H84.4984V45.0098ZM83.707 45.0098H83.082V44.2598H83.707V45.0098ZM82.457 45.0098H81.832V44.2598H82.457V45.0098ZM81.207 45.0098H80.582V44.2598H81.207V45.0098ZM79.957 45.0098H79.332V44.2598H79.957V45.0098ZM78.707 45.0098H78.082V44.2598H78.707V45.0098ZM77.457 45.0098H76.832V44.2598H77.457V45.0098ZM76.207 45.0098H75.582V44.2598H76.207V45.0098ZM74.957 45.0098H74.332V44.2598H74.957V45.0098ZM73.707 45.0098H73.082V44.2598H73.707V45.0098ZM72.457 45.0098H71.832V44.2598H72.457V45.0098ZM71.207 45.0098H70.582V44.2598H71.207V45.0098ZM69.957 45.0098H69.332V44.2598H69.957V45.0098ZM68.707 45.0098H68.082V44.2598H68.707V45.0098ZM67.457 45.0098H66.832V44.2598H67.457V45.0098ZM66.207 45.0098H65.582V44.2598H66.207V45.0098ZM64.957 45.0098H64.332V44.2598H64.957V45.0098ZM63.707 45.0098H63.082V44.2598H63.707V45.0098ZM62.457 45.0098H61.832V44.2598H62.457V45.0098ZM61.207 45.0098H60.582V44.2598H61.207V45.0098ZM59.957 45.0098H59.332V44.2598H59.957V45.0098ZM58.707 45.0098H58.082V44.2598H58.707V45.0098ZM57.457 45.0098H56.832V44.2598H57.457V45.0098ZM56.207 45.0098H55.582V44.2598H56.207V45.0098ZM54.957 45.0098H54.332V44.2598H54.957V45.0098ZM53.707 45.0098H53.082V44.2598H53.707V45.0098ZM52.457 45.0098H51.832V44.2598H52.457V45.0098ZM51.207 45.0098H50.582V44.2598H51.207V45.0098ZM49.957 45.0098H49.332V44.2598H49.957V45.0098ZM48.707 45.0098H48.082V44.2598H48.707V45.0098ZM47.457 45.0098H46.832V44.2598H47.457V45.0098ZM46.207 45.0098H45.582V44.2598H46.207V45.0098ZM44.957 45.0098H44.332V44.2598H44.957V45.0098ZM43.707 45.0098H43.082V44.2598H43.707V45.0098ZM42.457 45.0098H41.832V44.2598H42.457V45.0098ZM41.207 45.0098H40.582V44.2598H41.207V45.0098ZM39.957 45.0098H39.332V44.2598H39.957V45.0098ZM38.707 45.0098H38.082V44.2598H38.707V45.0098ZM37.457 45.0098H36.832V44.2598H37.457V45.0098ZM36.207 45.0098H35.582V44.2598H36.207V45.0098ZM34.957 45.0098H34.332V44.2598H34.957V45.0098ZM33.707 45.0098H33.082V44.2598H33.707V45.0098ZM32.457 45.0098H31.832V44.2598H32.457V45.0098ZM31.207 45.0098H30.582V44.2598H31.207V45.0098ZM29.957 45.0098H29.332V44.2598H29.957V45.0098ZM28.707 45.0098H28.082V44.2598H28.707V45.0098ZM27.457 45.0098H26.832V44.2598H27.457V45.0098ZM26.207 45.0098H25.582V44.2598H26.207V45.0098ZM24.957 45.0098H24.332V44.2598H24.957V45.0098ZM23.707 45.0098H23.082V44.2598H23.707V45.0098ZM22.457 45.0098H21.832V44.2598H22.457V45.0098ZM21.207 45.0098H20.582V44.2598H21.207V45.0098ZM19.957 45.0098H19.332V44.2598H19.957V45.0098ZM18.707 45.0098H18.082V44.2598H18.707V45.0098ZM17.457 45.0098H16.832V44.2598H17.457V45.0098ZM16.207 45.0098H15.582V44.2598H16.207V45.0098Z" fill="#B4B7B8"/>
    <path d="M74.527 40.8672H26.1973V79.0336H74.527V40.8672Z" fill="#EAEBEC"/>
    <path d="M69.9434 39.8682H29.5918V79.0347H69.9434V39.8682Z" fill="#828587"/>
    <path d="M22.3316 39.6914C21.8224 39.6914 21.3704 39.3644 21.2114 38.8804C21.0523 38.3965 21.222 37.8652 21.6325 37.5632L49.491 17.0403C49.6988 16.887 49.9446 16.8105 50.1901 16.8105C50.4379 16.8105 50.6855 16.8883 50.8945 17.0439L78.4539 37.5668C78.8616 37.8704 79.0286 38.401 78.8686 38.8834C78.709 39.3659 78.258 39.6915 77.7495 39.6915H22.3316V39.6914Z" fill="#CFD0D2"/>
    <path d="M50.1905 17.989L77.7499 38.512H22.332L50.1905 17.989ZM50.1905 15.6309C49.6991 15.6309 49.2078 15.7841 48.7918 16.0905L20.9333 36.6132C20.113 37.2174 19.7736 38.2801 20.0916 39.248C20.4096 40.2159 21.3131 40.8701 22.332 40.8701H77.7499C78.7665 40.8701 79.6686 40.2187 79.9884 39.2539C80.3083 38.2887 79.9735 37.2275 79.1583 36.6205L51.5988 16.0977C51.1813 15.7866 50.6859 15.6309 50.1905 15.6309Z" fill="#EAEBEC"/>
    <path d="M50.1548 21.2313L28.832 36.9393H71.2493L50.1548 21.2313Z" fill="#BBBDBF"/>
    <path d="M49.7106 20.6279L49.2073 20.9986L49.6522 21.6024L50.1504 21.2354L50.1509 21.2351C50.1509 21.2351 50.1509 21.2351 50.1512 21.2349L50.1517 21.2346C50.1517 21.2344 50.1517 21.2344 50.1519 21.2343L50.1522 21.2339C50.1524 21.2339 50.1524 21.2339 50.1524 21.2339L50.1527 21.2338C50.1529 21.2337 50.1529 21.2334 50.1532 21.2333L50.1534 21.2331C50.1537 21.2329 50.1539 21.2327 50.1542 21.2326C50.1547 21.2322 50.1552 21.2319 50.1554 21.2318V21.2317L49.7106 20.6279ZM48.7042 21.3693L48.2009 21.7401L48.6458 22.3439C48.6458 22.3439 48.8099 22.2231 48.9507 22.1193L49.1489 21.9732L48.7042 21.3693ZM47.6977 22.1107L47.1946 22.4814L47.6394 23.0853L48.1426 22.7147L47.6977 22.1107ZM46.6913 22.8521L46.1882 23.2228L46.6331 23.8267L46.9756 23.5743C46.9757 23.5742 46.9758 23.5741 46.9759 23.5741L46.9763 23.5737C46.9767 23.5734 46.9771 23.5732 46.9774 23.5729L46.9824 23.5692C46.9824 23.5692 46.9826 23.5692 46.9826 23.5691L46.9876 23.5654C46.9878 23.5652 46.9882 23.5649 46.9884 23.5648L46.9932 23.5613C46.9933 23.5612 46.9936 23.5611 46.9937 23.5609L46.9954 23.5597C46.9967 23.5587 46.9979 23.5578 46.9992 23.5569L46.9997 23.5566C46.9998 23.5564 47.0001 23.5563 47.0002 23.5562L47.0012 23.5554C47.0012 23.5554 47.0012 23.5553 47.0013 23.5553L47.0034 23.5538C47.0038 23.5536 47.0041 23.5533 47.0044 23.5531L47.0062 23.5518C47.0064 23.5516 47.0067 23.5514 47.0069 23.5513L47.0076 23.5509C47.0087 23.5501 47.0099 23.5492 47.0111 23.5483L47.0112 23.5482C47.0149 23.5454 47.0187 23.5427 47.0222 23.5401L47.0229 23.5396C47.0887 23.4912 47.1361 23.4563 47.1361 23.4563L46.6913 22.8521ZM45.6849 23.5934L45.1818 23.9642L45.6267 24.5681C45.6267 24.5681 45.8213 24.4247 45.9684 24.3162L45.9687 24.3161C45.9694 24.3154 45.9703 24.3148 45.9712 24.3142L46.1298 24.1972L45.6849 23.5934ZM44.6786 24.3348L44.1754 24.7054L44.6203 25.3093L45.1236 24.9386L44.6786 24.3348ZM43.6721 25.0762L43.1689 25.4468L43.6138 26.0507L43.7674 25.9376C43.7674 25.9374 43.7676 25.9374 43.7676 25.9374L43.7702 25.9356C43.7704 25.9354 43.7706 25.9352 43.7708 25.9351H43.7709C43.7718 25.9344 43.7728 25.9337 43.7737 25.9331L43.7757 25.9316C43.7758 25.9316 43.7758 25.9316 43.7758 25.9316L43.7839 25.9256C43.7841 25.9254 43.7843 25.9253 43.7844 25.9252L43.7897 25.9213V25.9212L43.7924 25.9191C43.7924 25.9191 43.7924 25.9191 43.7926 25.9191L43.7947 25.9174C43.7951 25.9172 43.7956 25.9168 43.7959 25.9166L43.7967 25.9159L43.7978 25.9151C43.7979 25.9149 43.7982 25.9148 43.7983 25.9147L43.8004 25.9131C43.8008 25.9128 43.8012 25.9126 43.8014 25.9123L43.8029 25.9113C43.9456 25.8062 44.1168 25.6801 44.1168 25.6801L43.6721 25.0762ZM42.6658 25.8177L42.1626 26.1883L42.6074 26.7922C42.6074 26.7922 42.8311 26.6274 42.9802 26.5177L42.9806 26.5174C42.9808 26.5172 42.9811 26.5171 42.9813 26.5169L42.9821 26.5164C42.9827 26.5159 42.9834 26.5154 42.9841 26.5149L43.1107 26.4217L42.6658 25.8177ZM41.6593 26.5591L41.1561 26.9297L41.6009 27.5334L42.1042 27.1628L41.6593 26.5591ZM40.6529 27.3004L40.1497 27.6711L40.5946 28.2749C40.5946 28.2749 40.5949 28.2747 40.5956 28.2742H40.5957C40.5959 28.2741 40.5962 28.2738 40.5964 28.2736L40.5968 28.2733V28.2732L40.5973 28.2729L40.5976 28.2728L40.5977 28.2727C40.5978 28.2726 40.5981 28.2724 40.5982 28.2723L40.5983 28.2722C40.5984 28.2721 40.5986 28.2719 40.5987 28.2719L40.5988 28.2718C40.5988 28.2718 40.5989 28.2717 40.5991 28.2716H40.5992C40.5992 28.2714 40.5993 28.2714 40.5993 28.2714H40.5994C40.6008 28.2704 40.6024 28.2692 40.6043 28.2678L40.6046 28.2677C40.6048 28.2676 40.6051 28.2673 40.6053 28.2672L40.6059 28.2667C40.6059 28.2666 40.6061 28.2666 40.6063 28.2664C40.6073 28.2657 40.6083 28.2649 40.6093 28.2642L40.6094 28.2641C40.6148 28.2601 40.6216 28.2552 40.6294 28.2493V28.2492C40.7437 28.1651 41.0977 27.9043 41.0977 27.9043L40.6529 27.3004ZM39.6466 28.0418L39.1433 28.4126L39.5882 29.0164C39.5882 29.0164 39.8544 28.8203 39.9997 28.7133L40.0014 28.7121L40.0914 28.6458L39.6466 28.0418ZM38.6402 28.7832L38.1371 29.1539L38.5819 29.7578L39.0851 29.3872L38.6402 28.7832ZM37.6337 29.5246L37.1306 29.8953L37.5754 30.4992L38.0786 30.1284L37.6337 29.5246ZM36.6273 30.2659L36.1242 30.6366L36.5691 31.2404C36.5691 31.2404 36.6234 31.2003 36.6964 31.1466L36.6969 31.1463C36.7002 31.1438 36.7034 31.1414 36.7068 31.1391L36.7079 31.1382L36.7092 31.1373C36.7092 31.1372 36.7093 31.1372 36.7093 31.1372L36.7103 31.1364C36.7106 31.1362 36.7108 31.1361 36.7111 31.1359L36.7152 31.1329C36.7153 31.1328 36.7156 31.1326 36.7157 31.1326L36.7178 31.1311C36.7183 31.1307 36.7188 31.1303 36.7193 31.1299L36.7219 31.1279C36.7221 31.1278 36.7223 31.1277 36.7226 31.1276L36.7232 31.1271C36.7233 31.1269 36.7234 31.1269 36.7236 31.1268L37.0722 30.8699L36.6273 30.2659ZM35.6209 31.0073L35.1178 31.3779L35.5627 31.9818L36.0659 31.6111L35.6209 31.0073ZM34.6144 31.7487L34.1113 32.1193L34.5562 32.7232L35.0594 32.3524L34.6144 31.7487ZM33.6082 32.4902L33.1049 32.8608L33.5498 33.4647C33.5498 33.4647 33.5703 33.4497 33.6028 33.4257L34.0531 33.0941L33.6082 32.4902ZM32.6017 33.2316L32.0984 33.6022L32.5433 34.2061L33.0466 33.8354L32.6017 33.2316ZM31.5953 33.9728L31.0921 34.3436L31.5369 34.9474L32.0402 34.5768L31.5953 33.9728ZM30.5889 34.7143L30.0857 35.0851L30.5306 35.6889C30.5306 35.6889 30.5668 35.6622 30.6199 35.6231L31.0338 35.3182L30.5889 34.7143ZM29.5826 35.4557L29.0794 35.8264L29.5243 36.4303L30.0274 36.0596L29.5826 35.4557ZM28.5761 36.1971L28.3876 36.3359L26.5498 37.6898H28.8324H29.2232V36.9398H28.8324C28.8324 36.9398 28.8326 36.9398 28.8328 36.9397L28.8324 36.9398C28.8328 36.9396 28.8329 36.9394 28.8329 36.9394L28.8324 36.9398C28.8331 36.9393 28.8332 36.9393 28.8332 36.9393L28.8334 36.9392L28.8337 36.9389L28.8341 36.9388C28.8342 36.9387 28.8342 36.9387 28.8342 36.9387L29.0209 36.8011L28.5761 36.1971ZM30.4732 36.9398H29.8482V37.6898H30.4732V36.9398ZM31.7232 36.9398H31.0982V37.6898H31.7232V36.9398ZM32.9732 36.9398H32.3482V37.6898H32.9732V36.9398ZM34.2232 36.9398H33.5982V37.6898H34.2232V36.9398ZM35.4732 36.9398H34.8482V37.6898H35.4732V36.9398ZM36.7232 36.9398H36.0982V37.6898H36.7232V36.9398ZM37.9732 36.9398H37.3482V37.6898H37.9732V36.9398ZM39.2232 36.9398H38.5982V37.6898H39.2232V36.9398ZM40.4732 36.9398H39.8482V37.6898H40.4732V36.9398ZM41.7232 36.9398H41.0982V37.6898H41.7232V36.9398ZM42.9732 36.9398H42.3482V37.6898H42.9732V36.9398ZM44.2232 36.9398H43.5982V37.6898H44.2232V36.9398ZM45.4732 36.9398H44.8482V37.6898H45.4732V36.9398ZM46.7232 36.9398H46.0982V37.6898H46.7232V36.9398ZM47.9732 36.9398H47.3482V37.6898H47.9732V36.9398ZM49.2232 36.9398H48.5982V37.6898H49.2232V36.9398ZM50.4732 36.9398H49.8482V37.6898H50.4732V36.9398ZM51.7232 36.9398H51.0982V37.6898H51.7232V36.9398ZM52.9732 36.9398H52.3482V37.6898H52.9732V36.9398ZM54.2232 36.9398H53.5982V37.6898H54.2232V36.9398ZM55.4732 36.9398H54.8482V37.6898H55.4732V36.9398ZM56.7232 36.9398H56.0982V37.6898H56.7232V36.9398ZM57.9732 36.9398H57.3482V37.6898H57.9732V36.9398ZM59.2232 36.9398H58.5982V37.6898H59.2232V36.9398ZM60.4732 36.9398H59.8482V37.6898H60.4732V36.9398ZM61.7232 36.9398H61.0982V37.6898H61.7232V36.9398ZM62.9732 36.9398H62.3482V37.6898H62.9732V36.9398ZM64.2232 36.9398H63.5982V37.6898H64.2232V36.9398ZM65.4732 36.9398H64.8482V37.6898H65.4732V36.9398ZM66.7232 36.9398H66.0982V37.6898H66.7232V36.9398ZM67.9732 36.9398H67.3482V37.6898H67.9732V36.9398ZM69.2232 36.9398H68.5982V37.6898H69.2232V36.9398ZM70.4732 36.9398H69.8482V37.6898H70.4732V36.9398ZM71.3177 36.0553L70.8697 36.6569C70.8697 36.6569 71.2129 36.9126 71.2469 36.9378L71.2472 36.9381C71.2474 36.9381 71.2474 36.9382 71.2477 36.9383L71.2479 36.9384L71.2482 36.9387C71.2482 36.9387 71.2482 36.9387 71.2484 36.9387C71.2489 36.9391 71.2492 36.9393 71.2494 36.9396L71.2497 36.9397C71.2497 36.9396 71.2497 36.9396 71.2497 36.9396V36.9397H71.0983V37.6897H71.2497H73.5127L71.6977 36.3381L71.3177 36.0553ZM70.3152 35.3088L69.8672 35.9103L70.3684 36.2836L70.8164 35.6819L70.3152 35.3088ZM69.3126 34.5623L68.8646 35.1638L69.3661 35.5371L69.8138 34.9356L69.3126 34.5623ZM68.3101 33.8157L67.8621 34.4172L68.3633 34.7904L68.8113 34.1889L68.3101 33.8157ZM67.3074 33.0691L66.8594 33.6707L67.3609 34.0439L67.8087 33.4423L67.3074 33.0691ZM66.3049 32.3226L65.8569 32.9242L66.1773 33.1628C66.2757 33.2359 66.3582 33.2974 66.3582 33.2974L66.8062 32.6958L66.3049 32.3226ZM65.3023 31.5761L64.8543 32.1776L65.3558 32.5508L65.8036 31.9492L65.3023 31.5761ZM64.2998 30.8294L63.8518 31.4309L64.1628 31.6626V31.6627L64.1652 31.6644C64.1654 31.6647 64.1657 31.6648 64.1659 31.6651L64.1698 31.6679C64.1698 31.6679 64.1698 31.6681 64.1701 31.6681L64.1752 31.6719C64.1762 31.6727 64.1772 31.6734 64.1781 31.6742L64.1786 31.6744C64.2738 31.7454 64.3529 31.8043 64.3529 31.8043L64.8009 31.2028L64.2998 30.8294ZM63.2972 30.0828L62.8492 30.6844C62.8492 30.6844 62.9283 30.7433 63.0236 30.8142L63.3507 31.0577L63.7984 30.4561L63.2972 30.0828ZM62.2947 29.3363L61.8467 29.9379L62.3479 30.3112L62.7959 29.7096L62.2947 29.3363ZM61.2921 28.5897L60.8441 29.1913L61.3456 29.5646L61.7933 28.9629L61.2921 28.5897ZM60.2896 27.8432L59.8416 28.4447C59.8416 28.4447 60.0391 28.5919 60.1863 28.7014C60.1876 28.7024 60.1888 28.7033 60.1899 28.7043L60.3428 28.8181L60.7908 28.2166L60.2896 27.8432ZM59.2869 27.0966L58.8389 27.6981L59.3404 28.0713L59.7882 27.4698L59.2869 27.0966ZM58.2844 26.3499L57.8364 26.9516L58.3377 27.3248L58.7857 26.7232L58.2844 26.3499ZM57.2818 25.6034L56.8338 26.2051L57.3353 26.5783L57.7831 25.9767L57.2818 25.6034ZM56.2793 24.8569L55.8313 25.4584L56.3326 25.8317L56.7806 25.2301L56.2793 24.8569ZM55.2767 24.1103L54.8287 24.7118L55.3302 25.0851L55.7779 24.4836L55.2767 24.1103ZM54.2742 23.3637L53.8262 23.9653L54.3059 24.3224L54.3218 24.3343C54.3218 24.3343 54.3218 24.3343 54.3221 24.3344L54.3259 24.3374L54.3272 24.3382L54.3274 24.3383V24.3386L54.7754 23.7369L54.2742 23.3637ZM53.2716 22.6172L52.8236 23.2188L53.3251 23.5921L53.7728 22.9904L53.2716 22.6172ZM52.2691 21.8706L51.8211 22.4722C51.8211 22.4722 52.0644 22.6536 52.2122 22.7634L52.2158 22.7663L52.2161 22.7664L52.3223 22.8456L52.7703 22.2439L52.2691 21.8706ZM51.2664 21.1241L50.8184 21.7256L50.8241 21.7297C50.8241 21.7298 50.8241 21.7298 50.8243 21.7298L50.8353 21.7379L50.8389 21.7407C50.8402 21.7417 50.8414 21.7427 50.8428 21.7437L50.8448 21.7451L50.8453 21.7456C50.8453 21.7457 50.8456 21.7458 50.8458 21.7459L50.8471 21.7468L50.8483 21.7478L50.8486 21.7479L50.8507 21.7496C50.8509 21.7498 50.8514 21.7501 50.8519 21.7504C50.8524 21.7508 50.8529 21.7512 50.8534 21.7516L50.8537 21.7517C50.8542 21.7522 50.8549 21.7527 50.8557 21.7532L50.8559 21.7534C50.8562 21.7536 50.8564 21.7538 50.8567 21.7539C50.9739 21.8411 51.3201 22.0988 51.3201 22.0988L51.7678 21.4973L51.2664 21.1241ZM50.6033 20.6302L50.1553 21.2318L50.1571 21.2331L50.1573 21.2332L50.1593 21.2347L50.1596 21.2348L50.1601 21.2352L50.1606 21.2354L50.1608 21.2357C50.1884 21.2563 50.3173 21.3523 50.3173 21.3523L50.7653 20.7508L50.6033 20.6302Z" fill="#B4B7B8"/>
    <path opacity="0.3" d="M50.3265 17.9893L51.2479 18.6749L24.5322 38.5119L22.4688 38.5123L50.3265 17.9893Z" fill="#231F20"/>
    <path d="M54.6914 30.0958C54.6914 32.8572 52.4529 35.0958 49.6914 35.0958C46.9299 35.0958 44.6914 32.8572 44.6914 30.0958C44.6914 27.3343 46.93 25.0957 49.6914 25.0957C52.4529 25.0957 54.6914 27.3343 54.6914 30.0958Z" fill="#EAEBEC"/>
    <path d="M53.5824 30.095C53.5824 32.2439 51.8402 33.9859 49.6917 33.9859C47.5428 33.9859 45.8008 32.2439 45.8008 30.095C45.8008 27.946 47.5427 26.2041 49.6917 26.2041C51.8403 26.2041 53.5824 27.946 53.5824 30.095Z" fill="#828587"/>
    <path opacity="0.1" d="M49.6917 33.4442C47.6339 33.4442 45.9504 31.8465 45.8113 29.8242C45.805 29.9138 45.8008 30.0039 45.8008 30.095C45.8008 32.2439 47.5427 33.9859 49.6917 33.9859C51.8403 33.9859 53.5824 32.2439 53.5824 30.095C53.5824 30.0039 53.5783 29.9138 53.5719 29.8242C53.4328 31.8467 51.7492 33.4442 49.6917 33.4442Z" fill="#231F20"/>
    <path d="M18.668 55.2939V49.7369C18.6677 49.7193 18.6669 49.7077 18.666 49.6962C18.6657 49.6903 18.665 49.6843 18.665 49.6782C18.665 48.6081 19.5357 47.7373 20.6059 47.7373C21.676 47.7373 22.5468 48.6081 22.5468 49.6782C22.5468 49.6842 22.5442 49.7193 22.5439 49.7308L22.5438 55.2938H18.668V55.2939Z" fill="#606164"/>
    <path d="M20.6056 47.9525C21.557 47.9525 22.331 48.7265 22.3311 49.6717L22.3305 49.6806C22.3295 49.6952 22.3286 49.7097 22.3281 49.7245L22.328 49.7305V49.7365V55.078H18.8832V49.7365V49.7305L18.8831 49.7245C18.8827 49.7099 18.8818 49.6952 18.8807 49.6806L18.8802 49.6777C18.8802 48.7265 19.6542 47.9525 20.6056 47.9525ZM20.6056 47.5215C19.4147 47.5215 18.4492 48.487 18.4492 49.6779C18.4492 49.6976 18.4517 49.717 18.4522 49.7366V55.5091H22.759V49.7366C22.7595 49.717 22.762 49.6976 22.762 49.6779C22.762 48.487 21.7965 47.5215 20.6056 47.5215Z" fill="#A5A7AA"/>
    <path d="M20.8692 47.9814H20.3418V55.1431H20.8692V47.9814Z" fill="#A5A7AA"/>
    <path d="M22.4976 50.1035H18.7129V50.5218H22.4976V50.1035Z" fill="#A5A7AA"/>
    <path d="M33.5694 55.2939V49.7369C33.569 49.7193 33.5683 49.7077 33.5674 49.6962C33.567 49.6903 33.5664 49.6843 33.5664 49.6782C33.5664 48.6081 34.437 47.7373 35.5073 47.7373C36.5775 47.7373 37.4482 48.6081 37.4482 49.6782C37.4482 49.6842 37.4455 49.7193 37.4453 49.7308V55.2938H33.5694V55.2939Z" fill="#606164"/>
    <path d="M35.507 47.9525C36.4583 47.9525 37.2323 48.7265 37.2325 49.6717L37.2318 49.6806C37.2308 49.6952 37.23 49.7097 37.2295 49.7245L37.2293 49.7305V49.7365V55.078H33.7846V49.7365V49.7305L33.7845 49.7245C33.784 49.7099 33.7832 49.6952 33.7821 49.6806L33.7816 49.6777C33.7816 48.7265 34.5556 47.9525 35.507 47.9525ZM35.507 47.5215C34.3161 47.5215 33.3506 48.487 33.3506 49.6779C33.3506 49.6976 33.3531 49.717 33.3536 49.7366V55.5091H37.6603V49.7366C37.6608 49.717 37.6633 49.6976 37.6633 49.6779C37.6633 48.487 36.698 47.5215 35.507 47.5215Z" fill="#A5A7AA"/>
    <path d="M35.7705 47.9814H35.2432V55.1431H35.7705V47.9814Z" fill="#A5A7AA"/>
    <path d="M37.399 50.1035H33.6143V50.5218H37.399V50.1035Z" fill="#A5A7AA"/>
    <path d="M48.1035 55.2939V49.7369C48.1031 49.7197 48.1023 49.7078 48.1016 49.6959L48.1006 49.6782C48.1006 48.6081 48.9712 47.7373 50.0413 47.7373C51.1116 47.7373 51.9822 48.6081 51.9822 49.6782C51.9822 49.6782 51.9797 49.7197 51.9793 49.7316V55.2939H48.1035Z" fill="#606164"/>
    <path d="M50.041 47.9525C50.9924 47.9525 51.7663 48.7265 51.7665 49.6719L51.766 49.6806C51.7648 49.6957 51.764 49.7107 51.7635 49.7259L51.7633 49.7312V49.7366V55.0781H48.3186V49.7366V49.7312L48.3185 49.7259C48.3181 49.7106 48.3173 49.6956 48.3161 49.6806L48.3158 49.6779C48.3156 48.7265 49.0896 47.9525 50.041 47.9525ZM50.041 47.5215C48.8501 47.5215 47.8848 48.487 47.8848 49.6779C47.8848 49.6976 47.8873 49.717 47.8876 49.7366V55.5091H52.1944V49.7366C52.1949 49.717 52.1973 49.6976 52.1973 49.6779C52.1974 48.487 51.232 47.5215 50.041 47.5215Z" fill="#A5A7AA"/>
    <path d="M50.3046 47.9814H49.7773V55.1431H50.3046V47.9814Z" fill="#A5A7AA"/>
    <path d="M51.9333 50.1036H48.1484V50.5218H51.9333V50.1036Z" fill="#A5A7AA"/>
    <path d="M46.5551 78.6461V63.4357C46.5544 63.4047 46.5531 63.3832 46.5516 63.3617C46.5508 63.3512 46.5498 63.3407 46.5498 63.3301C46.5498 61.4052 48.1158 59.8391 50.0406 59.8391C51.9653 59.8391 53.5314 61.4051 53.5314 63.3301C53.5314 63.3406 53.5304 63.351 53.5297 63.3614C53.5282 63.3834 53.5268 63.4055 53.5263 63.4276V78.646H46.5551V78.6461Z" fill="#3C3E40"/>
    <path d="M50.0405 60.2264C51.7491 60.2264 53.1396 61.6144 53.1437 63.3223L53.143 63.3347C53.141 63.3628 53.1394 63.391 53.1389 63.4195L53.1386 63.4275V63.4355V78.258H46.9426V63.4353V63.426L46.9424 63.4167C46.9417 63.389 46.94 63.3618 46.9381 63.3345L46.9374 63.322C46.9415 61.6144 48.332 60.2264 50.0405 60.2264ZM50.0405 59.4512C47.8985 59.4512 46.1621 61.1877 46.1621 63.3297C46.1621 63.3652 46.1665 63.3999 46.1674 63.4353V79.0332H53.9137V63.4353C53.9145 63.3999 53.9189 63.3653 53.9189 63.3297C53.9187 61.1877 52.1825 59.4512 50.0405 59.4512Z" fill="#A5A7AA"/>
    <path d="M61.746 55.2941V49.737C61.7455 49.719 61.7432 49.6844 61.7432 49.6783C61.7432 48.6082 62.6138 47.7374 63.684 47.7374C64.7542 47.7374 65.6249 48.6082 65.6249 49.6783C65.6249 49.6783 65.6223 49.7198 65.622 49.7317V55.2941H61.746Z" fill="#606164"/>
    <path d="M63.6838 47.9525C64.6352 47.9525 65.4092 48.7265 65.4095 49.6719L65.4087 49.6806C65.4077 49.6957 65.4067 49.7107 65.4065 49.7259L65.4062 49.7312V49.7366V55.0781H61.9613V49.7366V49.7299L61.9611 49.7232C61.9606 49.709 61.9598 49.6949 61.9586 49.6807L61.9581 49.6779C61.9582 48.7265 62.7323 47.9525 63.6838 47.9525ZM63.6838 47.5215C62.493 47.5215 61.5273 48.487 61.5273 49.6779C61.5273 49.6976 61.5298 49.717 61.5305 49.7366V55.5091H65.8371V49.7366C65.8376 49.717 65.84 49.6976 65.84 49.6779C65.8401 48.487 64.8747 47.5215 63.6838 47.5215Z" fill="#A5A7AA"/>
    <path d="M63.9473 47.9814H63.4199V55.1431H63.9473V47.9814Z" fill="#A5A7AA"/>
    <path d="M65.5756 50.1035H61.791V50.5218H65.5756V50.1035Z" fill="#A5A7AA"/>
    <path d="M18.668 72.4608V66.9038C18.6677 66.8861 18.6669 66.8747 18.666 66.8631C18.6657 66.8571 18.665 66.8512 18.665 66.8451C18.665 65.7748 19.5357 64.9042 20.6059 64.9042C21.676 64.9042 22.5468 65.7749 22.5468 66.8451C22.5468 66.8512 22.5442 66.8861 22.5439 66.8978L22.5438 72.4608H18.668Z" fill="#606164"/>
    <path d="M20.6056 65.1192C21.557 65.1192 22.331 65.8932 22.3311 66.8386L22.3305 66.8475C22.3295 66.862 22.3286 66.8766 22.3281 66.8914L22.328 66.8975V66.9035V72.245H18.8832V66.9035V66.8975L18.8831 66.8914C18.8827 66.8767 18.8818 66.8621 18.8807 66.8475L18.8802 66.8447C18.8802 65.8934 19.6542 65.1192 20.6056 65.1192ZM20.6056 64.6884C19.4147 64.6884 18.4492 65.6539 18.4492 66.8447C18.4492 66.8645 18.4517 66.8839 18.4522 66.9035V72.676H22.759V66.9035C22.7595 66.8839 22.762 66.8645 22.762 66.8447C22.762 65.6539 21.7965 64.6884 20.6056 64.6884Z" fill="#A5A7AA"/>
    <path d="M20.8692 65.1483H20.3418V72.3099H20.8692V65.1483Z" fill="#A5A7AA"/>
    <path d="M22.4976 67.2704H18.7129V67.6886H22.4976V67.2704Z" fill="#A5A7AA"/>
    <path d="M77.4913 55.2939V49.7369C77.4908 49.7197 77.49 49.7078 77.4893 49.6959L77.4883 49.6782C77.4883 48.6081 78.3589 47.7373 79.4289 47.7373C80.4993 47.7373 81.3698 48.6081 81.3698 49.6782C81.3698 49.6843 81.3674 49.7189 81.3669 49.7302V55.2939H77.4913Z" fill="#606164"/>
    <path d="M79.4287 47.9525C80.3801 47.9525 81.1543 48.7265 81.1543 49.6716L81.1538 49.6806C81.1526 49.6947 81.1518 49.7089 81.1513 49.7231L81.1511 49.7297V49.7365V55.078H77.7062V49.7365V49.7311V49.7259C77.7057 49.7106 77.705 49.6956 77.7037 49.6806L77.7032 49.6779C77.7033 48.7265 78.4775 47.9525 79.4287 47.9525ZM79.4287 47.5215C78.2378 47.5215 77.2725 48.487 77.2725 49.6779C77.2725 49.6976 77.2748 49.717 77.2753 49.7366V55.5091H81.582V49.7366C81.5827 49.717 81.5851 49.6976 81.5851 49.6779C81.5851 48.487 80.6196 47.5215 79.4287 47.5215Z" fill="#A5A7AA"/>
    <path d="M79.6924 47.9814H79.165V55.1431H79.6924V47.9814Z" fill="#A5A7AA"/>
    <path d="M81.3208 50.1036H77.5361V50.5218H81.3208V50.1036Z" fill="#A5A7AA"/>
    <path d="M77.4913 72.4608V66.9038C77.4908 66.8864 77.49 66.8747 77.4893 66.8628L77.4883 66.8451C77.4883 65.7748 78.3589 64.9042 79.4289 64.9042C80.4993 64.9042 81.3698 65.7749 81.3698 66.8451C81.3698 66.8512 81.3674 66.8857 81.3669 66.897V72.4608H77.4913Z" fill="#606164"/>
    <path d="M79.4287 65.1192C80.3801 65.1192 81.1543 65.8932 81.1543 66.8385L81.1538 66.8475C81.1526 66.8616 81.1518 66.8759 81.1513 66.89L81.1511 66.8967V66.9035V72.245H77.7062V66.9035V66.8981V66.8927C77.7057 66.8776 77.705 66.8626 77.7037 66.8476L77.7032 66.8449C77.7033 65.8934 78.4775 65.1192 79.4287 65.1192ZM79.4287 64.6884C78.2378 64.6884 77.2725 65.6539 77.2725 66.8447C77.2725 66.8645 77.2748 66.8839 77.2753 66.9035V72.676H81.582V66.9035C81.5827 66.8839 81.5851 66.8645 81.5851 66.8447C81.5851 65.6539 80.6196 64.6884 79.4287 64.6884Z" fill="#A5A7AA"/>
    <path d="M79.6924 65.1483H79.165V72.3099H79.6924V65.1483Z" fill="#A5A7AA"/>
    <path d="M81.3208 67.2704H77.5361V67.6887H81.3208V67.2704Z" fill="#A5A7AA"/>
    <path d="M84.4984 79.0352H15.582V81.5515H84.4984V79.0352Z" fill="#EAEBEC"/>
    <path opacity="0.2" d="M84.4994 80.668H15.583V81.5511H84.4994V80.668Z" fill="#231F20"/>
    <path d="M86.6973 81.5518H13.3848V84.0681H86.6973V81.5518Z" fill="#EAEBEC"/>
    <path d="M88.3535 84.0675H11.7285V86.5839H88.3535V84.0675Z" fill="#EAEBEC"/>
    <path opacity="0.2" d="M86.6973 83.1848H13.3848V84.0679H86.6973V83.1848Z" fill="#231F20"/>
    <path opacity="0.3" d="M24.1426 40.8701L67.6258 78.7629V40.8701H24.1426Z" fill="#231F20"/>
    <path d="M32.2607 43.1357H25.3828V77.5259H32.2607V43.1357Z" fill="#D7D8D9"/>
    <path d="M29.53 42.051H28.1133V77.5266H29.53V42.051Z" fill="#BBBDBF"/>
    <path d="M27.1328 42.0508H26.1973V77.5264H27.1328V42.0508Z" fill="#BBBDBF"/>
    <path d="M31.3828 42.0508H30.4473V77.5264H31.3828V42.0508Z" fill="#BBBDBF"/>
    <path opacity="0.2" d="M32.2607 44.6348H25.3828V45.1754H32.2607V44.6348Z" fill="#231F20"/>
    <path opacity="0.2" d="M30.4394 43.2637L30.4447 76.4669H25.3828V77.5259H32.2608V43.1357L30.4394 43.2637Z" fill="#231F20"/>
    <path d="M25.4061 44.6351H32.2577C33.6991 43.1542 33.5211 40.8701 33.5211 40.8701H28.832H24.1427C24.1427 40.8701 23.9647 43.1542 25.4061 44.6351Z" fill="#DBDCDD"/>
    <path opacity="0.1" d="M33.5207 40.8701H32.7268C32.7035 41.6007 32.5188 43.1215 31.4597 44.2097H25.0488C25.1552 44.3566 25.2735 44.4992 25.4056 44.6351H32.2572C33.6988 43.1542 33.5207 40.8701 33.5207 40.8701Z" fill="#231F20"/>
    <path d="M32.2536 77.1514H28.8217H25.3899C25.1711 78.2486 24.7186 78.6027 24.3438 79.0339H28.8217H33.2998C32.9248 78.6027 32.4724 78.2486 32.2536 77.1514Z" fill="#D4D5D6"/>
    <path opacity="0.1" d="M32.2535 77.1514H31.7545C31.9893 78.0389 32.1311 78.3697 32.4731 78.763H28.2593H24.5889C24.5056 78.8549 24.423 78.9429 24.3438 79.0339H28.8218H33.2997C32.9246 78.6027 32.4722 78.2486 32.2535 77.1514Z" fill="#231F20"/>
    <path d="M43.4249 43.1357H36.5469V77.5259H43.4249V43.1357Z" fill="#DBDCDD"/>
    <path d="M40.6941 42.051H39.2773V77.5266H40.6941V42.051Z" fill="#BBBDBF"/>
    <path d="M38.2968 42.0508H37.3613V77.5264H38.2968V42.0508Z" fill="#BBBDBF"/>
    <path d="M42.5458 42.0508H41.6104V77.5264H42.5458V42.0508Z" fill="#BBBDBF"/>
    <path opacity="0.2" d="M43.4249 44.6348H36.5469V45.1754H43.4249V44.6348Z" fill="#231F20"/>
    <path opacity="0.2" d="M41.6035 43.2637L41.6086 76.4669H36.5469V77.5259H43.4248V43.1357L41.6035 43.2637Z" fill="#231F20"/>
    <path d="M36.5702 44.6351H43.4218C44.8632 43.1542 44.6852 40.8701 44.6852 40.8701H39.9961H35.3068C35.3068 40.8701 35.1287 43.1542 36.5702 44.6351Z" fill="#DBDCDD"/>
    <path opacity="0.1" d="M44.6848 40.8701H43.8909C43.8675 41.6007 43.6829 43.1215 42.6238 44.2097H36.2129C36.3193 44.3566 36.4375 44.4992 36.5698 44.6351H43.4214C44.8629 43.1542 44.6848 40.8701 44.6848 40.8701Z" fill="#231F20"/>
    <path d="M43.4176 77.1514H39.9858H36.5539C36.3352 78.2486 35.8827 78.6027 35.5078 79.0339H39.9858H44.4638C44.0888 78.6027 43.6363 78.2486 43.4176 77.1514Z" fill="#DBDCDD"/>
    <path opacity="0.1" d="M43.4176 77.1514H42.9186C43.1533 78.0389 43.2952 78.3697 43.6372 78.763H39.4233H35.7529C35.6697 78.8549 35.5871 78.9429 35.5078 79.0339H39.9858H44.4638C44.0888 78.6027 43.6363 78.2486 43.4176 77.1514Z" fill="#231F20"/>
    <path d="M63.3408 43.1359H56.4629V77.526H63.3408V43.1359Z" fill="#DBDCDD"/>
    <path d="M60.6101 42.0509H59.1934V77.5265H60.6101V42.0509Z" fill="#BBBDBF"/>
    <path d="M58.2128 42.0509H57.2773V77.5265H58.2128V42.0509Z" fill="#BBBDBF"/>
    <path d="M62.4628 42.0509H61.5273V77.5265H62.4628V42.0509Z" fill="#BBBDBF"/>
    <path opacity="0.2" d="M63.3408 44.6349H56.4629V45.1756H63.3408V44.6349Z" fill="#231F20"/>
    <path opacity="0.2" d="M61.5195 43.2639L61.5246 76.467H56.4629V77.526H63.3408V43.1359L61.5195 43.2639Z" fill="#231F20"/>
    <path d="M56.4861 44.6352H63.3379C64.7793 43.1544 64.601 40.8702 64.601 40.8702H59.912H55.2228C55.2228 40.8702 55.0446 43.1544 56.4861 44.6352Z" fill="#DBDCDD"/>
    <path opacity="0.1" d="M64.6007 40.8702H63.8069C63.7834 41.6009 63.5989 43.1216 62.5398 44.2099H56.1289C56.2354 44.3567 56.3535 44.4994 56.4857 44.6352H63.3374C64.7789 43.1544 64.6007 40.8702 64.6007 40.8702Z" fill="#231F20"/>
    <path d="M63.3337 77.1515H59.9018H56.47C56.2512 78.2487 55.7988 78.6029 55.4238 79.034H59.9018H64.3798C64.0048 78.6029 63.5525 78.2487 63.3337 77.1515Z" fill="#DBDCDD"/>
    <path opacity="0.1" d="M63.3337 77.1515H62.8347C63.0696 78.039 63.2115 78.3699 63.5532 78.7631H59.3393H55.669C55.5857 78.855 55.5032 78.943 55.4238 79.034H59.9018H64.3798C64.0048 78.6029 63.5525 78.2487 63.3337 77.1515Z" fill="#231F20"/>
    <path d="M74.5038 43.1359H67.626V77.526H74.5038V43.1359Z" fill="#DBDCDD"/>
    <path d="M71.7732 42.0511H70.3564V77.5267H71.7732V42.0511Z" fill="#BBBDBF"/>
    <path d="M69.3757 42.0509H68.4404V77.5265H69.3757V42.0509Z" fill="#BBBDBF"/>
    <path d="M73.6257 42.0509H72.6904V77.5265H73.6257V42.0509Z" fill="#BBBDBF"/>
    <path opacity="0.2" d="M74.5038 44.6349H67.626V45.1756H74.5038V44.6349Z" fill="#231F20"/>
    <path opacity="0.2" d="M72.6826 43.2639L72.6877 76.467H67.626V77.526H74.5038V43.1359L72.6826 43.2639Z" fill="#231F20"/>
    <path d="M67.6493 44.6352H74.5009C75.9423 43.1544 75.7643 40.8702 75.7643 40.8702H71.075H66.3859C66.3859 40.8702 66.2079 43.1544 67.6493 44.6352Z" fill="#DBDCDD"/>
    <path opacity="0.1" d="M75.7647 40.8702H74.9707C74.9476 41.6009 74.763 43.1216 73.7036 44.2099H67.293C67.3992 44.3567 67.5176 44.4994 67.6496 44.6352H74.5012C75.9427 43.1544 75.7647 40.8702 75.7647 40.8702Z" fill="#231F20"/>
    <path d="M74.4968 77.1515H71.0649H67.633C67.4143 78.2487 66.9619 78.6029 66.5869 79.034H71.0649H75.5429C75.168 78.6029 74.7155 78.2487 74.4968 77.1515Z" fill="#DBDCDD"/>
    <path opacity="0.1" d="M74.4968 77.1515H73.9978C74.2324 78.039 74.3743 78.3699 74.7163 78.7631H70.5024H66.832C66.7488 78.855 66.6663 78.943 66.5869 79.034H71.0649H75.5429C75.168 78.6029 74.7155 78.2487 74.4968 77.1515Z" fill="#231F20"/>
    <path opacity="0.1" d="M28.8221 41.6202H33.4958C33.5342 41.1694 33.5113 40.8702 33.5113 40.8702H28.8221H24.1328C24.1328 40.8702 24.1098 41.1694 24.1482 41.6202H28.8221Z" fill="#231F20"/>
    <path opacity="0.1" d="M39.9958 41.6202H44.6695C44.7079 41.1694 44.685 40.8702 44.685 40.8702H39.9959H35.3066C35.3066 40.8702 35.2836 41.1694 35.322 41.6202H39.9958Z" fill="#231F20"/>
    <path opacity="0.1" d="M59.9021 41.6202H64.5758C64.6141 41.1694 64.5911 40.8702 64.5911 40.8702H59.9021H55.2129C55.2129 40.8702 55.1899 41.1694 55.2283 41.6202H59.9021Z" fill="#231F20"/>
    <path opacity="0.1" d="M71.0651 41.6202H75.7387C75.7771 41.1694 75.7543 40.8702 75.7543 40.8702H71.0651H66.376C66.376 40.8702 66.353 41.1694 66.3914 41.6202H71.0651Z" fill="#231F20"/>
    <path d="M43.1318 28.251L34.1318 35.0959H45.5068C45.5068 35.0959 42.0785 33.5351 43.1318 28.251Z" fill="#CFD0D2"/>
    <path opacity="0.2" d="M34.6642 34.6895L34.1309 35.0951H45.5059C45.5059 35.0951 45.2426 34.9747 44.8849 34.6895H34.6642Z" fill="#231F20"/>
    <path d="M56.252 28.2509L65.252 35.0958H53.877C53.877 35.0958 57.3053 33.535 56.252 28.2509Z" fill="#CFD0D2"/>
    <path opacity="0.2" d="M64.7187 34.6895L65.252 35.0951H53.877C53.877 35.0951 54.1403 34.9747 54.4981 34.6895H64.7187Z" fill="#231F20"/>
  </g>
  <mask id="mask6_1428_678" style="mask-type:luminance" maskUnits="userSpaceOnUse" x="0" y="0" width="100" height="100">
    <path d="M100 0H0V100H100V0Z" fill="white"/>
  </mask>
  <g mask="url(#mask6_1428_678)">
    <path d="M100.854 86.583H-0.583984V90.7304H100.854V86.583Z" fill="#3C3E40"/>
  </g>
  <mask id="mask7_1428_678" style="mask-type:luminance" maskUnits="userSpaceOnUse" x="0" y="0" width="100" height="100">
    <path d="M100 0H0V100H100V0Z" fill="white"/>
  </mask>
  <g mask="url(#mask7_1428_678)">
    <path opacity="0.5" d="M109.643 19.0947C109.686 18.8841 109.71 18.6662 109.71 18.443C109.71 16.6515 108.257 15.1992 106.466 15.1992C105.929 15.1992 105.423 15.3305 104.977 15.5616C104.986 15.4419 104.992 15.3214 104.992 15.1992C104.992 12.5979 102.883 10.4891 100.282 10.4891C99.7485 10.4891 99.2369 10.579 98.759 10.7421C97.7441 7.86235 95.0008 5.79785 91.7739 5.79785C88.0923 5.79785 85.0395 8.48473 84.466 12.0042C83.4611 11.065 82.1125 10.4891 80.6284 10.4891C77.7795 10.4891 75.4268 12.6087 75.0578 15.3567C74.7189 15.2547 74.3598 15.1992 73.9878 15.1992C71.9406 15.1992 70.2812 16.8587 70.2812 18.9057C70.2812 18.9692 70.2841 19.032 70.2874 19.0947H109.643Z" fill="url(#paint0_linear_1428_678)"/>
  </g>
  <mask id="mask8_1428_678" style="mask-type:luminance" maskUnits="userSpaceOnUse" x="0" y="0" width="100" height="100">
    <path d="M100 0H0V100H100V0Z" fill="white"/>
  </mask>
  <g mask="url(#mask8_1428_678)">
    <path opacity="0.5" d="M19.7058 29.3194C19.7381 29.1611 19.7556 28.9976 19.7556 28.8299C19.7556 27.4844 18.6648 26.3938 17.3194 26.3938C16.9161 26.3938 16.5359 26.4924 16.2009 26.6659C16.2078 26.5759 16.2124 26.4854 16.2124 26.3938C16.2124 24.44 14.6287 22.8563 12.6751 22.8563C12.2747 22.8563 11.8903 22.9238 11.5316 23.0463C10.7693 20.8835 8.70893 19.333 6.28543 19.333C3.52031 19.333 1.22768 21.351 0.797055 23.9943C0.042305 23.2889 -0.970695 22.8564 -2.08519 22.8564C-4.22495 22.8564 -5.99182 24.4483 -6.26907 26.5123C-6.52357 26.4356 -6.79332 26.394 -7.0727 26.394C-8.6102 26.394 -9.85645 27.6404 -9.85645 29.1778C-9.85645 29.2254 -9.8542 29.2726 -9.85182 29.3196H19.7058V29.3194Z" fill="url(#paint1_linear_1428_678)"/>
  </g>
  <mask id="mask9_1428_678" style="mask-type:luminance" maskUnits="userSpaceOnUse" x="0" y="0" width="100" height="100">
    <path d="M100 0H0V100H100V0Z" fill="white"/>
  </mask>
  <g mask="url(#mask9_1428_678)">
    <path opacity="0.5" d="M14.2514 10.7904C14.2296 10.6836 14.2178 10.5732 14.2178 10.46C14.2178 9.55187 14.954 8.81562 15.862 8.81562C16.1343 8.81562 16.3909 8.88212 16.617 8.99937C16.6124 8.93862 16.6093 8.87749 16.6093 8.81562C16.6093 7.49699 17.6783 6.42787 18.9969 6.42787C19.2671 6.42787 19.5265 6.47349 19.7688 6.55612C20.2833 5.09637 21.674 4.04974 23.3098 4.04974C25.176 4.04974 26.7236 5.41174 27.0143 7.19587C27.5236 6.71974 28.2074 6.42787 28.9596 6.42787C30.4039 6.42787 31.5965 7.50237 31.7835 8.89537C31.9553 8.84362 32.1374 8.81549 32.326 8.81549C33.3638 8.81549 34.2049 9.65674 34.2049 10.6945C34.2049 10.7266 34.2034 10.7585 34.2018 10.7902L14.2514 10.7904Z" fill="url(#paint2_linear_1428_678)"/>
  </g>
  <mask id="mask10_1428_678" style="mask-type:luminance" maskUnits="userSpaceOnUse" x="0" y="0" width="100" height="100">
    <path d="M100 0H0V100H100V0Z" fill="white"/>
  </mask>
  <g mask="url(#mask10_1428_678)">
    <path opacity="0.4" d="M12.1244 82.8081C12.1244 83.5029 10.6506 84.0662 8.83264 84.0662C7.01477 84.0662 4.91602 83.7164 4.91602 83.0217C4.91602 82.3269 7.01477 81.5498 8.83264 81.5498C10.6506 81.5498 12.1244 82.1132 12.1244 82.8081Z" fill="#7C954D"/>
  </g>
  <mask id="mask11_1428_678" style="mask-type:luminance" maskUnits="userSpaceOnUse" x="0" y="0" width="100" height="100">
    <path d="M100 0H0V100H100V0Z" fill="white"/>
  </mask>
  <g mask="url(#mask11_1428_678)">
    <path d="M9.74427 83.0225H8.80664L9.06214 74.5839H9.48839L9.74427 83.0225Z" fill="#7C7065"/>
    <path d="M12.6422 69.8101C12.5569 74.2428 11.5418 77.3114 9.6587 77.3114C7.01607 77.3114 5.63294 73.363 5.82294 70.5774C6.07857 66.8266 7.01607 63.5878 9.31769 63.5878C11.2007 63.5876 12.7137 66.0916 12.6422 69.8101Z" fill="#93B360"/>
    <path opacity="0.4" d="M9.71557 74.186C7.60632 74.186 6.29944 71.6703 5.95444 69.2387C5.89894 69.6919 5.85544 70.1587 5.82294 70.6342C5.63294 73.4198 7.01607 77.368 9.6587 77.368C11.5418 77.368 12.5569 74.2995 12.6422 69.867C12.6508 69.4128 12.6356 68.9769 12.5993 68.5613C12.2928 71.9594 11.3192 74.186 9.71557 74.186Z" fill="#7C954D"/>
  </g>
  <mask id="mask12_1428_678" style="mask-type:luminance" maskUnits="userSpaceOnUse" x="0" y="0" width="100" height="100">
    <path d="M100 0H0V100H100V0Z" fill="white"/>
  </mask>
  <g mask="url(#mask12_1428_678)">
    <path opacity="0.4" d="M95.5896 82.4206C95.5896 83.1154 94.2756 84.0662 92.4575 84.0662C90.6396 84.0662 88.541 83.0217 88.541 82.3268C88.541 81.6319 90.6396 81.5498 92.4575 81.5498C94.2756 81.5498 95.5896 81.7258 95.5896 82.4206Z" fill="#7C954D"/>
  </g>
  <mask id="mask13_1428_678" style="mask-type:luminance" maskUnits="userSpaceOnUse" x="0" y="0" width="100" height="100">
    <path d="M100 0H0V100H100V0Z" fill="white"/>
  </mask>
  <g mask="url(#mask13_1428_678)">
    <path d="M93.3682 83.0226H92.4307L92.686 74.584H93.1123L93.3682 83.0226Z" fill="#7C7065"/>
    <path d="M96.5408 69.8778C96.4555 74.3104 95.1665 77.3117 93.2834 77.3117C90.6408 77.3117 88.6318 73.2356 88.822 70.4499C89.0777 66.6992 90.5984 63.8779 92.8999 63.8779C94.783 63.8779 96.6123 66.1596 96.5408 69.8778Z" fill="#93B360"/>
    <path opacity="0.4" d="M93.3403 74.1864C91.2309 74.1864 89.2855 71.7579 88.9404 69.3263C88.885 69.7795 88.8464 70.1193 88.8142 70.5947C88.624 73.3803 90.6408 77.3683 93.2834 77.3683C95.1664 77.3683 96.4555 74.3101 96.5408 69.8776C96.5495 69.4234 96.519 68.9771 96.4829 68.5615C96.1762 71.9598 94.9438 74.1864 93.3403 74.1864Z" fill="#7C954D"/>
  </g>
  <defs>
    <linearGradient id="paint0_linear_1428_678" x1="70.2814" y1="12.4462" x2="109.71" y2="12.4462" gradientUnits="userSpaceOnUse">
      <stop offset="0.2688" stop-color="#E4EDF1"/>
      <stop offset="0.8925" stop-color="#ACCEDD"/>
    </linearGradient>
    <linearGradient id="paint1_linear_1428_678" x1="-9.85651" y1="24.3261" x2="19.7556" y2="24.3261" gradientUnits="userSpaceOnUse">
      <stop offset="0.2688" stop-color="#E4EDF1"/>
      <stop offset="0.8925" stop-color="#ACCEDD"/>
    </linearGradient>
    <linearGradient id="paint2_linear_1428_678" x1="34.2049" y1="7.42012" x2="14.2177" y2="7.42012" gradientUnits="userSpaceOnUse">
      <stop offset="0.2688" stop-color="#E4EDF1"/>
      <stop offset="0.8925" stop-color="#ACCEDD"/>
    </linearGradient>
  </defs>
</svg>