<svg xmlns="http://www.w3.org/2000/svg" width="108" height="100" viewBox="0 0 108 100" fill="none">
  <path d="M104.448 47.7517C104.448 46.5128 103.536 45.5052 102.416 45.5059L78.499 45.5176C77.3786 45.5182 76.4675 46.5266 76.4678 47.7655L76.4719 58.3349C76.4725 59.5738 77.3845 60.5814 78.5049 60.5808L102.421 60.569C103.542 60.5684 104.453 59.56 104.453 58.3211L104.448 47.7517Z" fill="#406052"/>
  <path d="M75.7671 60.5801C74.6467 60.5807 73.7347 59.5732 73.7342 58.334L73.73 47.7646C73.7294 46.5256 74.6406 45.5172 75.761 45.5166L99.6774 45.5049C100.798 45.5043 101.71 46.5118 101.71 47.7507L101.715 58.3201C101.715 59.559 100.804 60.5674 99.6836 60.5681L75.7671 60.5801Z" fill="#BDEFDC"/>
  <path d="M99.6835 59.8179L75.7668 59.8296C75.0195 59.8299 74.4134 59.1604 74.4129 58.3341L74.4087 47.7647C74.4084 46.9383 75.0139 46.2679 75.7612 46.2676L99.6779 46.2559C100.425 46.2556 101.031 46.9251 101.032 47.7514L101.036 58.3208C101.036 59.1472 100.431 59.8173 99.6835 59.8179Z" fill="#8ED2BB"/>
  <path d="M99.6775 46.2559L87.7192 46.2617L87.7248 59.8238L99.6831 59.8179C100.43 59.8176 101.036 59.1472 101.036 58.3208L101.031 47.7514C101.031 46.9254 100.425 46.2556 99.6775 46.2559Z" fill="#64A08A"/>
  <path d="M93.3843 53.039C93.3857 56.4966 90.852 59.3007 87.7252 59.3022C84.5983 59.3038 82.0624 56.5021 82.061 53.0445C82.0596 49.5869 84.5933 46.7828 87.7201 46.7813C90.847 46.7797 93.3829 49.5814 93.3843 53.039Z" fill="#BDEFDC"/>
  <path d="M90.4478 49.3367C90.4478 49.1149 90.285 48.9352 90.0847 48.9355L85.3559 48.938C85.1556 48.938 84.9932 49.1179 84.9932 49.3395C84.9932 49.5613 85.1559 49.7406 85.3562 49.7406L86.6388 49.74C87.3697 49.7397 87.993 50.2093 88.2359 50.8695L85.3571 50.8708C85.1564 50.8708 84.994 51.0507 84.9943 51.2722C84.9943 51.4941 85.157 51.6737 85.3573 51.6734L88.3346 51.6719C88.2423 52.545 87.5193 53.2251 86.6402 53.2254L85.3576 53.226C85.1573 53.226 84.9948 53.4059 84.9948 53.6274C84.9948 53.849 85.1576 54.0286 85.3579 54.0286L86.1423 54.0283L88.5057 57.5312C88.5876 57.6526 88.7169 57.7241 88.854 57.7238C89.2103 57.7231 89.4137 57.2736 89.2006 56.9578L87.2236 54.0277L90.0866 54.0261C90.2873 54.0261 90.4497 53.8462 90.4494 53.6247C90.4494 53.4028 90.2867 53.2232 90.0864 53.2235L88.8161 53.2241C89.1487 52.7903 89.3605 52.2551 89.3984 51.6709L90.0855 51.6706C90.2859 51.6706 90.4486 51.4907 90.4483 51.2692C90.4483 51.0476 90.2856 50.868 90.0852 50.868L89.3385 50.8683C89.2474 50.4487 89.0652 50.0648 88.8141 49.7382L90.085 49.7376C90.2856 49.7382 90.448 49.5582 90.4478 49.3367Z" fill="#406052"/>
  <path d="M78.4016 46.2656L75.7612 46.2669C75.0139 46.2672 74.4084 46.9373 74.4087 47.764L74.4098 50.7006C76.5993 50.6466 78.3628 48.6892 78.4016 46.2656Z" fill="#406052"/>
  <path d="M74.4033 55.4141L74.4044 58.3337C74.4047 59.1601 75.0107 59.8296 75.7583 59.8293L78.414 59.8281C78.3653 57.4069 76.5951 55.4569 74.4033 55.4141Z" fill="#406052"/>
  <path d="M97.043 59.8197L99.6833 59.8185C100.431 59.8182 101.036 59.1477 101.036 58.3214L101.035 55.3848C98.8449 55.4387 97.0814 57.3961 97.043 59.8197Z" fill="#406052"/>
  <path d="M101.04 50.6711L101.039 47.7514C101.039 46.9251 100.433 46.2556 99.6855 46.2559L97.0298 46.2571C97.0788 48.6782 98.8487 50.6283 101.04 50.6711Z" fill="#406052"/>
  <path d="M44.8596 47.7507C44.859 46.5118 43.947 45.5043 42.8266 45.5049L18.9102 45.5166C17.7898 45.5172 16.8786 46.5257 16.8789 47.7646L16.8831 58.334C16.8836 59.5729 17.7956 60.5804 18.916 60.5798L42.8325 60.5681C43.9529 60.5675 44.864 59.559 44.8635 58.3201L44.8596 47.7507Z" fill="#406052"/>
  <path d="M16.1782 60.5791C15.0578 60.5797 14.1459 59.5722 14.1453 58.333L14.1411 47.7636C14.1406 46.5247 15.0517 45.5163 16.1724 45.5156L40.0888 45.5039C41.2092 45.5033 42.1212 46.5108 42.1218 47.7497L42.126 58.3191C42.1265 59.5581 41.2154 60.5665 40.0947 60.5671L16.1782 60.5791Z" fill="#BDEFDC"/>
  <path d="M40.0944 59.817L16.1779 59.8287C15.4306 59.829 14.8246 59.1594 14.824 58.3331L14.8198 47.7637C14.8195 46.9373 15.425 46.2669 16.1723 46.2666L40.0891 46.2549C40.8364 46.2546 41.4427 46.9241 41.443 47.7504L41.4471 58.3198C41.4471 59.1462 40.8417 59.8163 40.0944 59.817Z" fill="#8ED2BB"/>
  <path d="M40.0891 46.2549L28.1309 46.2607L28.1364 59.8228L40.0947 59.817C40.842 59.8166 41.4477 59.1462 41.4472 58.3199L41.443 47.7504C41.4427 46.9244 40.8364 46.2546 40.0891 46.2549Z" fill="#64A08A"/>
  <path d="M32.136 57.4678C34.3469 55.023 34.3469 51.0591 32.136 48.6142C29.925 46.1694 26.3403 46.1694 24.1293 48.6142C21.9183 51.0591 21.9183 55.023 24.1293 57.4678C26.3403 59.9127 29.925 59.9127 32.136 57.4678Z" fill="#BDEFDC"/>
  <path d="M30.8599 49.3357C30.8599 49.1139 30.6971 48.9343 30.4968 48.9346L25.7681 48.937C25.5677 48.937 25.405 49.117 25.4053 49.3385C25.4053 49.5603 25.568 49.7397 25.7683 49.7397L27.0509 49.739C27.7815 49.7387 28.4051 50.2083 28.6478 50.8686L25.7686 50.8698C25.5683 50.8698 25.4058 51.0497 25.4058 51.2713C25.4058 51.4931 25.5686 51.6727 25.7689 51.6724L28.7464 51.6709C28.6539 52.5441 27.9311 53.2241 27.052 53.2244L25.7694 53.225C25.5691 53.225 25.4067 53.4049 25.4067 53.6265C25.4067 53.848 25.5694 54.0276 25.7697 54.0276L26.5541 54.0273L28.9175 57.5302C28.9994 57.6516 29.1287 57.7231 29.2658 57.7228C29.6222 57.7222 29.8256 57.2726 29.6124 56.9568L27.6355 54.0267L30.4985 54.0252C30.6988 54.0252 30.8612 53.8452 30.8612 53.6237C30.8612 53.4019 30.6985 53.2222 30.4982 53.2225L29.2279 53.2231C29.5606 52.7893 29.7723 52.2541 29.8102 51.67L30.4976 51.6697C30.698 51.6697 30.8604 51.4897 30.8604 51.2682C30.8604 51.0467 30.6977 50.867 30.4974 50.867L29.7506 50.8673C29.6595 50.4477 29.4773 50.0638 29.2262 49.7372L30.4971 49.7366C30.6974 49.7372 30.8599 49.5573 30.8599 49.3357Z" fill="#406052"/>
  <path d="M18.8127 46.2656L16.1723 46.2669C15.425 46.2672 14.8195 46.9373 14.8198 47.764L14.8209 50.7006C17.0105 50.6466 18.774 48.6892 18.8127 46.2656Z" fill="#406052"/>
  <path d="M14.8154 55.4131L14.8165 58.3327C14.8168 59.1591 15.4229 59.8286 16.1704 59.8283L18.8261 59.8271C18.7774 57.4059 17.0072 55.4559 14.8154 55.4131Z" fill="#406052"/>
  <path d="M37.4541 59.8187L40.0945 59.8175C40.8418 59.8172 41.4472 59.1467 41.447 58.3204L41.4458 55.3838C39.256 55.4377 37.4926 57.3951 37.4541 59.8187Z" fill="#406052"/>
  <path d="M41.4516 50.6701L41.4505 47.7504C41.4502 46.9241 40.8442 46.2546 40.0966 46.2549L37.4409 46.2561C37.49 48.6772 39.2601 50.6273 41.4516 50.6701Z" fill="#406052"/>
  <path d="M105.542 97.0414H2.45841C1.10619 97.0414 0 95.8182 0 94.3229C0 92.8277 1.10619 91.6045 2.45841 91.6045H105.542C106.894 91.6045 108 92.8277 108 94.3229C108 95.8182 106.894 97.0414 105.542 97.0414Z" fill="#747DBA"/>
  <path d="M102.258 94.1122H86.691C86.1449 94.1122 85.7021 93.6226 85.7021 93.0187V89.5984C85.7021 88.9945 86.1449 88.5049 86.691 88.5049H102.258C102.804 88.5049 103.246 88.9945 103.246 89.5984V93.0187C103.246 93.6226 102.804 94.1122 102.258 94.1122Z" fill="#996B20"/>
  <path d="M98.0369 94.1122H82.4703C81.9242 94.1122 81.4814 93.6226 81.4814 93.0187V89.5984C81.4814 88.9945 81.9242 88.5049 82.4703 88.5049H98.0369C98.583 88.5049 99.0258 88.9945 99.0258 89.5984V93.0187C99.0255 93.6226 98.583 94.1122 98.0369 94.1122Z" fill="#DBA32C"/>
  <path d="M89.5942 94.112V88.5051H82.47C81.9239 88.5051 81.4814 88.9947 81.4814 89.5982V93.0186C81.4814 93.6225 81.9242 94.112 82.47 94.112H89.5942Z" fill="#EDCB3A"/>
  <path d="M92.3703 88.5049H90.5703V94.1119H92.3703V88.5049Z" fill="#EDCB3A"/>
  <path d="M94.272 88.5049H93.3213V94.1119H94.272V88.5049Z" fill="#EDCB3A"/>
  <path d="M100.787 88.5331H85.2208C84.6747 88.5331 84.2319 88.0435 84.2319 87.4396V84.0193C84.2319 83.4154 84.6747 82.9258 85.2208 82.9258H100.787C101.334 82.9258 101.776 83.4154 101.776 84.0193V87.4396C101.776 88.0435 101.334 88.5331 100.787 88.5331Z" fill="#996B20"/>
  <path d="M96.5662 88.5331H80.9996C80.4535 88.5331 80.0107 88.0435 80.0107 87.4396V84.0193C80.0107 83.4154 80.4535 82.9258 80.9996 82.9258H96.5662C97.1123 82.9258 97.5551 83.4154 97.5551 84.0193V87.4396C97.5551 88.0435 97.1123 88.5331 96.5662 88.5331Z" fill="#DBA32C"/>
  <path d="M88.1238 88.5329V82.9259H80.9996C80.4535 82.9259 80.0107 83.4155 80.0107 84.0191V87.4394C80.0107 88.0433 80.4535 88.5329 80.9996 88.5329H88.1238Z" fill="#EDCB3A"/>
  <path d="M90.8996 82.9258H89.0996V88.5328H90.8996V82.9258Z" fill="#EDCB3A"/>
  <path d="M92.8008 82.9258H91.8501V88.5328H92.8008V82.9258Z" fill="#EDCB3A"/>
  <path d="M104.083 82.9549H88.5167C87.9706 82.9549 87.5278 82.4654 87.5278 81.8615V78.4411C87.5278 77.8372 87.9706 77.3477 88.5167 77.3477H104.083C104.629 77.3477 105.072 77.8372 105.072 78.4411V81.8615C105.072 82.4657 104.629 82.9549 104.083 82.9549Z" fill="#996B20"/>
  <path d="M99.8626 82.9549H84.296C83.7499 82.9549 83.3071 82.4654 83.3071 81.8615V78.4411C83.3071 77.8372 83.7499 77.3477 84.296 77.3477H99.8626C100.409 77.3477 100.851 77.8372 100.851 78.4411V81.8615C100.851 82.4657 100.409 82.9549 99.8626 82.9549Z" fill="#DBA32C"/>
  <path d="M91.4199 82.9546V77.3477H84.2957C83.7496 77.3477 83.3071 77.8372 83.3071 78.4411V81.8615C83.3071 82.4654 83.7499 82.9549 84.2957 82.9549H91.4199V82.9546Z" fill="#EDCB3A"/>
  <path d="M94.196 77.3486H92.396V82.9556H94.196V77.3486Z" fill="#EDCB3A"/>
  <path d="M96.0977 77.3486H95.147V82.9556H96.0977V77.3486Z" fill="#EDCB3A"/>
  <path d="M101.294 77.3755H85.7272C85.181 77.3755 84.7383 76.886 84.7383 76.2821V72.8617C84.7383 72.2578 85.181 71.7686 85.7272 71.7686H101.294C101.84 71.7686 102.283 72.2581 102.283 72.8617V76.2821C102.282 76.886 101.84 77.3755 101.294 77.3755Z" fill="#996B20"/>
  <path d="M97.073 77.3755H81.5065C80.9603 77.3755 80.5176 76.886 80.5176 76.2821V72.8617C80.5176 72.2578 80.9603 71.7686 81.5065 71.7686H97.073C97.6192 71.7686 98.0619 72.2581 98.0619 72.8617V76.2821C98.0619 76.886 97.6192 77.3755 97.073 77.3755Z" fill="#DBA32C"/>
  <path d="M88.6306 77.3755V71.7686H81.5065C80.9603 71.7686 80.5176 72.2581 80.5176 72.8617V76.2821C80.5176 76.886 80.9603 77.3755 81.5065 77.3755H88.6306Z" fill="#EDCB3A"/>
  <path d="M91.4064 71.7686H89.6064V77.3755H91.4064V71.7686Z" fill="#EDCB3A"/>
  <path d="M93.3081 71.7686H92.3574V77.3755H93.3081V71.7686Z" fill="#EDCB3A"/>
  <path d="M105.123 71.7974H89.556C89.0099 71.7974 88.5674 71.3078 88.5674 70.7039V67.2836C88.5674 66.6797 89.0101 66.1904 89.556 66.1904H105.123C105.669 66.1904 106.111 66.68 106.111 67.2836V70.7039C106.111 71.3078 105.669 71.7974 105.123 71.7974Z" fill="#996B20"/>
  <path d="M100.902 71.7974H85.3351C84.7889 71.7974 84.3462 71.3078 84.3462 70.7039V67.2836C84.3462 66.6797 84.7889 66.1904 85.3351 66.1904H100.902C101.448 66.1904 101.891 66.68 101.891 67.2836V70.7039C101.891 71.3078 101.448 71.7974 100.902 71.7974Z" fill="#DBA32C"/>
  <path d="M92.4592 71.7974V66.1904H85.3351C84.7889 66.1904 84.3462 66.68 84.3462 67.2839V70.7042C84.3462 71.3081 84.7889 71.7977 85.3351 71.7977H92.4592V71.7974Z" fill="#EDCB3A"/>
  <path d="M95.2346 66.1904H93.4346V71.7974H95.2346V66.1904Z" fill="#EDCB3A"/>
  <path d="M97.1363 66.1904H96.1855V71.7974H97.1363V66.1904Z" fill="#EDCB3A"/>
  <path d="M101.472 66.2183H85.9054C85.3593 66.2183 84.9165 65.7287 84.9165 65.1248V61.7045C84.9165 61.1006 85.3593 60.6113 85.9054 60.6113H101.472C102.018 60.6113 102.461 61.1009 102.461 61.7045V65.1248C102.461 65.7287 102.018 66.2183 101.472 66.2183Z" fill="#996B20"/>
  <path d="M97.2508 66.2183H81.6842C81.1381 66.2183 80.6953 65.7287 80.6953 65.1248V61.7045C80.6953 61.1006 81.1381 60.6113 81.6842 60.6113H97.2508C97.7969 60.6113 98.2396 61.1009 98.2396 61.7045V65.1248C98.2396 65.7287 97.7969 66.2183 97.2508 66.2183Z" fill="#DBA32C"/>
  <path d="M88.8084 66.2183V60.6113H81.6842C81.1381 60.6113 80.6953 61.1009 80.6953 61.7048V65.1251C80.6953 65.729 81.1381 66.2186 81.6842 66.2186H88.8084V66.2183Z" fill="#EDCB3A"/>
  <path d="M91.5842 60.6113H89.7842V66.2183H91.5842V60.6113Z" fill="#EDCB3A"/>
  <path d="M93.4854 60.6113H92.5347V66.2183H93.4854V60.6113Z" fill="#EDCB3A"/>
  <path d="M27.8728 94.1122H12.3063C11.7601 94.1122 11.3174 93.6226 11.3174 93.0187V89.5984C11.3174 88.9945 11.7601 88.5049 12.3063 88.5049H27.8728C28.419 88.5049 28.8617 88.9945 28.8617 89.5984V93.0187C28.8614 93.6226 28.419 94.1122 27.8728 94.1122Z" fill="#996B20"/>
  <path d="M23.6512 94.1122H8.08458C7.53846 94.1122 7.0957 93.6226 7.0957 93.0187V89.5984C7.0957 88.9945 7.53846 88.5049 8.08458 88.5049H23.6512C24.1973 88.5049 24.64 88.9945 24.64 89.5984V93.0187C24.64 93.6226 24.1973 94.1122 23.6512 94.1122Z" fill="#DBA32C"/>
  <path d="M15.2088 94.112V88.5051H8.08458C7.53846 88.5051 7.0957 88.9947 7.0957 89.5982V93.0186C7.0957 93.6225 7.53846 94.112 8.08458 94.112H15.2088Z" fill="#EDCB3A"/>
  <path d="M17.985 88.5049H16.1851V94.1119H17.985V88.5049Z" fill="#EDCB3A"/>
  <path d="M19.8872 88.5049H18.9365V94.1119H19.8872V88.5049Z" fill="#EDCB3A"/>
  <path d="M26.4021 88.5331H10.8356C10.2894 88.5331 9.84668 88.0435 9.84668 87.4396V84.0193C9.84668 83.4154 10.2894 82.9258 10.8356 82.9258H26.4021C26.9483 82.9258 27.391 83.4154 27.391 84.0193V87.4396C27.391 88.0435 26.9483 88.5331 26.4021 88.5331Z" fill="#996B20"/>
  <path d="M22.1807 88.5331H6.61388C6.06775 88.5331 5.625 88.0435 5.625 87.4396V84.0193C5.625 83.4154 6.06775 82.9258 6.61388 82.9258H22.1805C22.7266 82.9258 23.1693 83.4154 23.1693 84.0193V87.4396C23.1693 88.0435 22.7269 88.5331 22.1807 88.5331Z" fill="#DBA32C"/>
  <path d="M13.7381 88.5329V82.9259H6.61388C6.06775 82.9259 5.625 83.4155 5.625 84.0191V87.4394C5.625 88.0433 6.06775 88.5329 6.61388 88.5329H13.7381Z" fill="#EDCB3A"/>
  <path d="M16.5139 82.9258H14.7139V88.5328H16.5139V82.9258Z" fill="#EDCB3A"/>
  <path d="M18.4165 82.9258H17.4658V88.5328H18.4165V82.9258Z" fill="#EDCB3A"/>
  <path d="M29.6975 82.9549H14.131C13.5848 82.9549 13.1421 82.4654 13.1421 81.8615V78.4411C13.1421 77.8372 13.5848 77.3477 14.131 77.3477H29.6975C30.2437 77.3477 30.6861 77.8372 30.6861 78.4411V81.8615C30.6861 82.4657 30.2437 82.9549 29.6975 82.9549Z" fill="#996B20"/>
  <path d="M25.4759 82.9549H9.90929C9.36316 82.9549 8.92041 82.4654 8.92041 81.8615V78.4411C8.92041 77.8372 9.36316 77.3477 9.90929 77.3477H25.4759C26.022 77.3477 26.4647 77.8372 26.4647 78.4411V81.8615C26.4647 82.4657 26.022 82.9549 25.4759 82.9549Z" fill="#DBA32C"/>
  <path d="M17.0335 82.9546V77.3477H9.90929C9.36316 77.3477 8.92041 77.8372 8.92041 78.4411V81.8615C8.92041 82.4654 9.36316 82.9549 9.90929 82.9549H17.0335V82.9546Z" fill="#EDCB3A"/>
  <path d="M19.8093 77.3486H18.0093V82.9556H19.8093V77.3486Z" fill="#EDCB3A"/>
  <path d="M21.7119 77.3486H20.7612V82.9556H21.7119V77.3486Z" fill="#EDCB3A"/>
  <path d="M26.9085 77.3755H11.3419C10.7958 77.3755 10.353 76.886 10.353 76.2821V72.8617C10.353 72.2578 10.7958 71.7686 11.3419 71.7686H26.9085C27.4546 71.7686 27.8971 72.2581 27.8971 72.8617V76.2821C27.8974 76.886 27.4546 77.3755 26.9085 77.3755Z" fill="#996B20"/>
  <path d="M22.6873 77.3755H7.12072C6.57459 77.3755 6.13184 76.886 6.13184 76.2821V72.8617C6.13184 72.2578 6.57459 71.7686 7.12072 71.7686H22.6873C23.2334 71.7686 23.6762 72.2581 23.6762 72.8617V76.2821C23.6762 76.886 23.2334 77.3755 22.6873 77.3755Z" fill="#DBA32C"/>
  <path d="M14.2449 77.3755V71.7686H7.12072C6.57459 71.7686 6.13184 72.2581 6.13184 72.8617V76.2821C6.13184 76.886 6.57459 77.3755 7.12072 77.3755H14.2449Z" fill="#EDCB3A"/>
  <path d="M17.0207 71.7686H15.2207V77.3755H17.0207V71.7686Z" fill="#EDCB3A"/>
  <path d="M18.9224 71.7686H17.9717V77.3755H18.9224V71.7686Z" fill="#EDCB3A"/>
  <path d="M30.7381 71.7974H15.1715C14.6254 71.7974 14.1826 71.3078 14.1826 70.7039V67.2836C14.1826 66.6797 14.6254 66.1904 15.1715 66.1904H30.7381C31.2842 66.1904 31.727 66.68 31.727 67.2836V70.7039C31.727 71.3078 31.2842 71.7974 30.7381 71.7974Z" fill="#996B20"/>
  <path d="M26.5169 71.7974H10.9503C10.4042 71.7974 9.96143 71.3078 9.96143 70.7039V67.2836C9.96143 66.6797 10.4042 66.1904 10.9503 66.1904H26.5169C27.063 66.1904 27.5058 66.68 27.5058 67.2836V70.7039C27.5055 71.3078 27.063 71.7974 26.5169 71.7974Z" fill="#DBA32C"/>
  <path d="M18.0742 71.7974V66.1904H10.9503C10.4042 66.1904 9.96143 66.68 9.96143 67.2839V70.7042C9.96143 71.3081 10.4042 71.7977 10.9503 71.7977H18.0742V71.7974Z" fill="#EDCB3A"/>
  <path d="M20.8503 66.1904H19.0503V71.7974H20.8503V66.1904Z" fill="#EDCB3A"/>
  <path d="M22.752 66.1904H21.8013V71.7974H22.752V66.1904Z" fill="#EDCB3A"/>
  <path d="M27.0867 66.2183H11.5201C10.974 66.2183 10.5312 65.7287 10.5312 65.1248V61.7045C10.5312 61.1006 10.974 60.6113 11.5201 60.6113H27.0867C27.6328 60.6113 28.0756 61.1009 28.0756 61.7045V65.1248C28.0756 65.7287 27.6328 66.2183 27.0867 66.2183Z" fill="#996B20"/>
  <path d="M22.865 66.2183H7.29845C6.75232 66.2183 6.30957 65.7287 6.30957 65.1248V61.7045C6.30957 61.1006 6.75232 60.6113 7.29845 60.6113H22.865C23.4111 60.6113 23.8539 61.1009 23.8539 61.7045V65.1248C23.8539 65.7287 23.4111 66.2183 22.865 66.2183Z" fill="#DBA32C"/>
  <path d="M14.4226 66.2183V60.6113H7.29845C6.75232 60.6113 6.30957 61.1009 6.30957 61.7048V65.1251C6.30957 65.729 6.75232 66.2186 7.29845 66.2186H14.4226V66.2183Z" fill="#EDCB3A"/>
  <path d="M17.1984 60.6113H15.3984V66.2183H17.1984V60.6113Z" fill="#EDCB3A"/>
  <path d="M19.1006 60.6113H18.1499V66.2183H19.1006V60.6113Z" fill="#EDCB3A"/>
  <path d="M27.0721 93.1824C33.4899 90.2428 36.5375 82.1068 33.8791 75.0101C31.2207 67.9134 23.863 64.5434 17.4452 67.483C11.0274 70.4226 7.97977 78.5587 10.6382 85.6553C13.2966 92.752 20.6543 96.122 27.0721 93.1824Z" fill="#996B20"/>
  <path d="M22.356 66.4248H20.2534V94.2413H22.356V66.4248Z" fill="#996B20"/>
  <path d="M30.9607 87.1842C34.3832 80.5 32.2574 72.0135 26.2126 68.2289C20.1678 64.4444 12.4931 66.795 9.07054 73.4792C5.64803 80.1634 7.77381 88.65 13.8186 92.4345C19.8634 96.2191 27.5382 93.8684 30.9607 87.1842Z" fill="#DBA32C"/>
  <path d="M23.821 89.7322C28.5176 87.41 30.6225 81.3173 28.5225 76.1239C26.4224 70.9305 20.9125 68.6029 16.2159 70.9251C11.5193 73.2473 9.41437 79.34 11.5144 84.5334C13.6145 89.7269 19.1244 92.0544 23.821 89.7322Z" fill="#EDCB3A"/>
  <path d="M11.2831 80.331C11.2831 74.7502 15.2974 70.209 20.307 70.0383C20.2101 70.0349 20.1134 70.0303 20.0156 70.0303C14.8708 70.0303 10.7002 74.6421 10.7002 80.331C10.7002 86.0199 14.8708 90.6317 20.0156 90.6317C20.1134 90.6317 20.2101 90.6268 20.307 90.6237C15.2974 90.453 11.2831 85.9118 11.2831 80.331Z" fill="#C18925"/>
  <path d="M24.4131 74.4325C24.4131 74.0779 24.1528 73.7907 23.8324 73.791L16.271 73.7947C15.9506 73.7947 15.6906 74.0825 15.6909 74.4368C15.6912 74.7914 15.9512 75.0786 16.2716 75.0783L18.3224 75.0774C19.491 75.0768 20.4876 75.8279 20.8761 76.8835L16.2724 76.8857C15.952 76.886 15.692 77.1734 15.6923 77.5278C15.6926 77.8821 15.9526 78.1696 16.273 78.1693L21.034 78.1668C20.8864 79.5631 19.73 80.6505 18.3249 80.6511L16.2741 80.652C15.9537 80.6523 15.6937 80.9398 15.694 81.2941C15.6943 81.6487 15.9542 81.9359 16.2747 81.9356L17.5291 81.935L21.3082 87.5361C21.4392 87.7305 21.6459 87.8445 21.8649 87.8442C22.4348 87.843 22.7599 87.1245 22.4194 86.6195L19.2583 81.934L23.8363 81.9319C24.157 81.9316 24.4167 81.6441 24.4164 81.2898C24.4161 80.9352 24.1562 80.648 23.8357 80.6483L21.8048 80.6492C22.337 79.9557 22.6755 79.0997 22.736 78.1659L23.8349 78.1652C24.1553 78.1652 24.4153 77.8775 24.415 77.5231C24.4147 77.1685 24.1548 76.8814 23.8343 76.8817L22.6401 76.8823C22.4947 76.2115 22.2032 75.5975 21.8017 75.0752L23.8338 75.0743C24.1534 75.0746 24.4133 74.7868 24.4131 74.4325Z" fill="#AA7921"/>
  <path d="M69.2476 23.0728L74.797 14.0951C77.111 10.3513 74.6866 5.27148 70.5857 5.27148H54.0932H37.6007C33.4997 5.27148 31.075 10.3513 33.3894 14.0951L38.998 23.169C40.5013 25.6009 40.0577 28.8986 37.9827 30.7457C28.3288 39.341 19.4297 53.4765 19.4297 66.822C19.4297 87.9343 34.9074 94.3045 54.0004 94.3045C73.0931 94.3045 88.5711 87.9346 88.5711 66.822C88.5711 53.4288 79.9294 39.2387 70.2666 30.6523C68.1888 28.8061 67.7436 25.5063 69.2476 23.0728Z" fill="#D0B170"/>
  <path d="M70.2663 30.6527C68.1885 28.8061 67.7433 25.5063 69.2473 23.0728L74.7967 14.0951C77.1107 10.3513 74.6863 5.27148 70.5854 5.27148H67.8472C71.9482 5.27148 74.3729 10.3513 72.0585 14.0951L66.5092 23.0728C65.0051 25.5063 65.4504 28.8061 67.5281 30.6527C77.191 39.2391 85.8326 53.4291 85.8326 66.8223C85.8326 87.4274 71.0888 93.989 52.6309 94.2924C53.0853 94.2998 53.5412 94.3048 53.9998 94.3048C73.0925 94.3048 88.5705 87.9349 88.5705 66.8223C88.5708 53.4291 79.9291 39.2391 70.2663 30.6527Z" fill="#B79963"/>
  <path d="M62.2142 30.6532C60.1364 28.8067 59.6911 25.5069 61.1952 23.0734L66.7445 14.0957C69.0586 10.3519 66.6342 5.27207 62.5332 5.27207H58.8104C57.0477 5.27207 55.3447 4.41368 54.2861 2.85526C53.1089 1.12183 51.237 0 49.125 0C47.0129 0 45.141 1.12183 43.9638 2.85526C42.9052 4.41368 41.2022 5.27207 39.4396 5.27207H37.6627C33.5617 5.27207 31.137 10.3519 33.4514 14.0957L39.0601 23.1696C40.5633 25.6015 40.1197 28.8992 38.0447 30.7463C28.3908 39.3416 19.4917 53.4771 19.4917 66.8226C19.4917 87.9352 31.1975 94.305 50.2905 94.305C69.3835 94.305 80.5189 87.9352 80.5189 66.8226C80.5186 53.4296 71.877 39.2396 62.2142 30.6532Z" fill="#E8C585"/>
  <path d="M34.9131 47.5558C38.1851 42.7217 39.6197 37.7951 38.1175 36.5518C36.6153 35.3086 32.7451 38.2196 29.4732 43.0537C26.2013 47.8878 24.7666 52.8145 26.2688 54.0577C27.771 55.3009 31.6412 52.3899 34.9131 47.5558Z" fill="#F9DEB2"/>
  <path d="M36.7252 9.68698C35.3992 10.6677 34.0539 11.0155 33.7204 10.4643C33.3869 9.91313 34.1916 8.67114 35.5176 7.69043C36.8436 6.70972 38.1889 6.36186 38.5224 6.91307C38.8559 7.46427 38.0512 8.70627 36.7252 9.68698Z" fill="#F9DEB2"/>
  <path d="M63.3283 31.8478H39.9529C39.2001 31.8478 38.584 31.1666 38.584 30.3341C38.584 29.5015 39.2001 28.8203 39.9529 28.8203H63.3283C64.0812 28.8203 64.6972 29.5015 64.6972 30.3341C64.6972 31.1663 64.0812 31.8478 63.3283 31.8478Z" fill="#D0B170"/>
  <path d="M58.945 53.0868V50.29H39.9434V53.0868H45.6755C48.2211 53.0868 50.3917 54.724 51.237 57.0241H39.9434V59.8208H51.5798C51.2568 62.8625 48.7371 65.23 45.6755 65.23H39.9434V68.0267H43.9407L52.6221 80.906L56.3851 80.9004L47.7076 68.0267H58.9452V65.23H53.256C54.416 63.7193 55.1541 61.8556 55.2865 59.8208H58.945V57.0241H55.0786C54.7621 55.5624 54.1279 54.2243 53.2535 53.0868H58.945Z" fill="#554C3D"/>
  <path d="M79.7041 94.24C86.6506 94.24 92.2818 88.0131 92.2818 80.3319C92.2818 72.6507 86.6506 66.4238 79.7041 66.4238C72.7577 66.4238 67.1265 72.6507 67.1265 80.3319C67.1265 88.0131 72.7577 94.24 79.7041 94.24Z" fill="#996B20"/>
  <path d="M79.8047 66.4258H77.7021V94.2423H79.8047V66.4258Z" fill="#996B20"/>
  <path d="M86.3558 90.1664C91.2676 84.735 91.2676 75.929 86.3558 70.4976C81.4439 65.0662 73.4803 65.0662 68.5685 70.4976C63.6566 75.929 63.6566 84.735 68.5685 90.1664C73.4803 95.5978 81.4439 95.5978 86.3558 90.1664Z" fill="#DBA32C"/>
  <path d="M77.4633 90.6327C82.6081 90.6327 86.7787 86.0209 86.7787 80.332C86.7787 74.643 82.6081 70.0312 77.4633 70.0312C72.3186 70.0312 68.1479 74.643 68.1479 80.332C68.1479 86.0209 72.3186 90.6327 77.4633 90.6327Z" fill="#EDCB3A"/>
  <path d="M68.7309 80.332C68.7309 74.7512 72.7452 70.21 77.7548 70.0393C77.6578 70.0359 77.5611 70.0312 77.4633 70.0312C72.3186 70.0312 68.1479 74.643 68.1479 80.332C68.1479 86.0209 72.3186 90.6327 77.4633 90.6327C77.5611 90.6327 77.6578 90.6278 77.7548 90.6247C72.7452 90.454 68.7309 85.9128 68.7309 80.332Z" fill="#C18925"/>
  <path d="M81.8608 74.4335C81.8605 74.0788 81.6006 73.7917 81.2801 73.792L73.7188 73.7957C73.3981 73.7957 73.1384 74.0835 73.1387 74.4378C73.139 74.7924 73.3989 75.0796 73.7194 75.0793L75.7701 75.0783C76.9387 75.0777 77.9354 75.8289 78.3238 76.8845L73.7202 76.8866C73.3998 76.8869 73.1398 77.1744 73.1401 77.5287C73.1403 77.8831 73.4003 78.1705 73.7207 78.1702L78.4818 78.1678C78.3341 79.5641 77.1778 80.6514 75.7726 80.6521L73.7219 80.653C73.4014 80.6533 73.1415 80.9408 73.1417 81.2951C73.1417 81.6497 73.402 81.9369 73.7224 81.9366L74.9768 81.9359L78.756 87.5371C78.8872 87.7315 79.0937 87.8455 79.3127 87.8452C79.8825 87.844 80.2077 87.1254 79.8669 86.6205L76.7058 81.935L81.2838 81.9329C81.6045 81.9326 81.8642 81.6451 81.8639 81.2908C81.8636 80.9361 81.6036 80.649 81.2832 80.6493L79.2522 80.6502C79.7844 79.9566 80.123 79.1007 80.1834 78.1668L81.2824 78.1662C81.6028 78.1662 81.8628 77.8784 81.8625 77.5241C81.8625 77.1695 81.6023 76.8823 81.2818 76.8826L80.0876 76.8833C79.9419 76.2125 79.6507 75.5984 79.2492 75.0762L81.2813 75.0753C81.6011 75.0756 81.8608 74.7878 81.8608 74.4335Z" fill="#AA7921"/>
  <path d="M68.8312 30.1094H59.5077C57.9635 30.1094 56.7002 28.7124 56.7002 27.0049C56.7002 25.2974 57.9635 23.9004 59.5077 23.9004H68.8312C70.3754 23.9004 71.6387 25.2974 71.6387 27.0049C71.6387 28.7124 70.3754 30.1094 68.8312 30.1094Z" fill="#494136"/>
  <path d="M65.7369 30.1094H59.5077C57.9635 30.1094 56.7002 28.7124 56.7002 27.0049C56.7002 25.2974 57.9635 23.9004 59.5077 23.9004H65.7369C67.2811 23.9004 68.5445 25.2974 68.5445 27.0049C68.5445 28.7124 67.2811 30.1094 65.7369 30.1094Z" fill="#554C3D"/>
  <path d="M58.8191 30.1094H39.2719C37.7277 30.1094 36.4644 28.7124 36.4644 27.0049C36.4644 25.2974 37.7277 23.9004 39.2719 23.9004H58.8191C60.3633 23.9004 61.6266 25.2974 61.6266 27.0049C61.6266 28.7124 60.3633 30.1094 58.8191 30.1094Z" fill="#685D4E"/>
  <path d="M57.5729 37.6303L53.2435 28.1907C52.5461 26.6674 50.8483 26.0518 49.4705 26.823C48.0926 27.5942 47.5362 29.4715 48.2336 30.9951L52.5631 40.4347C53.2605 41.9583 54.9582 42.5736 56.3361 41.8024C57.7136 41.0312 58.2701 39.1539 57.5729 37.6303Z" fill="#554C3D"/>
  <path d="M56.6986 37.6303L52.3695 28.1907C51.672 26.6674 49.9743 26.0518 48.5964 26.823C47.2186 27.5942 46.6622 29.4715 47.3596 30.9951L51.689 40.4347C52.3865 41.9583 54.0842 42.5736 55.462 41.8024C56.8396 41.0312 57.3961 39.1539 56.6986 37.6303Z" fill="#685D4E"/>
  <path d="M42.2373 37.6303L46.5668 28.1907C47.2642 26.6674 48.9619 26.0518 50.3398 26.823C51.7174 27.5942 52.2741 29.4715 51.5767 30.9951L47.2472 40.4347C46.5498 41.9583 44.8521 42.5736 43.4742 41.8024C42.0966 41.0312 41.5402 39.1539 42.2373 37.6303Z" fill="#554C3D"/>
  <path d="M41.4264 37.6302L45.7559 28.1906C46.4533 26.6673 48.151 26.0517 49.5289 26.8229C50.9067 27.5941 51.4632 29.4714 50.7658 30.995L46.4363 40.4346C45.7389 41.9582 44.0412 42.5735 42.6633 41.8023C41.2857 41.0311 40.729 39.1538 41.4264 37.6302Z" fill="#685D4E"/>
  <path d="M49.2844 31.6742C51.5225 31.6742 53.3369 29.6679 53.3369 27.1931C53.3369 24.7182 51.5225 22.7119 49.2844 22.7119C47.0463 22.7119 45.2319 24.7182 45.2319 27.1931C45.2319 29.6679 47.0463 31.6742 49.2844 31.6742Z" fill="#776C5E"/>
  <path d="M51.0013 24.711C51.0013 25.3784 50.2325 25.9191 49.2843 25.9191C48.3361 25.9191 47.5674 25.3781 47.5674 24.711C47.5674 24.044 48.3361 23.5029 49.2843 23.5029C50.2325 23.5029 51.0013 24.044 51.0013 24.711Z" fill="#877B6F"/>
  <path d="M49.2844 29.7412C47.3468 29.7412 45.729 28.2364 45.3289 26.2266C45.2668 26.5381 45.2319 26.861 45.2319 27.1931C45.2319 29.6678 47.0461 31.6743 49.2844 31.6743C51.5224 31.6743 53.3369 29.6678 53.3369 27.1931C53.3369 26.861 53.3018 26.5381 53.2399 26.2266C52.8398 28.2364 51.2221 29.7412 49.2844 29.7412Z" fill="#554C3D"/>
  <path d="M70.26 71.3601C70.0246 69.8118 68.9106 68.5976 67.5029 68.3622C68.9106 68.1268 70.0246 66.9122 70.26 65.3643C70.4955 66.9125 71.6095 68.1268 73.0171 68.3622C71.6095 68.5976 70.4955 69.8121 70.26 71.3601Z" fill="white"/>
  <path d="M95.385 69.1169C95.1496 67.5687 94.0356 66.3544 92.6279 66.119C94.0356 65.8836 95.1496 64.669 95.385 63.1211C95.6205 64.6693 96.7345 65.8836 98.1421 66.119C96.7345 66.3544 95.6205 67.569 95.385 69.1169Z" fill="white"/>
  <path d="M101.063 85.7136C100.828 84.1653 99.7138 82.9511 98.3062 82.7157C99.7138 82.4803 100.828 81.2657 101.063 79.7178C101.299 81.266 102.413 82.4803 103.82 82.7157C102.413 82.9508 101.299 84.1653 101.063 85.7136Z" fill="white"/>
  <path d="M14.6106 71.3034C14.3752 69.7552 13.2612 68.5409 11.8535 68.3055C13.2612 68.0701 14.3752 66.8556 14.6106 65.3076C14.8461 66.8559 15.9601 68.0701 17.3677 68.3055C15.9601 68.5406 14.8461 69.7552 14.6106 71.3034Z" fill="white"/>
  <path d="M87.1961 93.0027C86.9606 91.4544 85.8466 90.2401 84.439 90.0047C85.8466 89.7694 86.9606 88.5548 87.1961 87.0068C87.4315 88.5551 88.5455 89.7694 89.9532 90.0047C88.5452 90.2401 87.4315 91.4544 87.1961 93.0027Z" fill="white"/>
  <path d="M50.4343 81.9616C50.4337 80.7227 49.5217 79.7152 48.4013 79.7158L24.4849 79.7275C23.3645 79.7282 22.4533 80.7366 22.4536 81.9755L22.4578 92.5449C22.4583 93.7838 23.3703 94.7913 24.4907 94.7907L48.4072 94.779C49.5276 94.7784 50.4387 93.7699 50.4385 92.531L50.4343 81.9616Z" fill="#406052"/>
  <path d="M21.7524 94.791C20.632 94.7916 19.7201 93.7841 19.7195 92.5449L19.7153 81.9755C19.7148 80.7366 20.6259 79.7281 21.7466 79.7275L45.6631 79.7158C46.7835 79.7152 47.6954 80.7227 47.696 81.9616L47.7002 92.531C47.7007 93.7699 46.7896 94.7784 45.6689 94.779L21.7524 94.791Z" fill="#BDEFDC"/>
  <path d="M45.6694 94.0289L21.7526 94.0406C21.0053 94.0409 20.3993 93.3714 20.3987 92.545L20.3945 81.9756C20.3943 81.1493 20.9997 80.4788 21.747 80.4785L45.6638 80.4668C46.4111 80.4665 47.0171 81.136 47.0177 81.9624L47.0219 92.5318C47.0224 93.3581 46.4167 94.0283 45.6694 94.0289Z" fill="#8ED2BB"/>
  <path d="M45.6633 80.4668L33.7051 80.4727L33.7107 94.0347L45.6689 94.0289C46.4162 94.0286 47.0219 93.3581 47.0214 92.5318L47.0172 81.9624C47.0169 81.1363 46.4109 80.4665 45.6633 80.4668Z" fill="#64A08A"/>
  <path d="M39.3701 87.2509C39.3715 90.7085 36.8379 93.5126 33.711 93.5141C30.5841 93.5157 28.0483 90.714 28.0469 87.2564C28.0455 83.7988 30.5791 80.9947 33.706 80.9932C36.8328 80.9916 39.3687 83.7933 39.3701 87.2509Z" fill="#BDEFDC"/>
  <path d="M36.4341 83.5476C36.4341 83.3258 36.2714 83.1462 36.071 83.1465L31.3423 83.1489C31.1419 83.1489 30.9792 83.3289 30.9795 83.5504C30.9795 83.7723 31.1422 83.9519 31.3428 83.9516L32.6254 83.951C33.3563 83.9506 33.9796 84.4202 34.2223 85.0805L31.3431 85.082C31.1428 85.082 30.9801 85.262 30.9803 85.4835C30.9803 85.7053 31.1431 85.885 31.3434 85.8847L34.3206 85.8831C34.2284 86.7563 33.5053 87.4363 32.6262 87.4369L31.3437 87.4375C31.1433 87.4375 30.9806 87.6175 30.9809 87.839C30.9809 88.0605 31.1436 88.2402 31.3439 88.2402L32.1283 88.2399L34.4917 91.7427C34.5736 91.8641 34.7029 91.9356 34.84 91.9353C35.1964 91.9347 35.3998 91.4852 35.1866 91.1694L33.2097 88.2392L36.0727 88.2377C36.273 88.2377 36.4358 88.0577 36.4355 87.8362C36.4355 87.6144 36.2727 87.4348 36.0724 87.4351L34.8021 87.4357C35.1348 87.0019 35.3466 86.4667 35.3845 85.8825L36.0716 85.8822C36.2722 85.8822 36.4346 85.7023 36.4344 85.4807C36.4344 85.2592 36.2716 85.0793 36.0713 85.0796L35.3246 85.0799C35.2334 84.6602 35.0512 84.2763 34.8002 83.9497L36.071 83.9491C36.2716 83.9491 36.4341 83.7692 36.4341 83.5476Z" fill="#406052"/>
  <path d="M24.3874 80.4766L21.747 80.4778C20.9997 80.4781 20.3943 81.1485 20.3945 81.9749L20.3956 84.9115C22.5852 84.8576 24.3487 82.9002 24.3874 80.4766Z" fill="#406052"/>
  <path d="M20.3901 89.625L20.3913 92.5447C20.3915 93.371 20.9976 94.0408 21.7451 94.0402L24.4008 94.039C24.3521 91.6179 22.5819 89.6678 20.3901 89.625Z" fill="#406052"/>
  <path d="M43.0288 94.0306L45.6692 94.0294C46.4165 94.0291 47.0219 93.3587 47.0217 92.5323L47.0206 89.5957C44.831 89.6496 43.0675 91.607 43.0288 94.0306Z" fill="#406052"/>
  <path d="M47.0268 84.882L47.0257 81.9624C47.0254 81.136 46.4194 80.4665 45.6718 80.4668L43.0161 80.468C43.0649 82.8892 44.8351 84.8392 47.0268 84.882Z" fill="#406052"/>
</svg>