<svg xmlns="http://www.w3.org/2000/svg" width="100" height="100" viewBox="0 0 100 100" fill="none">
  <path d="M10.8925 41.8008C10.8925 41.8008 -2.23541 53.8746 0.333124 74.1876C2.90166 94.5005 32.3622 81.8602 46.1712 88.1076C59.98 94.3549 83.0968 112.122 95.3687 86.7819C107.641 61.442 92.8963 59.1786 81.5754 48.8054C70.2544 38.4321 75.3912 22.7038 63.2623 20.0824C51.133 17.4613 14.3172 13.5673 10.8925 41.8008Z" fill="#63CDE5" fill-opacity="0.8"/>
  <path d="M40.777 8.44117C40.858 11.8793 39.4137 14.7077 37.1948 15.0815L30.3611 16.2399L22.7284 17.5331L12.841 19.2094L12.1864 19.3197L11.8862 17.4657L9.73926 4.27663H9.7423L13.8439 3.58094L34.7477 0.0415549C37.1227 -0.359891 39.5516 2.18956 40.4345 5.86069C40.5094 6.15803 40.5697 6.46441 40.6206 6.77388C40.711 7.34093 40.7649 7.89866 40.777 8.44117Z" fill="#182C5E"/>
  <path opacity="0.45" d="M40.7772 8.44147C40.8596 11.8807 39.4136 14.7072 37.1956 15.083L12.188 19.3186L11.8867 17.4665C19.2509 16.4343 33.4498 13.8332 40.7772 8.44147Z" fill="url(#paint0_linear_1428_172)"/>
  <path d="M61.6226 73.6921L39.2085 77.5694C38.7217 77.6535 38.2562 77.3327 38.1506 76.8404L28.6466 32.4701C28.5338 31.9439 28.8749 31.4282 29.3954 31.3383L55.9604 26.7429C56.4809 26.6529 56.9693 27.025 57.0329 27.5599L62.3861 72.6482C62.4456 73.1484 62.1094 73.608 61.6226 73.6921Z" fill="#0C1D3F"/>
  <path d="M70.8157 34.0969L73.9529 69.0475C73.9955 69.5249 73.6507 69.9466 73.1833 69.9909L64.6786 70.7853L52.3279 71.9397C51.8605 71.9843 51.4472 71.6325 51.4047 71.1552L48.2672 36.2046C48.2247 35.7272 48.5683 35.3058 49.036 35.2612L54.5382 34.7475L69.8914 33.3124C70.3591 33.2681 70.7734 33.6196 70.8157 34.0969Z" fill="#FFCE7A"/>
  <path d="M67.751 42.7348L67.3105 37.8262L64.771 38.0635L65.2115 42.9722L67.751 42.7348Z" fill="#182C5E"/>
  <path d="M62.256 71.0074L58.9648 34.332L54.8607 34.7156L58.1518 71.391L62.256 71.0074Z" fill="#182C5E"/>
  <path d="M69.876 66.4165L69.4355 61.5078L68.9354 61.5546L69.3759 66.4632L69.876 66.4165Z" fill="white"/>
  <path d="M68.8575 66.5102L68.417 61.6016L67.9168 61.6483L68.3573 66.557L68.8575 66.5102Z" fill="white"/>
  <path d="M67.838 66.6069L67.3975 61.6982L66.8973 61.745L67.3378 66.6536L67.838 66.6069Z" fill="white"/>
  <path opacity="0.45" d="M64.6786 70.7851L52.3279 71.9395C51.8605 71.9841 51.4472 71.6323 51.4047 71.1549L48.2672 36.2043C48.2247 35.727 48.5683 35.3055 49.036 35.2609L54.5382 34.7472C55.9095 43.5308 59.1711 60.9326 64.6786 70.7851Z" fill="url(#paint1_linear_1428_172)"/>
  <path d="M38.7303 80.3786L25.2065 82.6691C19.7345 83.5958 14.5142 79.9724 13.3482 74.4376L4.38598 31.8959C3.13931 25.9783 6.99156 20.1978 12.8424 19.2071L30.3453 16.2426C36.1961 15.2516 41.6712 19.4522 42.3645 25.4635L47.3476 68.6791C47.9958 74.3013 44.2024 79.4516 38.7303 80.3786Z" fill="#0C1D3F"/>
  <path d="M55.8631 77.4785L25.17 82.6773C24.5033 82.7901 23.8669 82.3486 23.7248 81.6738L10.9231 20.9043C10.7713 20.1841 11.2407 19.4793 11.953 19.3586L22.7286 17.5331L48.3308 13.1973C49.0431 13.0768 49.7096 13.5888 49.7942 14.3204L53.6555 47.8091L56.9121 76.0536C56.9917 76.7383 56.5298 77.3657 55.8631 77.4785Z" fill="#182C5E"/>
  <path d="M22.7227 42.2688C21.6353 42.453 20.6037 41.7001 20.4232 40.5902L18.5252 28.9184C18.3447 27.8086 19.0825 26.7557 20.1702 26.5718L42.8368 22.7328C43.9242 22.5486 44.9556 23.3016 45.1361 24.4114L47.034 36.0832C47.2145 37.193 46.4767 38.2459 45.3893 38.4298L22.7227 42.2688Z" fill="#0C1D3F"/>
  <path d="M45.4048 37.2815C45.344 37.3069 45.2791 37.3258 45.2119 37.3368L22.5451 41.1758C22.0464 41.261 21.5748 40.9168 21.4924 40.4079L19.5942 28.7358C19.566 28.5597 19.5876 28.3873 19.6495 28.2333C19.7645 27.9425 20.0213 27.7168 20.3478 27.6612L43.0143 23.8222C43.513 23.7381 43.9834 24.0823 44.0669 24.5912L45.9651 36.2634C46.0367 36.7029 45.794 37.1224 45.4048 37.2815Z" fill="#DFE1E5"/>
  <path d="M45.4048 37.2827C45.344 37.3081 45.2791 37.327 45.2119 37.338L22.5451 41.177C22.0464 41.2622 21.5748 40.918 21.4924 40.4091L19.5942 28.737C19.566 28.5609 19.5876 28.3886 19.6495 28.2345C19.7103 28.208 19.7753 28.1891 19.8425 28.1781L42.5093 24.3391C43.0079 24.2539 43.4795 24.5981 43.5619 25.107L45.4601 36.7791C45.4883 36.9552 45.4667 37.129 45.4048 37.2827Z" fill="white"/>
  <path d="M37.4153 47.2926L31.3926 48.3128C30.4102 48.4792 29.4817 47.8013 29.3186 46.7987C29.1555 45.796 29.8197 44.8484 30.8021 44.682L36.8249 43.6618C37.8073 43.4954 38.7358 44.1733 38.8989 45.1759C39.062 46.1786 38.3977 47.1265 37.4153 47.2926Z" fill="#0C1D3F"/>
  <path d="M38.2561 47.1501L32.2334 48.1702C31.251 48.3366 30.3225 47.6587 30.1594 46.6561C29.9963 45.6535 30.6605 44.7058 31.643 44.5394L37.6657 43.5193C38.6481 43.3528 39.5766 44.0307 39.7397 45.0334C39.9028 46.036 39.2386 46.9836 38.2561 47.1501Z" fill="url(#paint2_linear_1428_172)"/>
  <path d="M27.2149 53.7639L22.7424 54.5213C22.4615 54.5687 22.2719 54.8396 22.3186 55.1262L22.7404 57.7196C22.7871 58.006 23.0522 58.1998 23.3331 58.1521L27.8056 57.3947C28.0865 57.347 28.2761 57.0764 28.2297 56.7898L27.8078 54.1963C27.7608 53.91 27.4957 53.7162 27.2149 53.7639Z" fill="#0C1D3F"/>
  <path d="M36.4141 52.2061L31.9416 52.9636C31.6607 53.011 31.4711 53.2818 31.5178 53.5684L31.9396 56.1619C31.9864 56.4485 32.2514 56.6421 32.5323 56.5947L37.0048 55.8372C37.2854 55.7898 37.4753 55.519 37.4286 55.2323L37.0068 52.6389C36.9601 52.3523 36.6947 52.1584 36.4141 52.2061Z" fill="#0C1D3F"/>
  <path d="M45.6133 50.6477L41.1408 51.4051C40.8602 51.4528 40.6703 51.7233 40.717 52.01L41.1388 54.6034C41.1856 54.8901 41.4507 55.0836 41.7315 55.0362L46.204 54.2787C46.4849 54.2313 46.6745 53.9605 46.6278 53.6739L46.206 51.0804C46.1593 50.7938 45.8942 50.6 45.6133 50.6477Z" fill="#0C1D3F"/>
  <path d="M28.0831 59.1069L23.6105 59.8644C23.3297 59.912 23.14 60.1826 23.1868 60.4692L23.6086 63.0627C23.6553 63.349 23.9204 63.5428 24.2012 63.4954L28.6738 62.7379C28.9544 62.6906 29.1443 62.4197 29.0975 62.1331L28.6757 59.5396C28.629 59.253 28.3636 59.0592 28.0831 59.1069Z" fill="#0C1D3F"/>
  <path d="M37.2833 57.5482L32.8107 58.3057C32.5301 58.3531 32.3402 58.6239 32.3869 58.9105L32.8088 61.504C32.8555 61.7903 33.1206 61.9842 33.4014 61.9365L37.874 61.179C38.1548 61.1313 38.3444 60.8608 38.298 60.5742L37.8762 57.9807C37.8292 57.6944 37.5638 57.5005 37.2833 57.5482Z" fill="#0C1D3F"/>
  <path d="M46.4817 55.9914L42.0092 56.7489C41.7283 56.7963 41.5387 57.0671 41.5851 57.3537L42.0069 59.9472C42.0537 60.2335 42.3188 60.4273 42.5996 60.3799L47.0721 59.6225C47.353 59.5751 47.5426 59.3043 47.4959 59.0176L47.0741 56.4242C47.0276 56.1375 46.7623 55.9437 46.4817 55.9914Z" fill="#0C1D3F"/>
  <path d="M28.9522 64.4474L24.4797 65.2049C24.1988 65.2523 24.0092 65.5231 24.0559 65.8097L24.4777 68.4032C24.5244 68.6895 24.7895 68.8833 25.0704 68.8356L29.5429 68.0782C29.8235 68.0305 30.0134 67.76 29.967 67.4733L29.5451 64.8799C29.4981 64.5935 29.2328 64.4 28.9522 64.4474Z" fill="#0C1D3F"/>
  <path d="M38.1514 62.8908L33.6789 63.6483C33.3983 63.696 33.2084 63.9665 33.2551 64.2531L33.6769 66.8466C33.7237 67.1332 33.9887 67.3267 34.2696 67.2794L38.7421 66.5219C39.023 66.4745 39.2126 66.2037 39.1662 65.917L38.7443 63.3236C38.6976 63.037 38.4323 62.8431 38.1514 62.8908Z" fill="#0C1D3F"/>
  <path d="M47.3508 61.3331L42.8783 62.0906C42.5974 62.1383 42.4078 62.4088 42.4543 62.6954L42.8761 65.2889C42.9225 65.5752 43.1879 65.769 43.4687 65.7214L47.9413 64.9639C48.2221 64.9165 48.4118 64.6457 48.3653 64.359L47.9435 61.7656C47.8968 61.4792 47.6314 61.2854 47.3508 61.3331Z" fill="#0C1D3F"/>
  <path d="M29.8213 69.7922L25.3488 70.5497C25.0682 70.5973 24.8783 70.8679 24.925 71.1545L25.3469 73.748C25.3936 74.0346 25.6587 74.2281 25.9395 74.1807L30.4121 73.4232C30.6926 73.3756 30.8825 73.105 30.8361 72.8184L30.4143 70.2249C30.3673 69.9383 30.1019 69.7445 29.8213 69.7922Z" fill="#0C1D3F"/>
  <path d="M39.0188 68.2336L34.5463 68.9911C34.2657 69.0385 34.0758 69.3093 34.1222 69.5959L34.544 72.1894C34.5908 72.4757 34.8559 72.6695 35.1367 72.6218L39.6093 71.8644C39.8901 71.8167 40.0797 71.5461 40.0333 71.2595L39.6115 68.6661C39.565 68.3797 39.2997 68.1859 39.0188 68.2336Z" fill="#0C1D3F"/>
  <path d="M48.219 66.6751L43.7465 67.4326C43.4656 67.4803 43.276 67.7508 43.3224 68.0375L43.7442 70.6309C43.7907 70.9175 44.0561 71.1111 44.3369 71.0637L48.8095 70.3062C49.0903 70.2588 49.2799 69.988 49.2335 69.7014L48.8117 67.1079C48.7649 66.8213 48.4996 66.6277 48.219 66.6751Z" fill="#0C1D3F"/>
  <path d="M28.5682 57.2661L24.0957 58.0235C23.8151 58.0712 23.5498 57.8774 23.503 57.5911L23.0812 54.9976C23.0348 54.711 23.2244 54.4404 23.5052 54.3928L27.9778 53.6353C28.2586 53.5879 28.5237 53.7814 28.5705 54.068L28.9923 56.6615C29.0387 56.9476 28.8488 57.2184 28.5682 57.2661Z" fill="white"/>
  <path d="M37.7675 55.7077L33.295 56.4651C33.0144 56.5128 32.749 56.319 32.7023 56.0324L32.2805 53.4389C32.2338 53.1523 32.4237 52.8818 32.7043 52.8341L37.1768 52.0766C37.4577 52.0289 37.7227 52.2227 37.7695 52.5091L38.1913 55.1025C38.238 55.3892 38.0481 55.66 37.7675 55.7077Z" fill="white"/>
  <path d="M46.9667 54.1491L42.4942 54.9065C42.2134 54.9542 41.9483 54.7604 41.9015 54.4738L41.4797 51.8803C41.433 51.594 41.6229 51.3232 41.9038 51.2755L46.3763 50.518C46.6571 50.4703 46.9222 50.6641 46.969 50.9505L47.3908 53.5439C47.4372 53.8306 47.2473 54.1014 46.9667 54.1491Z" fill="white"/>
  <path d="M29.4374 62.6078L24.9649 63.3653C24.6843 63.4127 24.419 63.2191 24.3722 62.9325L23.9504 60.339C23.9037 60.0527 24.0936 59.7819 24.3745 59.7342L28.847 58.9767C29.1279 58.929 29.3929 59.1229 29.4397 59.4092L29.8615 62.0027C29.9079 62.2893 29.7183 62.5601 29.4374 62.6078Z" fill="white"/>
  <path d="M38.6367 61.0499L34.1641 61.8074C33.8835 61.8551 33.6182 61.6613 33.5715 61.3749L33.1496 58.7815C33.1029 58.4951 33.2928 58.2243 33.5737 58.1766L38.0462 57.4191C38.3271 57.3715 38.5922 57.5653 38.6389 57.8519L39.0607 60.4454C39.1071 60.7314 38.9175 61.0022 38.6367 61.0499Z" fill="white"/>
  <path d="M47.8359 59.4916L43.3633 60.2491C43.0825 60.2964 42.8174 60.1029 42.7707 59.8163L42.3489 57.2228C42.3021 56.9362 42.4921 56.6657 42.7726 56.618L47.2452 55.8605C47.5257 55.8128 47.7911 56.0066 47.8378 56.293L48.2596 58.8864C48.3064 59.1734 48.1165 59.4439 47.8359 59.4916Z" fill="white"/>
  <path d="M30.3066 67.9516L25.834 68.7091C25.5535 68.7568 25.2881 68.563 25.2414 68.2766L24.8196 65.6832C24.7728 65.3965 24.9628 65.126 25.2433 65.0783L29.7159 64.3208C29.9964 64.2734 30.2618 64.467 30.3085 64.7536L30.7303 67.347C30.7771 67.6334 30.5872 67.9039 30.3066 67.9516Z" fill="white"/>
  <path d="M39.5058 66.3932L35.0333 67.1506C34.7527 67.1983 34.4873 67.0045 34.4406 66.7179L34.0188 64.1244C33.9721 63.8378 34.162 63.5672 34.4428 63.5196L38.9154 62.7621C39.1962 62.7144 39.4613 62.9082 39.508 63.1946L39.9298 65.788C39.9763 66.0749 39.7867 66.3455 39.5058 66.3932Z" fill="white"/>
  <path d="M48.705 64.8346L44.2325 65.592C43.9519 65.6397 43.6865 65.4459 43.6398 65.1593L43.218 62.5658C43.1713 62.2795 43.3612 62.0086 43.642 61.961L48.1146 61.2035C48.3954 61.1558 48.6605 61.3496 48.7072 61.6363L49.1291 64.2297C49.1755 64.5161 48.9856 64.7869 48.705 64.8346Z" fill="white"/>
  <path d="M31.1748 73.2944L26.7022 74.0519C26.4216 74.0993 26.1563 73.9057 26.1096 73.6191L25.6877 71.0257C25.641 70.7393 25.8309 70.4685 26.1118 70.4208L30.5843 69.6633C30.8649 69.6157 31.1303 69.8095 31.177 70.0958L31.5988 72.6893C31.6452 72.9759 31.4553 73.2467 31.1748 73.2944Z" fill="#067FC0"/>
  <path d="M40.375 71.7365L35.9024 72.494C35.6218 72.5417 35.3565 72.3478 35.3097 72.0615L34.8879 69.468C34.8412 69.1817 35.0311 68.9109 35.312 68.8632L39.7845 68.1057C40.0651 68.058 40.3304 68.2519 40.3772 68.5385L40.799 71.1319C40.8454 71.4183 40.6558 71.6888 40.375 71.7365Z" fill="#E07336"/>
  <path d="M49.5732 70.1782L45.1006 70.9357C44.8201 70.9831 44.5547 70.7895 44.508 70.5029L44.0862 67.9094C44.0395 67.6228 44.2294 67.3523 44.5099 67.3046L48.9825 66.5471C49.263 66.4994 49.5284 66.6933 49.5751 66.9796L49.997 69.5731C50.0437 69.86 49.8538 70.1305 49.5732 70.1782Z" fill="#B7EAF5"/>
  <path d="M12.1868 19.319C14.754 18.8842 16.2876 15.1646 15.6123 11.0109C14.9369 6.85724 12.3083 3.84247 9.74109 4.27724C7.1739 4.71201 5.64026 8.43167 6.31563 12.5853C6.99099 16.739 9.61961 19.7538 12.1868 19.319Z" fill="#0C1D3F"/>
  <path opacity="0.25" d="M53.6557 47.8088C50.9824 47.1371 50.8611 43.8524 50.1272 38.2065C49.3034 31.8672 48.8902 15.7848 47.0365 15.4697C45.1817 15.1543 26.8912 18.5718 24.5217 18.2036C23.5829 18.0586 23.0409 17.7965 22.7285 17.5331L48.3307 13.1973C49.043 13.0768 49.7095 13.5888 49.7941 14.3204L53.6557 47.8088Z" fill="white"/>
  <path opacity="0.25" d="M40.4347 5.86068C38.9724 3.62974 36.9396 1.99659 35.3062 1.41742C32.8441 0.540893 25.5149 2.50834 20.6446 3.59927C17.6841 4.26421 15.2762 3.9395 13.8438 3.58094L34.7475 0.0415548C37.1228 -0.359891 39.5521 2.18956 40.4347 5.86068Z" fill="white"/>
  <path d="M77.2546 80.816C77.4019 81.7789 77.6162 83.5359 77.2831 83.8606C76.8212 84.3114 76.1566 86.1432 75.5347 86.9841C74.9138 87.8245 72.863 88.7042 72.2483 87.5644C71.6335 86.4258 72.3746 84.7368 73.5729 82.8833C74.327 81.7174 74.5536 81.0166 74.6178 80.6583C74.9025 80.5539 75.2898 80.1062 75.6516 80.6231C76.0245 81.1537 76.723 80.829 77.2546 80.816Z" fill="#182C5E"/>
  <path d="M86.4989 61.6947L85.6229 63.362L84.1529 66.1634L83.3563 67.6814C83.3563 67.6814 82.2591 68.0143 80.9508 68.5354C79.1416 69.2579 76.928 70.3389 76.6591 71.3977C76.3685 72.5439 76.6665 75.2677 76.9158 77.4075C77.0632 78.6722 77.1934 79.733 77.1749 80.1435C77.1403 80.877 76.0128 81.6339 75.1097 81.8584C74.6544 81.9713 74.2555 81.9493 74.0831 81.7202C73.9692 81.5687 73.6886 80.9568 73.3384 80.0628C72.1135 76.9251 70.0525 70.3056 71.4554 67.8916C73.2593 64.7892 80.9865 60.8707 80.9865 60.8707H80.7297C80.851 60.7931 80.9931 60.7347 81.1515 60.6927C82.0394 60.4548 83.44 60.7324 84.5858 61.0535C85.6534 61.3539 86.4989 61.6947 86.4989 61.6947Z" fill="url(#paint3_linear_1428_172)"/>
  <path opacity="0.25" d="M82.3247 65.6639C82.3247 65.6639 76.6983 69.0896 75.6938 71.2647C74.6893 73.4398 76.6212 80.538 76.6212 80.538" stroke="white" stroke-width="0.118709" stroke-miterlimit="10"/>
  <path opacity="0.45" d="M76.6603 71.3974C76.1972 73.2218 77.2272 79.039 77.1763 80.1432C77.1244 81.2474 74.5995 82.4035 74.0845 81.7196C73.9706 81.5681 73.6901 80.9562 73.3398 80.0622C74.6636 79.6362 75.8429 78.5078 76.1585 77.1457C76.6605 74.9763 75.9266 73.5567 75.3467 71.6248C74.7678 69.692 76.8535 70.1256 77.0085 68.7063C77.1636 67.2867 78.0031 67.9161 80.6795 65.9904C83.3843 64.0439 84.1547 63.035 84.1547 63.035V66.1628L83.358 67.6809C83.3575 67.6811 77.1241 69.5741 76.6603 71.3974Z" fill="url(#paint4_linear_1428_172)"/>
  <path d="M89.7201 63.0355C89.5606 64.4847 89.1368 65.911 88.5253 67.3315C87.0694 70.7126 84.5501 74.0638 81.9918 77.6184C78.3601 82.6668 76.2994 91.5785 75.6553 91.6837C75.5685 91.6053 75.4549 91.5587 75.3269 91.5266C74.8097 91.4004 74.0531 91.5322 73.8256 90.9214C73.6056 90.3273 73.1188 90.6591 72.8175 90.6859C72.7318 90.6924 72.6613 90.676 72.616 90.6063C72.409 90.2909 72.229 90.2379 74.6508 83.1394C74.7884 82.7368 74.9424 82.3085 75.1105 81.8583C75.608 80.525 76.2303 79.005 76.9166 77.4074C78.1708 74.4878 79.6377 71.3078 80.9516 68.5355C82.0747 66.1647 83.0839 64.0923 83.7529 62.7339C84.0044 62.2227 84.207 61.8122 84.3502 61.5256C84.502 61.2204 84.5855 61.0542 84.5855 61.0542C84.5855 61.0542 84.5855 61.0542 84.5866 61.0531C84.6615 61.0155 88.1748 59.2343 89.3662 60.9081C89.5559 61.1735 89.6861 61.5253 89.7347 61.9846C89.7665 62.2865 89.7643 62.6351 89.7201 63.0355Z" fill="url(#paint5_linear_1428_172)"/>
  <path opacity="0.45" d="M89.7207 63.0355C89.5612 64.4847 89.1374 65.911 88.526 67.3315C87.7282 65.9917 86.4122 65.2371 85.9818 64.0446C85.869 63.7314 85.7498 63.5136 85.6241 63.3619C85.0756 62.6969 84.4175 63.2823 83.753 62.7333C83.6424 62.6425 83.5318 62.5209 83.4223 62.3573C82.8966 61.575 81.9089 61.0229 81.1523 60.6922C82.0402 60.4544 83.4409 60.732 84.5866 61.0531C84.6616 61.0155 88.1749 59.2343 89.3663 60.9081L89.7348 61.9846C89.7671 62.2865 89.7649 62.6351 89.7207 63.0355Z" fill="url(#paint6_linear_1428_172)"/>
  <path opacity="0.25" d="M88.0849 63.3251C88.0849 63.3251 84.3496 72.3738 81.7222 75.6864C79.0948 78.9989 75.0703 91.4827 75.0703 91.4827" stroke="white" stroke-width="0.118709" stroke-miterlimit="10"/>
  <path d="M75.327 91.5273C75.2284 92.4964 74.9953 94.2511 74.592 94.478C74.0325 94.7934 72.9313 96.391 72.1194 97.0415C71.3084 97.6921 69.1058 98.0075 68.7968 96.745C68.4877 95.4837 69.6272 94.0443 71.2501 92.5652C72.2712 91.6348 72.6659 91.0161 72.8177 90.6866C73.119 90.6601 73.6057 90.3281 73.8258 90.9222C74.0533 91.5327 74.8098 91.4012 75.327 91.5273Z" fill="#182C5E"/>
  <path d="M74.7303 48.9928C74.7303 48.9928 73.1861 47.1016 72.9089 46.5309C72.6316 45.9601 72.3502 44.5984 72.1421 44.4178C71.9339 44.237 71.9121 43.5862 71.5705 43.3074C71.2288 43.0287 70.972 43.3368 70.9546 43.7337C70.9372 44.1306 70.9701 45.7799 71.168 46.5746C71.3662 47.3693 71.5373 47.573 71.3767 47.6257C71.2161 47.6785 70.8191 47.3151 70.572 47.3749C70.3246 47.4347 70.5637 48.0086 70.8484 48.302C71.1331 48.5954 72.0379 48.8871 72.4849 49.3946C72.9318 49.9021 73.7871 50.92 73.7871 50.92" fill="url(#paint7_linear_1428_172)"/>
  <path d="M88.6878 55.4842C88.4051 58.2711 88.9457 58.2057 88.6878 60.1974C88.5502 61.2649 88.0125 62.1691 87.5061 63.0374C86.9295 62.9026 86.448 62.4653 85.8799 62.638C85.1753 62.8504 85.1546 62.1234 84.3947 61.7341C84.2103 61.639 83.9828 61.5637 83.6901 61.5273C83.3009 61.4776 83.0278 61.3645 82.8359 61.2232C82.837 61.2209 82.8393 61.2187 82.8404 61.2164C84.0384 59.4019 85.313 54.3148 86.2802 50.4781C86.6705 48.9293 87.039 47.8747 87.3403 47.1678C87.7273 46.2605 88.0026 45.9253 88.0678 45.8534C88.0775 45.8424 88.083 45.8379 88.083 45.8379L90.133 45.9663C90.133 45.9663 90.1341 45.9685 90.1374 45.9727C90.1938 46.0602 90.7348 46.9663 90.4658 48.9389C90.1827 51.0155 88.972 52.6983 88.6878 55.4842Z" fill="#D8E1EF"/>
  <path d="M88.0849 45.8383C88.0849 45.8383 88.0793 45.8428 88.0697 45.8538C87.9536 45.9822 87.1721 46.9425 86.282 50.4785C85.3151 54.3155 84.0402 59.4025 82.8422 61.2168C82.8411 61.2191 82.8389 61.2213 82.8378 61.2236C81.6453 63.0325 81.9922 64.0159 81.9922 64.0159C81.9922 64.0159 81.1425 64.3756 80.2924 62.6384C79.4424 60.9003 78.611 60.3425 77.7806 60.1978C76.9502 60.0528 78.0896 58.6922 79.6354 58.4166C81.1812 58.1401 82.6849 54.177 82.7933 53.4866C79.848 55.1627 78.2629 55.4781 77.1625 55.1627C76.6442 55.0146 75.6339 54.1248 74.6506 53.0384C74.4544 52.8203 74.2581 52.5946 74.0674 52.3658C74.0674 52.3647 74.0663 52.3636 74.0652 52.3624C74.0162 52.3049 73.9687 52.2462 73.922 52.1875C73.1035 51.1829 72.4074 50.134 72.1777 49.405C72.4672 48.0453 73.6455 47.4932 73.8006 47.4734C75.52 48.9915 77.4713 50.7262 77.7032 51.3578C80.1564 50.569 83.1322 47.4932 84.1165 46.9411C85.1025 46.3893 87.7432 45.8205 88.0849 45.8383Z" fill="#182C5E"/>
  <path d="M96.9062 58.3237C96.2373 62.8189 94.4596 66.5264 94.0214 66.9203C93.8805 67.0464 93.6712 67.1051 93.4393 67.0873C92.9644 67.0498 92.3933 66.6901 92.1177 65.9267C92.108 65.899 92.0981 65.8714 92.0895 65.8426C92.7336 61.8465 93.8152 60.2167 93.8923 59.4014C93.9703 58.5861 93.9703 56.4153 92.6564 54.1815C92.6835 54.3254 92.652 54.7059 92.5837 55.2425C92.2661 57.7364 91.1571 63.6088 91.4963 64.9576C90.9045 65.8073 89.6426 64.5017 88.7915 65.1148C88.1203 65.5994 87.7389 64.8535 87.1122 64.9731C86.9452 65.0042 86.762 65.097 86.5508 65.2908C86.658 64.5096 87.071 63.7871 87.5069 63.037C88.0131 62.1684 88.551 61.2645 88.6887 60.197C88.9466 58.2055 88.4059 58.2707 88.6887 55.4837C88.9728 52.6979 90.1835 51.0151 90.4666 48.9384C90.7356 46.9656 90.1946 46.0598 90.1382 45.9723C90.1349 45.9678 90.1338 45.9658 90.1338 45.9658C95.8295 47.384 97.576 53.8274 96.9062 58.3237Z" fill="#182C5E"/>
  <path opacity="0.45" d="M88.6896 55.4842C88.4068 58.2712 88.9475 58.2057 88.6896 60.1974C88.552 61.265 88.0143 62.1691 87.5079 63.0375C86.9313 62.9026 86.4498 62.4653 85.8817 62.638C85.1771 62.8504 85.1564 62.1234 84.3965 61.7341C85.1879 61.349 86.1181 61.7905 86.5515 61.1631C87.1693 60.2691 85.7526 59.7957 86.6891 58.9813C87.6257 58.166 87.5825 56.4832 87.3266 54.3278C87.0717 52.1716 88.3803 52.5931 89.1045 50.6426C89.8277 48.6932 88.6894 48.6754 87.8393 48.2407C87.5151 48.0748 87.3819 47.6409 87.3418 47.1675C87.7288 46.2602 88.0041 45.9251 88.0693 45.8532C88.079 45.8422 88.0845 45.8376 88.0845 45.8376L90.1345 45.966C90.1345 45.966 90.1356 45.9683 90.1389 45.9725C90.1953 46.06 90.7363 46.9661 90.4673 48.9386C90.1845 51.0155 88.9738 52.6983 88.6896 55.4842Z" fill="url(#paint8_linear_1428_172)"/>
  <path opacity="0.45" d="M92.5839 55.2429C92.2662 57.7368 91.1572 63.6092 91.4964 64.958C90.9046 65.8077 89.6427 64.5021 88.7916 65.1152C88.1204 65.5998 87.739 64.8539 87.1123 64.9735C87.5991 63.7621 89.7444 64.3707 89.7195 62.9246C89.6936 61.4265 91.0583 61.4784 91.1418 59.5601C91.2252 57.6406 90.8275 58.114 91.7955 56.5288C92.7439 54.9777 92.1283 53.3237 92.1012 53.2529L92.6563 54.1822L92.5839 55.2429Z" fill="url(#paint9_linear_1428_172)"/>
  <path d="M73.9219 52.1867C73.9664 52.2344 74.0139 52.2916 74.0651 52.3616C74.0161 52.304 73.9686 52.2454 73.9219 52.1867Z" fill="url(#paint10_linear_1428_172)"/>
  <path opacity="0.45" d="M84.3963 49.2285C83.993 49.7276 82.793 53.487 82.793 53.487C79.8477 55.163 78.2627 55.4784 77.1623 55.163C76.644 55.0149 75.6336 54.1251 74.6504 53.0387C75.9145 54.2845 77.5849 54.7359 78.514 54.0134C79.5959 53.1716 79.7247 53.9869 80.3179 53.0145C80.9097 52.042 80.8838 52.6991 82.0948 51.989C83.3058 51.2786 83.1507 49.492 84.3963 49.2285Z" fill="url(#paint11_linear_1428_172)"/>
  <path d="M93.4391 67.0883C93.1259 67.8794 92.3378 69.1517 92.1026 69.6951C91.8065 70.3789 91.1876 70.6289 90.2608 70.5493C89.3328 70.4706 89.5517 70.0237 89.5517 70.0237C89.5517 70.0237 89.089 69.9839 88.9978 69.7605C88.9077 69.5371 90.2478 69.4451 90.4407 69.1032C90.1057 69.3399 88.8949 69.6685 88.8698 69.4318C88.8438 69.1963 89.6167 68.9982 90.0775 68.6828C90.5394 68.3674 91.2526 67.6052 91.1224 67.5654C90.9922 67.5267 90.2986 68.0388 90.1317 67.8551C89.9647 67.6703 90.1955 67.4337 90.7246 66.9081C91.2103 66.4245 91.8922 66.1966 92.1175 65.9277C92.3931 66.6911 92.9642 67.0508 93.4391 67.0883Z" fill="url(#paint12_linear_1428_172)"/>
  <path d="M86.4986 43.5197C86.4986 43.5197 86.8408 43.0943 86.1647 42.0098C85.4885 40.9254 85.3542 39.0522 86.7159 38.4606C88.0775 37.869 89.1979 38.4408 89.5263 38.8747C89.874 39.1901 90.1637 38.4211 90.6275 38.8945C91.0911 39.3676 90.7099 39.703 91.142 39.8999C91.5743 40.0971 92.0379 39.6043 92.2311 40.5702C92.4243 41.5365 90.9117 43.1067 91.0781 43.6591C91.2445 44.2114 88.9289 43.6591 88.9289 43.6591H87.3624L86.4986 43.5197Z" fill="#30061F"/>
  <path d="M91.1426 42.6348C91.1426 42.7541 91.1404 42.9135 91.1318 43.0873V43.0884C91.1222 43.2743 91.107 43.4757 91.0788 43.6594C91.0451 43.812 91.005 43.9581 90.9607 44.0953C90.7634 44.7072 90.4665 45.165 90.1033 45.4573C89.7727 45.7228 89.3879 45.8523 88.9738 45.8356C88.615 45.8201 88.3148 45.7261 88.0611 45.5778C87.532 45.2669 87.211 44.7204 87.017 44.1683C86.8901 43.8075 86.8166 43.4447 86.7743 43.1437C86.7406 42.9081 86.7265 42.709 86.7212 42.5806C86.7168 42.4788 86.7168 42.4201 86.7168 42.4201C86.7168 42.4201 87.634 42.4046 88.7159 41.576C88.6391 41.8525 88.0492 42.325 88.136 42.3947C88.2239 42.4632 89.2665 42.0982 89.7881 40.8955C90.0007 41.6745 91.141 42.4201 91.141 42.4201C91.141 42.4201 91.1426 42.503 91.1426 42.6348Z" fill="url(#paint13_linear_1428_172)"/>
  <path d="M87.0157 44.1692C86.4087 44.5433 85.7104 43.4202 86.0866 43.076C86.4639 42.7307 86.773 43.1445 86.773 43.1445C86.815 43.4456 86.8888 43.8086 87.0157 44.1692Z" fill="url(#paint14_linear_1428_172)"/>
  <path d="M90.959 44.0958C91.0035 43.9587 91.0436 43.8125 91.077 43.6599C91.1052 43.4762 91.1204 43.2748 91.1301 43.0889V43.0878C91.1594 43.0556 91.5691 42.6164 91.9983 42.9385C92.4431 43.2728 91.3015 44.6323 90.959 44.0958Z" fill="url(#paint15_linear_1428_172)"/>
  <path d="M90.1194 46.7168C90.0033 47.3995 89.5524 47.6892 89.0894 47.821C88.6256 47.9527 88.2004 47.6362 88.1614 47.1893C88.1377 46.905 88.1277 46.5001 88.1017 46.0764C88.091 45.9105 88.078 45.7424 88.0605 45.5785C88.3143 45.7266 88.6145 45.8208 88.9733 45.8363C89.3874 45.853 89.7722 45.7235 90.1028 45.458C90.1136 45.7159 90.1418 45.9901 90.1462 46.2547C90.1498 46.4147 90.1442 46.5718 90.1194 46.7168Z" fill="url(#paint16_linear_1428_172)"/>
  <path d="M88.0883 43.5903C88.1964 43.5903 88.284 43.458 88.284 43.2947C88.284 43.1314 88.1964 42.999 88.0883 42.999C87.9802 42.999 87.8926 43.1314 87.8926 43.2947C87.8926 43.458 87.9802 43.5903 88.0883 43.5903Z" fill="#30061F"/>
  <path d="M90.1316 43.2947C90.1316 43.458 90.044 43.5903 89.9359 43.5903C89.8279 43.5903 89.7402 43.458 89.7402 43.2947C89.7402 43.1313 89.8279 42.999 89.9359 42.999C90.044 42.999 90.1316 43.1313 90.1316 43.2947Z" fill="#30061F"/>
  <path d="M88.9587 43.2959C88.9587 43.2959 89.0184 43.3402 88.9587 43.521C88.8989 43.7019 88.6623 43.8153 88.6527 43.9532C88.643 44.0912 88.8633 44.1405 88.9296 44.1256" stroke="#FF9271" stroke-width="0.118709" stroke-miterlimit="10"/>
  <path d="M88.4766 44.7246C88.4766 44.7246 89.0673 44.9677 89.7412 44.6523" stroke="#F96948" stroke-width="0.118709" stroke-miterlimit="10"/>
  <path opacity="0.45" d="M90.1462 46.2544C90.0801 46.2699 90.0096 46.2843 89.9369 46.2987C89.009 46.4767 88.4334 46.2866 88.1017 46.0764C88.0909 45.9105 88.078 45.7424 88.0605 45.5785C88.3143 45.7266 88.6145 45.8208 88.9733 45.8363C89.3874 45.853 89.7722 45.7235 90.1028 45.458C90.1136 45.7156 90.1418 45.9898 90.1462 46.2544Z" fill="url(#paint17_linear_1428_172)"/>
  <path opacity="0.45" d="M91.1432 42.6347C90.2857 42.4965 89.7425 41.9111 89.7425 41.9111C89.7425 41.9111 89.0053 42.6313 87.7987 42.6999C87.3227 42.7264 86.9717 42.6658 86.7212 42.5806C86.7168 42.4787 86.7168 42.42 86.7168 42.42C86.7168 42.42 87.634 42.4045 88.7159 41.576C88.6391 41.8524 88.0492 42.325 88.136 42.3947C88.2239 42.4632 89.2665 42.0982 89.7882 40.8955C90.0007 41.6744 91.141 42.42 91.141 42.42C91.141 42.42 91.1432 42.503 91.1432 42.6347Z" fill="url(#paint18_linear_1428_172)"/>
  <path d="M23.5281 35.5469L23.1162 32.9712L23.502 32.907L24.9059 34.6035L24.704 34.6371L25.4886 32.5761L25.8743 32.5118L26.2899 35.0869L25.8464 35.1608L25.5444 33.2958L25.6382 33.2802L24.9665 35.0051L24.7574 35.04L23.5687 33.625L23.6769 33.6069L23.9752 35.4725L23.5281 35.5469Z" fill="black"/>
  <path d="M26.9283 34.9805L26.6141 33.0157L27.0647 32.9406L27.379 34.9055L26.9283 34.9805ZM26.7894 32.654C26.7053 32.668 26.6313 32.6527 26.5674 32.6079C26.5058 32.5627 26.469 32.5021 26.4568 32.4261C26.4443 32.3476 26.4603 32.2782 26.505 32.2179C26.5516 32.1547 26.617 32.1161 26.7011 32.1021C26.7853 32.0881 26.8579 32.1024 26.919 32.1451C26.9821 32.185 27.0198 32.2429 27.0319 32.319C27.0449 32.3999 27.0294 32.473 26.9856 32.5382C26.9413 32.601 26.8759 32.6396 26.7894 32.654Z" fill="black"/>
  <path d="M28.8579 34.6856C28.656 34.7192 28.4689 34.7063 28.2965 34.6469C28.1262 34.5846 27.9844 34.4848 27.8711 34.3475C27.7578 34.2102 27.6857 34.0447 27.6547 33.8509C27.6233 33.6547 27.6401 33.4743 27.7051 33.3099C27.7698 33.143 27.8733 33.0036 28.0158 32.8917C28.1607 32.7794 28.3341 32.7065 28.536 32.6728C28.7235 32.6416 28.8944 32.6534 29.0488 32.7083C29.2052 32.7603 29.3326 32.8549 29.431 32.9922L29.1179 33.2559C29.0453 33.1723 28.9634 33.1154 28.8722 33.0853C28.7834 33.0547 28.6909 33.0474 28.5948 33.0635C28.4842 33.0819 28.3884 33.123 28.3073 33.1869C28.2262 33.2508 28.1679 33.3335 28.1323 33.4352C28.0964 33.5343 28.0886 33.6477 28.109 33.7752C28.1294 33.9028 28.1723 34.009 28.2377 34.0938C28.3027 34.1762 28.3836 34.2345 28.4803 34.2687C28.5771 34.3029 28.6808 34.3109 28.7914 34.2924C28.8875 34.2764 28.9729 34.2395 29.0476 34.1818C29.1246 34.1236 29.1845 34.0431 29.2273 33.9403L29.6064 34.0887C29.5554 34.2483 29.4643 34.3806 29.333 34.4855C29.2038 34.5876 29.0454 34.6543 28.8579 34.6856Z" fill="black"/>
  <path d="M30.0654 34.458L29.7512 32.4931L30.1802 32.4216L30.2667 32.9625L30.1909 32.8127C30.2274 32.6706 30.3015 32.555 30.4131 32.4659C30.5271 32.3764 30.6766 32.3162 30.8617 32.2854L30.9317 32.7233C30.9117 32.7216 30.8933 32.7221 30.8765 32.7249C30.8593 32.7253 30.8422 32.7269 30.8254 32.7297C30.6548 32.7581 30.5272 32.8322 30.4427 32.9521C30.3578 33.0695 30.3315 33.2287 30.3637 33.4299L30.5161 34.3829L30.0654 34.458Z" fill="black"/>
  <path d="M32.4136 34.0933C32.2165 34.1261 32.0342 34.1124 31.8666 34.0522C31.6987 33.9895 31.5581 33.8895 31.4448 33.7522C31.3315 33.6149 31.2594 33.4494 31.2284 33.2556C31.197 33.0594 31.2138 32.879 31.2788 32.7146C31.3435 32.5477 31.4458 32.4085 31.5859 32.297C31.726 32.1855 31.8946 32.1134 32.0917 32.0805C32.2912 32.0473 32.4747 32.0608 32.6423 32.121C32.8122 32.1809 32.9525 32.2784 33.0629 32.4136C33.1758 32.5484 33.2481 32.7152 33.2799 32.9139C33.3109 33.1077 33.2941 33.288 33.2295 33.4549C33.1673 33.6214 33.0651 33.7618 32.923 33.8762C32.7829 33.9877 32.6131 34.06 32.4136 34.0933ZM32.3506 33.6995C32.4612 33.6811 32.5558 33.6402 32.6345 33.5767C32.7132 33.5132 32.7691 33.4309 32.8023 33.3296C32.8378 33.228 32.8456 33.1147 32.8256 32.9896C32.8052 32.862 32.7625 32.757 32.6975 32.6747C32.6345 32.5895 32.5559 32.5296 32.4615 32.4949C32.3671 32.4603 32.2658 32.4519 32.1577 32.47C32.0471 32.4884 31.9525 32.5293 31.8738 32.5928C31.7975 32.6559 31.7416 32.7382 31.706 32.8398C31.6701 32.939 31.6623 33.0524 31.6827 33.1799C31.7027 33.305 31.7454 33.41 31.8108 33.4948C31.8762 33.5796 31.9548 33.6395 32.0468 33.6746C32.1412 33.7092 32.2425 33.7176 32.3506 33.6995Z" fill="black"/>
  <path d="M34.5507 33.7108L35.2745 30.9459L35.736 30.869L37.2872 33.255L36.7969 33.3366L35.4485 31.1776L35.636 31.1464L35.0338 33.6303L34.5507 33.7108ZM34.9782 33.0276L35.0443 32.6313L36.4072 32.4043L36.5934 32.7586L34.9782 33.0276Z" fill="black"/>
  <path d="M37.9934 33.1373L37.6462 30.9664L36.8097 31.1057L36.745 30.701L38.8866 30.3442L38.9513 30.749L38.1149 30.8883L38.4621 33.0593L37.9934 33.1373Z" fill="black"/>
  <path d="M39.6503 32.8613L39.2383 30.2856L39.6241 30.2214L41.0281 31.9178L40.8262 31.9515L41.6107 29.8904L41.9965 29.8262L42.412 32.4013L41.9685 32.4751L41.6666 30.6102L41.7603 30.5946L41.0886 32.3195L40.8795 32.3543L39.6908 30.9393L39.799 30.9213L40.0973 32.7868L39.6503 32.8613Z" fill="black"/>
  <defs>
    <linearGradient id="paint0_linear_1428_172" x1="40.0967" y1="35.0901" x2="20.6705" y2="6.03298" gradientUnits="userSpaceOnUse">
      <stop/>
      <stop offset="1" stop-opacity="0"/>
    </linearGradient>
    <linearGradient id="paint1_linear_1428_172" x1="26.7788" y1="63.2556" x2="97.0895" y2="40.2641" gradientUnits="userSpaceOnUse">
      <stop/>
      <stop offset="1" stop-opacity="0"/>
    </linearGradient>
    <linearGradient id="paint2_linear_1428_172" x1="48.6605" y1="61.0878" x2="21.3918" y2="31.9818" gradientUnits="userSpaceOnUse">
      <stop stop-color="#5C89E5"/>
      <stop offset="1" stop-color="#80AEFF"/>
    </linearGradient>
    <linearGradient id="paint3_linear_1428_172" x1="81.4095" y1="57.2934" x2="70.8821" y2="88.0817" gradientUnits="userSpaceOnUse">
      <stop stop-color="#5C89E5"/>
      <stop offset="1" stop-color="#80AEFF"/>
    </linearGradient>
    <linearGradient id="paint4_linear_1428_172" x1="90.1456" y1="81.6463" x2="71.2229" y2="66.3861" gradientUnits="userSpaceOnUse">
      <stop/>
      <stop offset="1" stop-opacity="0"/>
    </linearGradient>
    <linearGradient id="paint5_linear_1428_172" x1="86.8909" y1="59.1677" x2="76.3636" y2="89.9558" gradientUnits="userSpaceOnUse">
      <stop stop-color="#5C89E5"/>
      <stop offset="1" stop-color="#80AEFF"/>
    </linearGradient>
    <linearGradient id="paint6_linear_1428_172" x1="94.4513" y1="63.8921" x2="79.1496" y2="63.5892" gradientUnits="userSpaceOnUse">
      <stop/>
      <stop offset="1" stop-opacity="0"/>
    </linearGradient>
    <linearGradient id="paint7_linear_1428_172" x1="68.5984" y1="52.4032" x2="80.1613" y2="37.1261" gradientUnits="userSpaceOnUse">
      <stop stop-color="#FFD0B0"/>
      <stop offset="1" stop-color="#FF9271"/>
    </linearGradient>
    <linearGradient id="paint8_linear_1428_172" x1="97.8684" y1="55.5617" x2="63.7446" y2="51.7231" gradientUnits="userSpaceOnUse">
      <stop/>
      <stop offset="1" stop-opacity="0"/>
    </linearGradient>
    <linearGradient id="paint9_linear_1428_172" x1="96.6037" y1="62.8237" x2="87.3547" y2="58.1142" gradientUnits="userSpaceOnUse">
      <stop/>
      <stop offset="1" stop-opacity="0"/>
    </linearGradient>
    <linearGradient id="paint10_linear_1428_172" x1="74.2221" y1="52.3953" x2="73.8212" y2="52.1912" gradientUnits="userSpaceOnUse">
      <stop/>
      <stop offset="1" stop-opacity="0"/>
    </linearGradient>
    <linearGradient id="paint11_linear_1428_172" x1="81.9172" y1="60.2032" x2="78.9875" y2="49.5462" gradientUnits="userSpaceOnUse">
      <stop/>
      <stop offset="1" stop-opacity="0"/>
    </linearGradient>
    <linearGradient id="paint12_linear_1428_172" x1="86.7056" y1="73.824" x2="100.108" y2="58.7937" gradientUnits="userSpaceOnUse">
      <stop stop-color="#FFD0B0"/>
      <stop offset="1" stop-color="#FF9271"/>
    </linearGradient>
    <linearGradient id="paint13_linear_1428_172" x1="88.9433" y1="45.7827" x2="88.9031" y2="36.6535" gradientUnits="userSpaceOnUse">
      <stop stop-color="#FFD0B0"/>
      <stop offset="1" stop-color="#FF9271"/>
    </linearGradient>
    <linearGradient id="paint14_linear_1428_172" x1="83.0296" y1="42.5487" x2="89.4054" y2="44.3526" gradientUnits="userSpaceOnUse">
      <stop stop-color="#FFD0B0"/>
      <stop offset="1" stop-color="#FF9271"/>
    </linearGradient>
    <linearGradient id="paint15_linear_1428_172" x1="94.7082" y1="42.8978" x2="90.0072" y2="43.7508" gradientUnits="userSpaceOnUse">
      <stop stop-color="#FFD0B0"/>
      <stop offset="1" stop-color="#FF9271"/>
    </linearGradient>
    <linearGradient id="paint16_linear_1428_172" x1="88.9132" y1="48.3692" x2="89.3961" y2="42.6527" gradientUnits="userSpaceOnUse">
      <stop stop-color="#FFD0B0"/>
      <stop offset="1" stop-color="#FF9271"/>
    </linearGradient>
    <linearGradient id="paint17_linear_1428_172" x1="91.1161" y1="43.7405" x2="87.9484" y2="47.028" gradientUnits="userSpaceOnUse">
      <stop/>
      <stop offset="1" stop-opacity="0"/>
    </linearGradient>
    <linearGradient id="paint18_linear_1428_172" x1="89.308" y1="39.5831" x2="88.6243" y2="44.6962" gradientUnits="userSpaceOnUse">
      <stop/>
      <stop offset="1" stop-opacity="0"/>
    </linearGradient>
  </defs>
</svg>