<svg xmlns="http://www.w3.org/2000/svg" width="100" height="100" viewBox="0 0 100 100" fill="none">
  <path d="M49.9994 7.97706C66.7078 7.97706 81.0488 18.497 87.2248 33.5046L92.1486 28.3903C89.9052 23.6756 86.9052 19.3234 83.2205 15.4961C74.3478 6.2768 62.5502 1.20312 49.9994 1.20312C37.4518 1.20312 25.6509 6.2768 16.7782 15.4961C7.90554 24.7121 3.01758 36.9661 3.01758 49.9991H9.5392C9.5392 26.7917 27.653 7.97706 49.9994 7.97706Z" fill="#55CAF8"/>
  <path d="M90.4595 49.999C90.4595 73.2099 72.3457 92.0245 49.9994 92.0245C32.8899 92.0245 18.2619 80.9965 12.3468 65.4063L7.37402 70.5748C9.65985 75.6892 12.8261 80.4004 16.7782 84.5054C25.6509 93.7248 37.4518 98.7984 49.9994 98.7984C62.5502 98.7984 74.3479 93.7248 83.2205 84.5054C92.0932 75.2895 96.9812 63.0355 96.9812 49.999H90.4595Z" fill="#067FC0"/>
  <path d="M49.9992 14.7495C64.9305 14.7495 77.6379 24.8156 82.1671 38.7563L87.2246 33.5031C81.0487 18.4955 66.7076 7.97559 49.9992 7.97559C27.6529 7.97559 9.53906 26.7902 9.53906 49.9977H16.0607C16.0607 30.5633 31.2854 14.7495 49.9992 14.7495Z" fill="#067FC0"/>
  <path d="M83.9388 49.999C83.9388 69.4368 68.7141 85.2506 50.0003 85.2506C34.6581 85.2506 21.6605 74.6223 17.4769 60.0786L12.3477 65.4063C18.2628 80.9965 32.8908 92.0245 50.0003 92.0245C72.3466 92.0245 90.4604 73.2099 90.4604 49.999H83.9388Z" fill="#55CAF8"/>
  <path d="M9.45342 58.1983L0 48.5156H18.9068L9.45342 58.1983Z" fill="#55CAF8"/>
  <path d="M90.5472 41.8018L100.001 51.4844H81.0938L90.5472 41.8018Z" fill="#55CAF8"/>
  <path d="M90.5472 41.8018V49.8712L81.0938 51.4844L90.5472 41.8018Z" fill="#55CAF8"/>
  <path d="M81.0938 51.484L90.5472 49.8701L100.001 51.484H81.0938Z" fill="#067FC0"/>
  <path d="M9.45342 50.528L18.9068 48.5156H0L9.45342 50.528Z" fill="#55CAF8"/>
  <path d="M9.4541 58.1983V50.5271L18.9075 48.5156L9.4541 58.1983Z" fill="#067FC0"/>
  <path d="M90.4651 28.8401C90.4651 28.8401 90.4116 28.7361 90.3086 28.5349C90.2042 28.3341 90.0555 28.033 89.8452 27.6496C89.4344 26.8777 88.8021 25.7617 87.9288 24.39C87.0536 23.0203 85.9221 21.402 84.4809 19.6733C83.7612 18.8086 82.9656 17.9154 82.0904 17.0128C81.6583 16.5559 81.1894 16.1248 80.7143 15.656C80.4756 15.427 80.2389 15.1872 79.9904 14.96C79.7387 14.7385 79.4843 14.5146 79.227 14.2883C77.1721 12.477 74.7764 10.6988 72.0764 9.13677C69.3778 7.57097 66.37 6.22973 63.1539 5.19501C59.9338 4.17147 56.4868 3.531 52.9615 3.29289C52.0811 3.20754 51.1925 3.22346 50.304 3.19433L49.9704 3.18688L49.645 3.19501L48.97 3.21432C48.5203 3.22922 48.0674 3.23565 47.619 3.25699C45.8497 3.38536 44.0585 3.55505 42.2944 3.89848C40.5215 4.18536 38.7803 4.64565 37.0602 5.14557C36.6317 5.27562 36.2104 5.42973 35.7855 5.57029C35.3639 5.71999 34.9335 5.8426 34.5216 6.01805C33.6937 6.35403 32.8544 6.65514 32.0535 7.04362C28.8165 8.50984 25.7814 10.3256 23.0961 12.4374C20.4111 14.5478 18.017 16.8655 15.9702 19.276C13.9182 21.6757 12.2444 24.1905 10.8843 26.6135C9.53078 29.0437 8.48732 31.3891 7.6969 33.5216C7.50973 34.0587 7.30202 34.5698 7.14941 35.0799C6.98898 35.5876 6.83442 36.077 6.68572 36.5475C6.43171 37.5013 6.16791 38.3707 6.00128 39.1747C5.90998 39.5747 5.82357 39.9538 5.74204 40.3101C5.67259 40.6694 5.6077 41.0061 5.54705 41.319C5.42379 41.9456 5.32466 42.4798 5.26727 42.917C5.13684 43.7895 5.06738 44.2545 5.06738 44.2545C5.06738 44.2545 5.11858 43.7864 5.21444 42.9092C5.25455 42.4689 5.33281 41.9304 5.43161 41.2977C5.4802 40.981 5.5327 40.641 5.58846 40.2779C5.65955 39.9179 5.7352 39.5351 5.81509 39.1307C5.95889 38.3179 6.19791 37.4369 6.42551 36.4692C6.56116 35.9913 6.70235 35.4941 6.84876 34.9783C6.98767 34.4594 7.18137 33.9388 7.35452 33.3915C8.08494 31.2164 9.06872 28.8117 10.4053 26.3304C11.739 23.8501 13.387 21.2716 15.4315 18.7889C17.4624 16.306 19.8496 13.8877 22.5848 11.7332C25.3085 9.5642 28.3923 7.69189 31.6873 6.17453C32.5029 5.77317 33.3572 5.45954 34.2008 5.11136C34.6201 4.92982 35.0587 4.80145 35.4885 4.64565C35.9212 4.49933 36.3506 4.33947 36.7876 4.20365L38.1072 3.82058L38.7679 3.62888L39.4367 3.4697L40.7762 3.15369C41.2236 3.05208 41.6772 2.98197 42.1281 2.8973C43.9317 2.55894 45.7594 2.39535 47.5923 2.27613C48.0459 2.2575 48.4952 2.25377 48.9462 2.24192L49.6215 2.22702L49.9704 2.22058L50.3108 2.23006C51.2177 2.26495 52.1238 2.25547 53.0215 2.34793C56.6163 2.61313 60.1268 3.28917 63.4027 4.35301C66.6814 5.41076 69.7149 6.85429 72.4279 8.4946C75.1445 10.1363 77.5334 11.9788 79.5903 13.8609C79.8476 14.0963 80.1022 14.329 80.3543 14.5593C80.6012 14.7937 80.8314 15.0362 81.0668 15.2702C81.5269 15.7414 82.004 16.1942 82.4249 16.6718C83.2822 17.6106 84.0583 18.5366 84.758 19.4304C86.1592 21.2177 87.2493 22.8804 88.0876 24.2826C88.9302 25.6838 89.5068 26.8354 89.8915 27.6232C90.0869 28.0157 90.2238 28.3226 90.32 28.5278C90.4159 28.7341 90.4651 28.8401 90.4651 28.8401Z" fill="#55CAF8"/>
  <path d="M15.2627 67.8672C15.2627 67.8672 15.3087 67.9563 15.398 68.1294C15.4883 68.3018 15.6171 68.5605 15.7988 68.8897C16.1539 69.5526 16.7017 70.5101 17.4549 71.6877C18.2101 72.8633 19.1864 74.252 20.4285 75.7351C21.664 77.223 23.1813 78.7885 24.9529 80.3536C26.7202 81.9065 28.781 83.4313 31.1021 84.7695C33.4222 86.1108 36.0067 87.2596 38.7709 88.1396C41.5377 89.0148 44.4982 89.5455 47.5232 89.7572C48.2787 89.8317 49.0415 89.8188 49.8045 89.8449L50.0908 89.8517L50.3689 89.8452L50.9497 89.8293C51.3364 89.8171 51.7264 89.812 52.1115 89.7941C53.6284 89.6857 55.1662 89.5421 56.6815 89.2495C58.2037 89.0019 59.6978 88.6043 61.174 88.1734C61.5418 88.061 61.9034 87.9286 62.2676 87.8073C62.6293 87.6783 62.9987 87.5726 63.3519 87.4215C64.0621 87.1323 64.7824 86.8728 65.4691 86.5385C68.2427 85.2718 70.8569 83.7314 73.1656 81.9208C75.4759 80.1155 77.5348 78.1277 79.2962 76.0596C81.0617 74.0017 82.5029 71.8432 83.6745 69.7632C84.84 67.6769 85.7416 65.6637 86.4257 63.8323C86.7753 62.9189 87.0446 62.0423 87.3012 61.2335C87.5213 60.4142 87.7502 59.667 87.895 58.9761C87.9742 58.6323 88.0496 58.3068 88.1203 58.0006C88.181 57.6921 88.2377 57.4025 88.2906 57.1336C88.3985 56.5951 88.4852 56.1358 88.5354 55.7602C88.6499 55.0103 88.7109 54.6103 88.7109 54.6103C88.7109 54.6103 88.6681 55.013 88.5879 55.768C88.5547 56.147 88.4888 56.6103 88.4057 57.1549C88.3646 57.4276 88.3205 57.7202 88.2736 58.0328C88.2133 58.3427 88.1487 58.6723 88.0809 59.0201C87.9586 59.7199 87.7548 60.4782 87.5611 61.3117C87.3306 62.1348 87.0889 63.0283 86.7681 63.9627C86.144 65.8364 85.3023 67.9089 84.1536 70.0464C83.0084 72.1836 81.5928 74.4058 79.8346 76.5467C78.0891 78.6876 76.0354 80.7726 73.6844 82.6357C73.0984 83.1031 72.4815 83.539 71.8717 83.9939C71.2355 84.4078 70.6127 84.8562 69.9527 85.2498C69.2908 85.6396 68.6367 86.0552 67.9431 86.4037C67.5994 86.5843 67.255 86.7651 66.9097 86.9463C66.5566 87.1099 66.2025 87.2739 65.8474 87.4381C65.1443 87.7829 64.4074 88.0525 63.6799 88.3516C63.3183 88.5074 62.9403 88.6178 62.5699 88.7516C62.1969 88.8772 61.8265 89.0144 61.4498 89.1309C59.9381 89.5783 58.4072 89.9932 56.8469 90.251C55.2931 90.5443 53.7191 90.6876 52.1376 90.7922C51.7469 90.8088 51.3609 90.8126 50.9728 90.8231L50.3921 90.8366L50.0901 90.8424L49.7967 90.8346C49.0154 90.8054 48.2344 90.8146 47.4606 90.736C44.3615 90.5148 41.3384 89.9137 38.5182 88.9934C35.6959 88.0738 33.0847 86.8278 30.7503 85.4114C28.4126 83.9939 26.3586 82.4048 24.5893 80.781C24.3679 80.5782 24.1487 80.377 23.9322 80.1785C23.7199 79.9766 23.5223 79.7677 23.3202 79.5658C22.9256 79.1604 22.5147 78.7695 22.1534 78.357C21.4175 77.5468 20.7513 76.7482 20.151 75.9773C18.9487 74.4359 18.0142 73.0032 17.2955 71.7947C16.5729 70.5876 16.0812 69.5946 15.7518 68.9162C15.5849 68.5778 15.4678 68.3136 15.3856 68.1368C15.3048 67.9587 15.2627 67.8672 15.2627 67.8672Z" fill="#55CAF8"/>
  <path d="M91.6669 39.1457C83.0453 48.1008 69.0662 48.1008 60.4446 39.1457C58.674 37.3065 57.2653 35.2303 56.2251 33.0187C52.1882 24.4598 53.5937 13.8315 60.4446 6.71548C66.5521 0.371689 75.3465 -1.4776 83.0225 1.16762C84.8322 1.79083 86.5833 2.66467 88.2202 3.78914C89.4365 4.62572 90.5941 5.60116 91.6669 6.71548C92.2832 7.35561 92.8571 8.02624 93.3853 8.72056C100.243 17.7197 99.6722 30.8307 91.6669 39.1457Z" fill="#E28B00"/>
  <path d="M61.4534 38.1537C61.4534 38.1537 61.2737 37.9667 60.9369 37.6158C60.7644 37.4444 60.5661 37.2185 60.3359 36.9496C60.2205 36.8151 60.0962 36.6709 59.9635 36.5168C59.8389 36.3559 59.7066 36.1848 59.567 36.004C59.0133 35.2771 58.3758 34.3592 57.7687 33.2266C57.1559 32.0991 56.5602 30.7633 56.0994 29.2361C55.6312 27.7123 55.3107 25.9982 55.1835 24.1662C55.1303 23.25 55.1121 22.3037 55.1786 21.3401C55.2262 20.3751 55.3648 19.3953 55.5595 18.4124C55.9465 16.4449 56.6238 14.469 57.5766 12.6041C58.0488 11.6686 58.6099 10.7751 59.2119 9.90908C59.823 9.04845 60.5051 8.24067 61.2238 7.46946C61.9572 6.72975 62.7446 6.01272 63.5719 5.37901C64.4057 4.75378 65.2662 4.17123 66.1669 3.68046C67.9626 2.69079 69.8646 1.98731 71.7592 1.58528C73.6511 1.16597 75.5362 1.07385 77.299 1.19443C79.0631 1.32686 80.7134 1.65979 82.1804 2.14616C83.6504 2.62508 84.9368 3.24354 86.0223 3.88029C87.1127 4.51128 87.9964 5.17343 88.6962 5.74853C88.8703 5.89383 89.0346 6.03135 89.1898 6.16073C89.3408 6.29486 89.4768 6.42728 89.6062 6.54718C89.8652 6.7863 90.0826 6.99258 90.248 7.17175C90.5858 7.52196 90.7658 7.70858 90.7658 7.70858C90.7658 7.70858 90.5773 7.5311 90.2238 7.19884C90.051 7.02847 89.8244 6.83372 89.5557 6.60883C89.4217 6.49604 89.2779 6.37445 89.1243 6.24506C88.9658 6.12212 88.7972 5.99172 88.6195 5.85387C87.9048 5.30857 87.0061 4.68503 85.9072 4.10247C84.8119 3.51585 83.5255 2.95633 82.0744 2.51162C80.6237 2.06691 78.9988 1.77834 77.2725 1.68825C76.4091 1.65404 75.5199 1.65573 74.6173 1.74379C74.1647 1.77394 73.7117 1.84506 73.2526 1.90095C73.0237 1.93414 72.7958 1.98087 72.5656 2.02016C72.335 2.0581 72.1051 2.10382 71.8762 2.16073C70.0355 2.56581 68.1915 3.26386 66.4551 4.23761C65.5842 4.72025 64.7536 5.29265 63.9489 5.90467C63.1483 6.5272 62.4088 7.21238 61.6849 7.94769C60.9832 8.69012 60.3157 9.46844 59.7173 10.2989C59.1281 11.1348 58.577 11.9975 58.1123 12.9025C57.1749 14.706 56.5025 16.6214 56.1128 18.5333C55.9139 19.4884 55.7828 20.4419 55.7104 21.3801C55.6256 22.3179 55.6243 23.2415 55.657 24.1384C55.7437 25.9315 56.0215 27.6192 56.45 29.1264C56.8785 30.6336 57.4165 31.9701 57.9819 33.1074C58.5431 34.2488 59.1434 35.1823 59.6684 35.9244C59.8011 36.1093 59.927 36.2841 60.045 36.4487C60.1696 36.6082 60.2863 36.7572 60.3949 36.8964C60.6114 37.1755 60.7989 37.4109 60.9633 37.5908C61.2825 37.9579 61.4534 38.1537 61.4534 38.1537Z" fill="#FFCE00"/>
  <path d="M89.5696 8.98633C89.5696 8.98633 89.7346 9.15737 90.0437 9.47811C90.2018 9.63493 90.3838 9.8412 90.5958 10.0874C90.7021 10.2104 90.8159 10.3425 90.9375 10.4834C91.0519 10.6307 91.1732 10.7872 91.3017 10.9525C91.8101 11.6173 92.3957 12.4576 92.9536 13.4947C93.5168 14.5271 94.0649 15.7508 94.4885 17.1499C94.9189 18.546 95.2144 20.1173 95.3327 21.7972C95.4397 23.4758 95.3624 25.2712 94.992 27.0737C94.6375 28.8783 94.017 30.6907 93.1438 32.4014C92.7107 33.2597 92.1965 34.0793 91.6448 34.8739C91.0819 35.6661 90.465 36.3987 89.7942 37.1181C89.1339 37.784 88.4019 38.4506 87.6457 39.0287C86.8807 39.6018 86.0916 40.1359 85.2653 40.5857C83.6183 41.4927 81.8734 42.1373 80.136 42.5054C78.4006 42.8899 76.6721 42.9722 75.056 42.8601C73.4387 42.7371 71.926 42.4302 70.5819 41.9828C69.2345 41.5425 68.0564 40.9739 67.0625 40.3886C66.064 39.8087 65.2553 39.2004 64.6152 38.6724C64.4561 38.539 64.3055 38.413 64.1636 38.2941C64.028 38.1678 63.9011 38.0495 63.7827 37.9395C63.546 37.7197 63.3474 37.5307 63.1961 37.3657C62.8873 37.0443 62.7227 36.8729 62.7227 36.8729C62.7227 36.8729 62.8958 37.0348 63.2203 37.339C63.3791 37.4948 63.5868 37.6726 63.8336 37.8782C64.0752 38.0899 64.3635 38.3192 64.6922 38.5678C65.3473 39.066 66.1713 39.6353 67.1782 40.1671C68.1819 40.7026 69.36 41.2123 70.6882 41.6184C72.0163 42.0242 73.5036 42.2866 75.0831 42.3673C75.8732 42.3977 76.6868 42.3954 77.5127 42.3137C77.9265 42.2856 78.341 42.2203 78.761 42.1691C79.1774 42.0943 79.6013 42.0357 80.02 41.931C81.7035 41.5598 83.39 40.9207 84.978 40.0292C85.7746 39.5876 86.5341 39.0636 87.2701 38.5034C88.005 37.931 88.6715 37.3132 89.3462 36.628C89.9762 35.9611 90.5954 35.2407 91.1406 34.4841C91.68 33.7197 92.1841 32.9308 92.6096 32.1034C93.4676 30.4539 94.0832 28.7022 94.4402 26.9532C94.6225 26.0797 94.7425 25.2072 94.8097 24.3489C94.888 23.491 94.8902 22.646 94.8609 21.8253C94.7833 20.1843 94.5302 18.6399 94.1396 17.2604C93.7486 15.8808 93.2582 14.6564 92.7423 13.6143C92.2304 12.5684 91.6819 11.7128 91.2023 11.0324C90.9626 10.691 90.7422 10.3916 90.5384 10.1409C90.3408 9.88489 90.1692 9.66915 90.0192 9.50386C89.7258 9.16584 89.5696 8.98633 89.5696 8.98633Z" fill="#FFCE00"/>
  <path opacity="0.25" d="M83.0225 1.16762C82.3736 9.49617 78.4182 28.1855 56.2251 33.0187C52.1882 24.4598 53.5937 13.8315 60.4446 6.71548C66.5521 0.371689 75.3465 -1.4776 83.0225 1.16762Z" fill="white"/>
  <path opacity="0.25" d="M93.3851 8.72048C84.845 31.4673 63.6465 33.5876 63.6465 33.5876C79.4516 28.9203 85.8004 13.1439 88.22 3.78906C89.4363 4.62564 90.5938 5.60108 91.6666 6.7154C92.2829 7.35553 92.8568 8.02616 93.3851 8.72048Z" fill="white"/>
  <path d="M94.2233 22.9293C94.2233 33.3544 86.0875 41.8015 76.054 41.8015C69.4411 41.8015 63.6499 38.13 60.4739 32.6432C58.8304 29.8049 57.8848 26.4823 57.8848 22.9293C57.8848 12.5076 66.0205 4.06055 76.054 4.06055C78.4801 4.06055 80.7985 4.55505 82.9148 5.4526C84.5615 6.15031 86.0875 7.09188 87.4506 8.23329C89.231 9.72356 90.7342 11.5559 91.8689 13.6355C93.3689 16.3789 94.2233 19.5491 94.2233 22.9293Z" fill="#FFCE00"/>
  <path opacity="0.25" d="M82.9148 5.4526C81.5159 14.0216 76.6964 27.4035 60.4739 32.6432C58.8304 29.8049 57.8848 26.4823 57.8848 22.9293C57.8848 12.5076 66.0205 4.06055 76.054 4.06055C78.4801 4.06055 80.7985 4.55505 82.9148 5.4526Z" fill="white"/>
  <path opacity="0.25" d="M91.8689 13.6356C82.468 32.4163 63.9727 34.2656 63.9727 34.2656C77.8083 30.1809 84.3984 17.5848 87.4505 8.2334C89.2309 9.72366 90.7341 11.556 91.8689 13.6356Z" fill="white"/>
  <path d="M89.2049 9.91322C85.9506 6.70238 81.5452 4.73794 76.7062 4.73794C66.6727 4.73794 58.5402 13.185 58.5402 23.6067C58.5402 28.6567 60.4478 33.2426 63.5586 36.6262C60.063 33.1918 57.8848 28.3248 57.8848 22.9293C57.8848 12.5076 66.0205 4.06055 76.054 4.06055C81.2289 4.06055 85.8951 6.3061 89.2049 9.91322Z" fill="#BC6F00"/>
  <path d="M82.6866 20.1652H86.5764L87.2289 17.7943L86.5764 17.1166L82.4596 17.7943C82.263 17.1369 81.963 16.5266 81.5737 15.9881H86.2497L87.2279 13.6172L86.5754 12.9395L66.3584 15.3103L67.0109 15.9881H77.0118C78.2871 15.9881 79.4 16.7176 79.9889 17.7943L66.6848 19.4875L67.3373 20.1652H80.3796C80.0956 21.8306 78.695 23.1007 77.0115 23.1007H67.9888V25.9627L78.1267 36.4894H81.3516L70.7442 25.4716H77.0115C79.9566 25.4712 82.3866 23.1427 82.6866 20.1652Z" fill="#BC6F00"/>
  <path d="M86.5767 17.1166L85.9246 19.4874H82.0344C81.7801 22.0073 80.0029 24.0598 77.6747 24.6356H77.6715C77.2508 24.7406 76.8106 24.7948 76.3574 24.7948H70.0901L71.2216 25.9701L73.602 28.4426L74.9715 29.8651L80.6975 35.8126H77.4726L72.7607 30.9218L71.7042 29.8211L69.3694 27.3994L67.3347 25.2859V22.4239H76.3574C78.0432 22.4239 79.4421 21.1538 79.7258 19.4874H66.6858L67.3379 17.1166H79.3377C79.1943 16.8558 79.0214 16.6187 78.8258 16.4053C78.203 15.7313 77.3291 15.3113 76.3574 15.3113H66.3564L67.3347 12.9404H86.5735L85.5952 15.3113H80.9192C81.3105 15.8498 81.6105 16.4595 81.8062 17.1166H86.5767Z" fill="#E28B00"/>
  <path opacity="0.25" d="M67.335 22.4229H74.8022C74.1077 23.2357 73.3577 24.0283 72.5457 24.7937C72.1218 25.1934 71.6816 25.5863 71.2218 25.969C70.6349 26.4601 70.0186 26.9377 69.3697 27.3983L67.335 25.2848V22.4229Z" fill="white"/>
  <path opacity="0.25" d="M67.3377 17.1162H78.4473C78.0103 17.9125 77.5343 18.7054 77.0125 19.4881H66.6855L67.3377 17.1162Z" fill="white"/>
  <path opacity="0.25" d="M80.3877 12.9404C79.941 14.0886 79.4258 15.247 78.8258 16.4053C78.203 15.7313 77.3291 15.3113 76.3574 15.3113H66.3564L67.3347 12.9404H80.3877Z" fill="white"/>
  <path opacity="0.25" d="M74.9714 29.8665C74.2149 30.2562 73.4747 30.6086 72.7606 30.9237L71.7041 29.8224C72.3595 29.3853 72.9921 28.9245 73.6019 28.4434L74.9714 29.8665Z" fill="white"/>
  <path opacity="0.25" d="M85.5943 15.3123H83.9541C84.3519 14.5194 84.7237 13.7265 85.0693 12.9404H86.5725L85.5943 15.3123Z" fill="white"/>
  <path opacity="0.25" d="M86.5758 17.1162L85.9237 19.4871H82.0335C81.7792 22.007 80.002 24.0595 77.6738 24.6353C79.7966 22.2915 81.5509 19.7208 82.9987 17.1162H86.5758Z" fill="white"/>
  <path d="M39.5507 93.2843C30.9291 102.239 16.95 102.239 8.32841 93.2843C6.55779 91.4452 5.14912 89.369 4.10892 87.1573C0.0720339 78.5985 1.47744 67.9702 8.32841 60.8541C14.4359 54.5104 23.2303 52.6611 30.9063 55.3063C32.716 55.9295 34.4671 56.8033 36.104 57.9278C37.3203 58.7644 38.4779 59.7398 39.5507 60.8541C40.167 61.4943 40.7409 62.1649 41.2691 62.8592C48.1266 71.8584 47.556 84.9693 39.5507 93.2843Z" fill="#E28B00"/>
  <path d="M9.33716 92.2923C9.33716 92.2923 9.15749 92.1054 8.82065 91.7545C8.64815 91.5831 8.44989 91.3572 8.21968 91.0883C8.10425 90.9538 7.98001 90.8095 7.84729 90.6554C7.72273 90.4945 7.59034 90.3235 7.45078 90.1426C6.89709 89.4158 6.2596 88.4979 5.65244 87.3653C5.03973 86.2378 4.44398 84.902 3.98323 83.3748C3.51498 81.851 3.19444 80.1369 3.06727 78.3049C3.01412 77.3887 2.99586 76.4424 3.06238 75.4788C3.10998 74.5138 3.24857 73.534 3.44324 72.5511C3.8303 70.5836 4.50757 68.6076 5.46038 66.7428C5.93255 65.8073 6.49373 64.9138 7.09568 64.0478C7.70675 63.1871 8.38891 62.3793 9.1076 61.6081C9.84095 60.8684 10.6284 60.1514 11.4557 59.5177C12.2895 58.8925 13.15 58.3099 14.0507 57.8191C15.8464 56.8295 17.7484 56.126 19.643 55.7239C21.5349 55.3046 23.42 55.2125 25.1827 55.3331C26.9468 55.4655 28.5971 55.7985 30.0642 56.2848C31.5342 56.7638 32.8205 57.3822 33.9061 58.019C34.9965 58.65 35.8802 59.3121 36.5799 59.8872C36.7541 60.0325 36.9184 60.17 37.0736 60.2994C37.2246 60.4335 37.3606 60.566 37.49 60.6859C37.7489 60.925 37.9664 61.1312 38.1318 61.3104C38.4696 61.6606 38.6496 61.8472 38.6496 61.8472C38.6496 61.8472 38.4611 61.6698 38.1076 61.3375C37.9348 61.1671 37.7082 60.9724 37.4395 60.7475C37.3055 60.6347 37.1617 60.5131 37.0081 60.3837C36.8496 60.2608 36.681 60.1304 36.5033 59.9925C35.7885 59.4472 34.8899 58.8237 33.791 58.2411C32.6957 57.6545 31.4093 57.095 29.9582 56.6503C28.5075 56.2056 26.8826 55.917 25.1563 55.8269C24.2929 55.7927 23.4037 55.7944 22.5011 55.8825C22.0485 55.9126 21.5955 55.9837 21.1364 56.0396C20.9075 56.0728 20.6796 56.1195 20.4494 56.1588C20.2188 56.1968 19.9889 56.2425 19.76 56.2994C17.9193 56.7045 16.0753 57.4025 14.3389 58.3763C13.468 58.8589 12.6374 59.4313 11.8327 60.0433C11.0321 60.6659 10.2926 61.3511 9.56868 62.0864C8.86695 62.8288 8.19946 63.6071 7.6011 64.4376C7.01187 65.2735 6.4608 66.1362 5.99613 67.0412C5.05865 68.8447 4.38627 70.76 3.9966 72.672C3.79769 73.6271 3.66661 74.5805 3.59422 75.5187C3.50944 76.4566 3.50813 77.3802 3.54074 78.2771C3.62748 80.0701 3.9053 81.7579 4.33377 83.2651C4.76224 84.7723 5.30027 86.1088 5.8657 87.2461C6.42688 88.3875 7.0272 89.321 7.55219 90.063C7.68491 90.248 7.81077 90.4227 7.92881 90.5873C8.05338 90.7469 8.17011 90.8959 8.2787 91.0351C8.49522 91.3142 8.68271 91.5496 8.84706 91.7294C9.16629 92.0966 9.33716 92.2923 9.33716 92.2923Z" fill="#FFCE00"/>
  <path d="M37.4534 63.125C37.4534 63.125 37.6184 63.296 37.9275 63.6168C38.0856 63.7736 38.2676 63.9799 38.4795 64.2261C38.5858 64.3491 38.6996 64.4811 38.8213 64.622C38.9357 64.7694 39.057 64.9259 39.1855 65.0911C39.6939 65.756 40.2795 66.5963 40.8374 67.6334C41.4006 68.6657 41.9487 69.8894 42.3723 71.2886C42.8027 72.6847 43.0982 74.2559 43.2165 75.9359C43.3235 77.6144 43.2462 79.4099 42.8758 81.2124C42.5213 83.017 41.9008 84.8294 41.0275 86.5401C40.5945 87.3984 40.0803 88.218 39.5285 89.0126C38.9657 89.8048 38.3488 90.5374 37.678 91.2568C37.0177 91.9227 36.2857 92.5892 35.5295 93.1674C34.7645 93.7405 33.9754 94.2746 33.1491 94.7244C31.5021 95.6314 29.7572 96.2759 28.0198 96.6441C26.2844 97.0285 24.5559 97.1108 22.9398 96.9987C21.3225 96.8758 19.8098 96.5689 18.4657 96.1215C17.1183 95.6812 15.9402 95.1125 14.9463 94.5273C13.9478 93.9474 13.1391 93.3391 12.499 92.8111C12.3399 92.6776 12.1892 92.5516 12.0474 92.4328C11.9118 92.3064 11.7849 92.1882 11.6665 92.0781C11.4298 91.8583 11.2312 91.6693 11.0799 91.5044C10.7711 91.183 10.6064 91.0116 10.6064 91.0116C10.6064 91.0116 10.7796 91.1735 11.104 91.4776C11.2628 91.6334 11.4706 91.8113 11.7174 92.0168C11.959 92.2285 12.2473 92.4578 12.576 92.7064C13.2311 93.2047 14.0551 93.774 15.062 94.3057C16.0657 94.8412 17.2438 95.351 18.572 95.7571C19.9001 96.1628 21.3873 96.4253 22.9669 96.5059C23.757 96.5364 24.5705 96.534 25.3965 96.4524C25.8103 96.4243 26.2248 96.3589 26.6447 96.3078C27.0612 96.2329 27.4851 96.1743 27.9038 96.0697C29.5873 95.6985 31.2738 95.0594 32.8618 94.1679C33.6584 93.7262 34.4179 93.2023 35.1538 92.6421C35.8888 92.0697 36.5553 91.4519 37.23 90.7667C37.86 90.0998 38.4792 89.3794 39.0244 88.6228C39.5638 87.8583 40.0679 87.0695 40.4934 86.2421C41.3513 84.5926 41.967 82.8409 42.324 81.0918C42.5063 80.2183 42.6263 79.3459 42.6935 78.4876C42.7717 77.6297 42.774 76.7846 42.7447 75.964C42.6671 74.323 42.414 72.7785 42.0234 71.399C41.6324 70.0195 41.142 68.7951 40.6261 67.753C40.1142 66.7071 39.5657 65.8515 39.0861 65.1711C38.8464 64.8297 38.6259 64.5303 38.4221 64.2796C38.2245 64.0236 38.053 63.8078 37.903 63.6425C37.6096 63.3045 37.4534 63.125 37.4534 63.125Z" fill="#FFCE00"/>
  <path opacity="0.25" d="M30.9063 55.3063C30.2574 63.6348 26.302 82.3241 4.10892 87.1573C0.0720338 78.5985 1.47744 67.9702 8.32841 60.8541C14.4359 54.5104 23.2303 52.6611 30.9063 55.3063Z" fill="white"/>
  <path opacity="0.25" d="M41.2689 62.8592C32.7288 85.606 11.5303 87.7263 11.5303 87.7263C27.3354 83.059 33.6842 67.2825 36.1038 57.9277C37.32 58.7643 38.4776 59.7398 39.5504 60.8541C40.1667 61.4942 40.7406 62.1648 41.2689 62.8592Z" fill="white"/>
  <path d="M42.107 77.0682C42.107 87.4933 33.9713 95.9404 23.9378 95.9404C17.3249 95.9404 11.5337 92.2689 8.35764 86.782C6.71419 83.9437 5.76855 80.6211 5.76855 77.0682C5.76855 66.6465 13.9043 58.1994 23.9378 58.1994C26.3638 58.1994 28.6823 58.6939 30.7985 59.5915C32.4453 60.2892 33.9713 61.2307 35.3343 62.3721C37.1147 63.8624 38.618 65.6948 39.7527 67.7744C41.2527 70.5178 42.107 73.688 42.107 77.0682Z" fill="#FFCE00"/>
  <path opacity="0.25" d="M30.7986 59.5915C29.3997 68.1605 24.5802 81.5424 8.35764 86.782C6.71419 83.9437 5.76855 80.6211 5.76855 77.0682C5.76855 66.6465 13.9043 58.1994 23.9378 58.1994C26.3638 58.1994 28.6823 58.6939 30.7986 59.5915Z" fill="white"/>
  <path opacity="0.25" d="M39.7527 67.7743C30.3518 86.555 11.8564 88.4043 11.8564 88.4043C25.6921 84.3196 32.2822 71.7235 35.3343 62.3721C37.1147 63.8623 38.6179 65.6947 39.7527 67.7743Z" fill="white"/>
  <path d="M37.0887 64.0521C33.8344 60.8412 29.429 58.8768 24.59 58.8768C14.5564 58.8768 6.42398 67.3239 6.42398 77.7456C6.42398 82.7955 8.33155 87.3815 11.4424 90.7651C7.94678 87.3307 5.76855 82.4636 5.76855 77.0682C5.76855 66.6465 13.9043 58.1994 23.9378 58.1994C29.1127 58.1994 33.7789 60.445 37.0887 64.0521Z" fill="#BC6F00"/>
  <path d="M30.5704 74.3039H34.4602L35.1127 71.933L34.4602 71.2553L30.3434 71.933C30.1468 71.2756 29.8468 70.6653 29.4575 70.1267H34.1335L35.1117 67.7559L34.4592 67.0781L14.2422 69.449L14.8947 70.1267H24.8956C26.1709 70.1267 27.2838 70.8563 27.8727 71.933L14.5686 73.6261L15.2211 74.3039H28.2634C27.9793 75.9693 26.5788 77.2394 24.8953 77.2394H15.8726V80.1013L26.0105 90.628H29.2354L18.628 79.6102H24.8953C27.8404 79.6099 30.2704 77.2814 30.5704 74.3039Z" fill="#BC6F00"/>
  <path d="M34.4605 71.2552L33.8084 73.6261H29.9182C29.6639 76.146 27.8867 78.1985 25.5585 78.7743H25.5553C25.1346 78.8793 24.6944 78.9335 24.2411 78.9335H17.9739L19.1054 80.1088L21.4858 82.5813L22.8553 84.0038L28.5813 89.9513H25.3563L20.6445 85.0605L19.588 83.9597L17.2532 81.5381L15.2185 79.4246V76.5626H24.2411C25.927 76.5626 27.3259 75.2925 27.6096 73.6261H14.5696L15.2217 71.2552H27.2215C27.0781 70.9944 26.9052 70.7574 26.7096 70.544C26.0868 69.87 25.2129 69.45 24.2411 69.45H14.2402L15.2185 67.0791H34.4573L33.479 69.45H28.803C29.1943 69.9885 29.4943 70.5982 29.69 71.2552H34.4605Z" fill="#E28B00"/>
  <path opacity="0.25" d="M15.2188 76.5615H22.686C21.9915 77.3744 21.2415 78.1669 20.4295 78.9324C20.0056 79.3321 19.5654 79.725 19.1056 80.1077C18.5187 80.5988 17.9024 81.0763 17.2535 81.537L15.2188 79.4235V76.5615Z" fill="white"/>
  <path opacity="0.25" d="M15.2215 71.2547H26.3311C25.8941 72.051 25.4181 72.8439 24.8963 73.6266H14.5693L15.2215 71.2547Z" fill="white"/>
  <path opacity="0.25" d="M28.2715 67.0791C27.8248 68.2273 27.3096 69.3856 26.7096 70.544C26.0868 69.87 25.2129 69.45 24.2411 69.45H14.2402L15.2185 67.0791H28.2715Z" fill="white"/>
  <path opacity="0.25" d="M22.8552 84.0052C22.0987 84.3948 21.3585 84.7472 20.6444 85.0624L19.5879 83.9611C20.2433 83.524 20.8759 83.0632 21.4857 82.582L22.8552 84.0052Z" fill="white"/>
  <path opacity="0.25" d="M33.4781 69.451H31.8379C32.2357 68.6581 32.6074 67.8652 32.9531 67.0791H34.4563L33.4781 69.451Z" fill="white"/>
  <path opacity="0.25" d="M34.4596 71.2549L33.8075 73.6258H29.9173C29.663 76.1457 27.8858 78.1982 25.5576 78.7739C27.6804 76.4302 29.4347 73.8595 30.8825 71.2549H34.4596Z" fill="white"/>
</svg>