<svg xmlns="http://www.w3.org/2000/svg" width="120" height="100" viewBox="0 0 120 100" fill="none">
  <g clip-path="url(#clip0_1428_442)">
    <path d="M114.097 81.1978C112.035 76.9678 108.449 73.2709 106.399 68.5977C105.42 66.3629 104.985 63.9612 105.353 61.5507C105.762 58.873 107.183 56.5416 108.688 54.2968C114.546 45.5589 117.864 31.4236 106.608 25.1736C102.836 23.0791 98.1668 21.7465 93.8362 21.1597C90.9648 20.7705 87.9779 20.9164 85.1942 20.0636C76.907 17.5241 63.0083 5.2013 54.6662 14.3036C48.6613 20.8558 50.2484 33.8996 39.3073 35.6905C36.1195 36.2123 32.8535 36.2389 29.6491 36.6731C26.0538 37.1602 22.4892 37.9174 19.0977 39.1709C12.443 41.6306 5.85238 46.7456 4.27453 53.7062C2.85848 59.9528 7.24844 65.4574 9.95137 70.7562C11.1687 73.1424 12.1523 75.6468 12.4159 78.3061C12.7283 81.4558 11.942 84.6116 12.224 87.7683C12.5319 91.2134 11.6229 92.3898 11.6229 95.2052C11.6229 97.608 13.0815 100 13.0815 100H112.148C118.428 93.0673 115.457 83.9882 114.097 81.1978Z" fill="#E8FAF5"/>
    <path d="M70.9174 0H36.0474C30.624 0 26.2275 4.41665 26.2275 9.86485V89.9119C26.2275 95.3601 30.624 99.7767 36.0474 99.7767H70.9174C76.3408 99.7767 80.7373 95.3601 80.7373 89.9119V9.86485C80.7373 4.41665 76.3408 0 70.9174 0Z" fill="#3F3D56"/>
    <path d="M79.8174 9.86553V89.912C79.8147 92.2825 78.8761 94.5552 77.2075 96.2314C75.5389 97.9076 73.2767 98.8505 70.9169 98.8533H36.0474C33.6877 98.8505 31.4254 97.9076 29.7569 96.2314C28.0883 94.5552 27.1497 92.2825 27.147 89.912V9.86553C27.1497 7.495 28.0883 5.22235 29.7569 3.54613C31.4254 1.86991 33.6877 0.927 36.0474 0.924255H40.6072V2.50658C40.6072 3.22292 40.8905 3.90991 41.3947 4.41644C41.899 4.92297 42.5828 5.20756 43.2959 5.2076H63.6685C64.3816 5.20756 65.0654 4.92297 65.5696 4.41644C66.0739 3.90991 66.3571 3.22292 66.3572 2.50658V0.924255H70.9169C73.2767 0.927 75.5389 1.86991 77.2075 3.54613C78.8761 5.22235 79.8147 7.495 79.8174 9.86553Z" fill="white"/>
    <path d="M25.9765 20.2409C25.7992 20.2407 25.6292 20.1698 25.5038 20.0439C25.3784 19.9179 25.3078 19.7471 25.3076 19.569V18.2252C25.3076 18.047 25.3781 17.8761 25.5035 17.7501C25.629 17.6241 25.7991 17.5533 25.9765 17.5533C26.1539 17.5533 26.324 17.6241 26.4495 17.7501C26.5749 17.8761 26.6454 18.047 26.6454 18.2252V19.569C26.6452 19.7471 26.5747 19.9179 26.4493 20.0439C26.3239 20.1698 26.1539 20.2407 25.9765 20.2409Z" fill="#3F3D56"/>
    <path d="M25.9765 27.1315C25.7992 27.1313 25.6292 27.0604 25.5038 26.9344C25.3784 26.8085 25.3078 26.6377 25.3076 26.4596V22.7605C25.3076 22.5823 25.3781 22.4114 25.5035 22.2854C25.629 22.1594 25.7991 22.0886 25.9765 22.0886C26.1539 22.0886 26.324 22.1594 26.4495 22.2854C26.5749 22.4114 26.6454 22.5823 26.6454 22.7605V26.4596C26.6452 26.6377 26.5747 26.8085 26.4493 26.9344C26.3239 27.0604 26.1539 27.1313 25.9765 27.1315Z" fill="#3F3D56"/>
    <path d="M25.9765 32.671C25.7992 32.6708 25.6292 32.6 25.5038 32.474C25.3784 32.348 25.3078 32.1772 25.3076 31.9991V28.3001C25.3076 28.1219 25.3781 27.951 25.5035 27.825C25.629 27.699 25.7991 27.6282 25.9765 27.6282C26.1539 27.6282 26.324 27.699 26.4495 27.825C26.5749 27.951 26.6454 28.1219 26.6454 28.3001V31.9991C26.6452 32.1772 26.5747 32.348 26.4493 32.474C26.3239 32.6 26.1539 32.6708 25.9765 32.671Z" fill="#3F3D56"/>
    <path d="M80.8207 29.6475C80.6434 29.6473 80.4734 29.5764 80.348 29.4504C80.2226 29.3245 80.1521 29.1537 80.1519 28.9756V19.9497C80.1519 19.7715 80.2223 19.6006 80.3478 19.4746C80.4732 19.3486 80.6433 19.2778 80.8207 19.2778C80.9982 19.2778 81.1683 19.3486 81.2937 19.4746C81.4192 19.6006 81.4896 19.7715 81.4896 19.9497V28.9756C81.4894 29.1537 81.4189 29.3245 81.2935 29.4504C81.1681 29.5764 80.9981 29.6473 80.8207 29.6475Z" fill="#3F3D56"/>
    <path d="M54.9188 3.08163H49.7354C49.6245 3.08163 49.5182 3.03739 49.4398 2.95863C49.3614 2.87988 49.3174 2.77307 49.3174 2.6617C49.3174 2.55032 49.3614 2.44351 49.4398 2.36476C49.5182 2.286 49.6245 2.24176 49.7354 2.24176H54.9188C55.0297 2.24176 55.136 2.286 55.2144 2.36476C55.2928 2.44351 55.3369 2.55032 55.3369 2.6617C55.3369 2.77307 55.2928 2.87988 55.2144 2.95863C55.136 3.03739 55.0297 3.08163 54.9188 3.08163Z" fill="white"/>
    <path d="M57.5942 2.99764C57.7789 2.99764 57.9287 2.84723 57.9287 2.66169C57.9287 2.47615 57.7789 2.32574 57.5942 2.32574C57.4095 2.32574 57.2598 2.47615 57.2598 2.66169C57.2598 2.84723 57.4095 2.99764 57.5942 2.99764Z" fill="white"/>
    <path d="M38.6153 4.88354H34.1007C33.879 4.88354 33.6663 4.79505 33.5095 4.63755C33.3527 4.48004 33.2646 4.26642 33.2646 4.04367C33.2646 3.82092 33.3527 3.60729 33.5095 3.44979C33.6663 3.29228 33.879 3.2038 34.1007 3.2038H38.6153C38.837 3.2038 39.0497 3.29228 39.2065 3.44979C39.3633 3.60729 39.4513 3.82092 39.4513 4.04367C39.4513 4.26642 39.3633 4.48004 39.2065 4.63755C39.0497 4.79505 38.837 4.88354 38.6153 4.88354Z" fill="#E6E6E6"/>
    <path d="M55.7398 40.0946H51.2252C51.0035 40.0946 50.7908 40.0061 50.634 39.8486C50.4772 39.6911 50.3892 39.4775 50.3892 39.2548C50.3892 39.032 50.4772 38.8184 50.634 38.6609C50.7908 38.5034 51.0035 38.4149 51.2252 38.4149H55.7398C55.9615 38.4149 56.1742 38.5034 56.331 38.6609C56.4878 38.8184 56.5758 39.032 56.5758 39.2548C56.5758 39.4775 56.4878 39.6911 56.331 39.8486C56.1742 40.0061 55.9615 40.0946 55.7398 40.0946Z" fill="#E6E6E6"/>
    <path d="M68.211 4.79955C68.6266 4.79955 68.9635 4.46113 68.9635 4.04367C68.9635 3.6262 68.6266 3.28778 68.211 3.28778C67.7954 3.28778 67.4585 3.6262 67.4585 4.04367C67.4585 4.46113 67.7954 4.79955 68.211 4.79955Z" fill="#E6E6E6"/>
    <path d="M70.5518 4.79955C70.9674 4.79955 71.3043 4.46113 71.3043 4.04367C71.3043 3.6262 70.9674 3.28778 70.5518 3.28778C70.1362 3.28778 69.7993 3.6262 69.7993 4.04367C69.7993 4.46113 70.1362 4.79955 70.5518 4.79955Z" fill="#E6E6E6"/>
    <path d="M72.8926 4.79955C73.3082 4.79955 73.6451 4.46113 73.6451 4.04367C73.6451 3.6262 73.3082 3.28778 72.8926 3.28778C72.477 3.28778 72.1401 3.6262 72.1401 4.04367C72.1401 4.46113 72.477 4.79955 72.8926 4.79955Z" fill="#E6E6E6"/>
    <path d="M67.9129 51.8528H36.6898C35.8859 51.8519 35.1152 51.5307 34.5468 50.9597C33.9784 50.3886 33.6586 49.6144 33.6577 48.8068V45.6603C33.6586 44.8527 33.9784 44.0785 34.5468 43.5074C35.1152 42.9364 35.8859 42.6152 36.6898 42.6143H67.9129C68.7168 42.6152 69.4875 42.9364 70.056 43.5074C70.6244 44.0785 70.9441 44.8527 70.945 45.6603V48.8068C70.9441 49.6144 70.6244 50.3886 70.056 50.9597C69.4875 51.5307 68.7168 51.8519 67.9129 51.8528ZM36.6898 42.9502C35.9746 42.951 35.2889 43.2368 34.7832 43.7449C34.2774 44.2529 33.993 44.9418 33.9921 45.6603V48.8068C33.993 49.5253 34.2774 50.2142 34.7832 50.7222C35.2889 51.2303 35.9746 51.5161 36.6898 51.5169H67.9129C68.6282 51.5161 69.3139 51.2303 69.8196 50.7222C70.3253 50.2142 70.6098 49.5253 70.6106 48.8068V45.6603C70.6098 44.9418 70.3253 44.2529 69.8196 43.7449C69.3139 43.2368 68.6282 42.951 67.9129 42.9502H36.6898Z" fill="#E6E6E6"/>
    <path d="M55.7398 63.443H51.2252C51.0035 63.443 50.7908 63.3546 50.634 63.1971C50.4772 63.0395 50.3892 62.8259 50.3892 62.6032C50.3892 62.3804 50.4772 62.1668 50.634 62.0093C50.7908 61.8518 51.0035 61.7633 51.2252 61.7633H55.7398C55.9615 61.7633 56.1742 61.8518 56.331 62.0093C56.4878 62.1668 56.5758 62.3804 56.5758 62.6032C56.5758 62.8259 56.4878 63.0395 56.331 63.1971C56.1742 63.3546 55.9615 63.443 55.7398 63.443Z" fill="#E6E6E6"/>
    <path d="M56.7768 87.7993H50.1879C50.0275 87.7995 49.8687 87.768 49.7205 87.7064C49.5723 87.6449 49.4377 87.5547 49.3242 87.4408C49.2107 87.327 49.1207 87.1918 49.0593 87.043C48.9979 86.8942 48.9663 86.7347 48.9663 86.5736C48.9663 86.4125 48.9979 86.253 49.0593 86.1042C49.1207 85.9554 49.2107 85.8202 49.3242 85.7063C49.4377 85.5925 49.5723 85.5022 49.7205 85.4407C49.8687 85.3792 50.0275 85.3476 50.1879 85.3478H56.7768C57.1004 85.3478 57.4108 85.477 57.6396 85.7068C57.8684 85.9367 57.997 86.2485 57.997 86.5736C57.997 86.8987 57.8684 87.2104 57.6396 87.4403C57.4108 87.6702 57.1004 87.7993 56.7768 87.7993Z" fill="#067FC0"/>
    <path d="M67.9129 75.2013H36.6898C35.8859 75.2004 35.1152 74.8791 34.5468 74.3081C33.9784 73.7371 33.6586 72.9628 33.6577 72.1553V69.0087C33.6586 68.2011 33.9784 67.4269 34.5468 66.8558C35.1152 66.2848 35.8859 65.9636 36.6898 65.9627H67.9129C68.7168 65.9636 69.4875 66.2848 70.056 66.8558C70.6244 67.4269 70.9441 68.2011 70.945 69.0087V72.1553C70.9441 72.9628 70.6244 73.7371 70.056 74.3081C69.4875 74.8791 68.7168 75.2004 67.9129 75.2013ZM36.6898 66.2986C35.9746 66.2994 35.2889 66.5852 34.7832 67.0933C34.2774 67.6014 33.993 68.2902 33.9921 69.0087V72.1553C33.993 72.8738 34.2774 73.5626 34.7832 74.0706C35.2889 74.5787 35.9746 74.8645 36.6898 74.8653H67.9129C68.6282 74.8645 69.3139 74.5787 69.8196 74.0707C70.3253 73.5626 70.6098 72.8738 70.6106 72.1553V69.0087C70.6098 68.2902 70.3253 67.6013 69.8196 67.0933C69.3139 66.5852 68.6282 66.2994 67.9129 66.2986H36.6898Z" fill="#E6E6E6"/>
    <path d="M73.6448 32.503H33.2642V32.839H73.6448V32.503Z" fill="#E6E6E6"/>
    <path d="M72.5951 45.8343C72.6344 46.1151 72.7812 46.3694 73.0042 46.5432C73.2273 46.7169 73.509 46.7964 73.7895 46.7646C73.8464 46.7572 73.9026 46.7452 73.9575 46.7285L76.2039 49.7826L78.1476 49.1828L74.6201 45.3332C74.5336 45.1098 74.376 44.9214 74.1717 44.7974C73.9675 44.6734 73.7281 44.6209 73.491 44.6479C73.3562 44.6646 73.226 44.7078 73.1079 44.7751C72.9897 44.8423 72.8859 44.9323 72.8024 45.0398C72.7188 45.1473 72.6572 45.2704 72.621 45.4018C72.5847 45.5333 72.5746 45.6707 72.5913 45.8061C72.5924 45.8155 72.5937 45.8249 72.5951 45.8343Z" fill="#FFB6B6"/>
    <path d="M100.863 67.2767C100.663 67.0773 100.547 66.8071 100.542 66.5236C100.536 66.2401 100.641 65.9657 100.834 65.7587C100.874 65.7173 100.917 65.6792 100.964 65.6449L99.8682 62.0105L101.508 60.8032L102.473 65.945C102.6 66.1481 102.656 66.3877 102.633 66.6263C102.61 66.8649 102.509 67.0891 102.346 67.264C102.252 67.3625 102.139 67.4416 102.015 67.4966C101.891 67.5516 101.757 67.5815 101.621 67.5845C101.485 67.5875 101.35 67.5637 101.224 67.5143C101.097 67.4649 100.982 67.391 100.883 67.2967C100.877 67.2901 100.87 67.2834 100.863 67.2767Z" fill="#FFB6B6"/>
    <path d="M91.5666 97.8331L89.9111 97.8329L89.1235 91.418L91.5669 91.4181L91.5666 97.8331Z" fill="#FFB6B6"/>
    <path d="M91.6252 99.5681L86.5342 99.5679V99.5033C86.5342 98.9753 86.743 98.469 87.1146 98.0957C87.4862 97.7224 87.9902 97.5127 88.5157 97.5127L89.4458 96.8039L91.1808 97.5128L91.6252 97.5128L91.6252 99.5681Z" fill="#434343"/>
    <path d="M98.7565 97.8331L97.101 97.8329L96.3135 91.418L98.7569 91.4181L98.7565 97.8331Z" fill="#FFB6B6"/>
    <path d="M98.8151 99.5681L93.7241 99.5679V99.5033C93.7242 98.9753 93.9329 98.469 94.3046 98.0957C94.6762 97.7224 95.1801 97.5127 95.7057 97.5127L96.6357 96.8039L98.3708 97.5128L98.8152 97.5128L98.8151 99.5681Z" fill="#434343"/>
    <path d="M86.6625 63.352C86.6625 63.352 84.778 65.9911 86.1383 70.5506C87.4986 75.1102 86.7349 79.1865 87.1167 80.0039C87.4986 80.8213 88.2672 81.5976 87.632 82.2173C86.9969 82.837 86.6625 83.3409 87.1641 83.5089C87.6658 83.6769 89.3378 95.4351 89.3378 95.4351L92.1804 95.603C92.1804 95.603 93.2101 90.141 92.11 85.7331C92.11 85.7331 92.3515 82.5332 91.8479 81.5933C91.3443 80.6533 91.4431 81.5011 91.4773 80.3214C91.4962 79.4681 91.6201 78.6205 91.846 77.7978C92.0132 77.1259 92.11 70.354 92.11 70.354L95.8054 78.7188C95.9164 79.0285 95.958 79.3588 95.9274 79.6865C95.8589 80.1494 95.8583 80.8411 95.9422 81.0832C96.0262 81.3252 96.1196 81.3761 96.0729 81.8546C96.0261 82.3331 96.0261 95.0222 96.0261 95.0222H99.2031L100.708 82.3331C100.437 82.0317 100.212 81.6922 100.039 81.3252C99.7047 80.6533 99.6917 80.6163 99.8654 80.1309C100.039 79.6455 100.039 78.6998 100.039 78.4168C100.039 78.1337 100.213 65.2842 98.0359 63.3942C95.8589 61.5043 86.6625 63.352 86.6625 63.352Z" fill="#262626"/>
    <path d="M96.4183 43.1807L93.2446 42.3545L91.7631 40.3019L88.2449 40.7364L87.4959 43.5362L84.9912 44.9968C84.9912 44.9968 86.3756 59.7065 86.0463 60.5142C85.717 61.3219 84.5363 61.2552 85.5447 62.2964C86.553 63.3376 86.6866 62.9182 86.4526 64.0518C86.2186 65.1853 84.5129 66.385 86.4526 66.3731C88.3923 66.3612 100.097 66.1932 99.7625 64.8494C99.428 63.5056 99.4333 63.8468 98.929 63.0043C98.4248 62.1618 98.0854 62.6326 98.2551 61.3894C98.4248 60.1461 98.2576 59.3062 98.2576 58.6343C98.2576 57.9624 97.6973 51.8568 97.6973 51.8568L96.4183 43.1807Z" fill="#067FC0"/>
    <path d="M86.516 44.7146C86.516 44.7146 83.3759 44.3566 82.7071 45.8683C82.0383 47.3801 80.3527 50.528 80.3527 50.528C80.3527 50.528 79.0386 49.1469 78.9114 48.5209C78.8034 47.9894 78.7441 48.8772 77.8613 47.9162C77.4657 47.4855 77.8002 47.4855 77.2985 47.3176L76.2953 46.9816L74.6232 48.4934C74.6232 48.4934 74.5905 50.3199 75.4592 50.3411C76.328 50.3623 75.1248 50.0051 76.2953 51.181C76.8996 51.7881 76.3453 51.6875 77.3525 52.3054C78.3597 52.9232 78.2461 52.9206 78.5537 53.2579C78.8613 53.5951 80.5124 53.8407 80.5124 53.8407L87.9064 49.7303L86.516 44.7146Z" fill="#067FC0"/>
    <path d="M94.7681 43.8162C94.7681 43.8162 96.1146 41.8344 98.416 44.4091C100.717 46.9839 102.438 58.7381 102.33 59.1601C102.222 59.582 101.615 59.3399 102.337 60.0489C103.058 60.7578 103.56 60.2539 103.058 60.7578C102.557 61.2617 101.51 61.7359 102.368 61.9188C103.226 62.1016 99.8884 63.108 99.8884 63.108C99.8884 63.108 99.4021 62.9295 99.3816 61.7525C99.3701 61.0914 99.7045 60.7555 99.2028 60.5875C98.7012 60.4195 99.3181 59.2978 99.2653 59.1039C99.2126 58.9101 96.0356 50.3434 96.0356 50.3434L94.7681 43.8162Z" fill="#067FC0"/>
    <path d="M89.4757 39.9505C91.6048 39.9505 93.3308 38.2167 93.3308 36.0778C93.3308 33.9389 91.6048 32.205 89.4757 32.205C87.3466 32.205 85.6206 33.9389 85.6206 36.0778C85.6206 38.2167 87.3466 39.9505 89.4757 39.9505Z" fill="#FFB6B6"/>
    <path d="M92.0128 39.0868C91.1016 38.3712 92.3473 35.2234 90.8424 35.8953C90.8424 35.8953 89.0031 34.7195 88.6336 35.4921C88.2057 36.3868 86.6839 35.9809 85.7492 35.6652C85.8227 35.4936 85.8749 35.3137 85.9047 35.1293C85.7322 35.2659 85.5494 35.3889 85.358 35.4972C85.2296 35.4283 85.116 35.3347 85.0235 35.2217C84.9324 35.1168 84.8753 34.9864 84.8601 34.848C84.8448 34.7095 84.8721 34.5697 84.9383 34.4473C85.0938 34.2071 85.4148 34.1332 85.6038 33.9199C85.6256 33.8899 85.6399 33.855 85.6453 33.8183C85.6508 33.7815 85.6473 33.744 85.6351 33.7089C85.6126 33.6231 85.6092 33.5333 85.6252 33.446C85.6411 33.3587 85.6761 33.276 85.7275 33.2038C85.7789 33.1316 85.8455 33.0717 85.9226 33.0284C85.9997 32.985 86.0854 32.9592 86.1735 32.9529C86.209 32.954 86.2442 32.9463 86.2759 32.9305C86.4346 32.833 86.5811 32.7168 86.7124 32.5845C86.4926 32.5952 86.2724 32.589 86.0536 32.566C86.0084 32.561 85.9633 32.556 85.9181 32.5492C86.0017 32.3521 86.1267 32.1755 86.2846 32.0314C86.4425 31.8873 86.6294 31.7792 86.8327 31.7144C87.262 31.5841 87.7087 31.5212 88.157 31.5279C88.4162 31.5196 88.6754 31.5112 88.9329 31.5028C89.479 31.4637 90.0277 31.4829 90.5698 31.5599C91.1489 31.666 91.6975 31.8993 92.1765 32.2431C92.6554 32.5869 93.0529 33.0327 93.3405 33.5487C93.9073 34.5817 94.521 37.911 92.0128 39.0868Z" fill="#2F2E41"/>
    <path d="M82.1757 57.3228L62.3031 64.3811C61.8118 64.555 61.2718 64.526 60.8017 64.3005C60.3317 64.0749 59.9698 63.6713 59.7956 63.1781L56.3818 53.4782C56.2087 52.9846 56.2376 52.4422 56.4621 51.97C56.6866 51.4977 57.0884 51.1342 57.5793 50.9592L77.4519 43.9009C77.9433 43.727 78.4832 43.756 78.9533 43.9815C79.4234 44.207 79.7852 44.6107 79.9594 45.1039L83.3732 54.8038C83.5463 55.2974 83.5175 55.8398 83.293 56.312C83.0685 56.7843 82.6667 57.1478 82.1757 57.3228Z" fill="#005E9E"/>
    <path d="M61.0627 53.2113C59.7455 54.082 58.0572 53.4267 57.4668 52.4723L57.5609 52.4185C58.6824 51.7163 60.3477 52.1075 61.0627 53.2113Z" fill="white"/>
    <path d="M77.5699 55.6817C77.4328 55.739 77.2853 55.7672 77.1368 55.7645C76.9883 55.7618 76.842 55.7283 76.707 55.6661C76.1414 55.3838 75.8761 54.5468 75.6628 53.8743C75.6008 53.6786 75.5422 53.4938 75.4825 53.3428L75.4817 53.3405C75.3778 53.0408 75.3959 52.7121 75.532 52.4258C75.668 52.1394 75.911 51.9186 76.2082 51.8112L78.8812 50.8618C79.0182 50.8046 79.1655 50.7765 79.3138 50.7791C79.4622 50.7818 79.6084 50.8152 79.7432 50.8773C80.3086 51.1592 80.5742 51.9959 80.7877 52.6682C80.8499 52.8643 80.9087 53.0495 80.9685 53.2007C81.0729 53.5007 81.0552 53.8299 80.9192 54.1168C80.7832 54.4037 80.5399 54.625 80.2423 54.7326L77.5699 55.6817Z" fill="white"/>
    <path d="M61.1906 58.3529C61.1429 58.3719 61.091 58.3774 61.0404 58.369C60.9898 58.3606 60.9425 58.3385 60.9035 58.305C60.8578 58.265 60.8232 58.2137 60.8029 58.1563C60.7827 58.0989 60.7775 58.0372 60.7879 57.9771C60.7976 57.9255 60.8213 57.8775 60.8564 57.8386C60.8915 57.7997 60.9367 57.7712 60.9869 57.7565L62.0043 57.3952C62.0526 57.3751 62.1055 57.3687 62.1571 57.3769C62.2088 57.3851 62.2571 57.4074 62.2969 57.4414C62.3426 57.4815 62.3772 57.5328 62.3974 57.5902C62.4176 57.6476 62.4227 57.7093 62.4123 57.7693C62.4025 57.8209 62.3787 57.8687 62.3436 57.9075C62.3085 57.9464 62.2634 57.9748 62.2133 57.9897L61.1959 58.351L61.1906 58.3529Z" fill="white"/>
    <path d="M60.6499 60.6718C60.5606 60.6885 60.4685 60.6805 60.3833 60.6485C60.2982 60.6166 60.2234 60.5619 60.1669 60.4905C60.101 60.4052 60.0582 60.3042 60.0424 60.1974C60.0267 60.0906 60.0385 59.9816 60.0769 59.8807C60.1112 59.7942 60.1687 59.7189 60.2429 59.6632C60.3172 59.6074 60.4054 59.5734 60.4977 59.5649L64.2871 58.2875C64.3778 58.269 64.4719 58.2761 64.559 58.3079C64.646 58.3397 64.7226 58.3951 64.7803 58.4679C64.8461 58.5532 64.8889 58.6541 64.9046 58.7609C64.9203 58.8677 64.9084 58.9768 64.87 59.0776C64.8354 59.1639 64.7779 59.2389 64.7037 59.2945C64.6295 59.3501 64.5414 59.3841 64.4493 59.3928L60.6598 60.6703L60.6499 60.6718Z" fill="white"/>
    <path d="M80.7027 47.2154L57.1924 55.5658L57.2321 55.6786L80.7424 47.3282L80.7027 47.2154Z" fill="white"/>
    <path d="M76.9643 53.7005C77.3337 53.7005 77.6332 53.3997 77.6332 53.0286C77.6332 52.6576 77.3337 52.3568 76.9643 52.3568C76.5949 52.3568 76.2954 52.6576 76.2954 53.0286C76.2954 53.3997 76.5949 53.7005 76.9643 53.7005Z" fill="#067FC0"/>
    <path d="M79.1379 53.8685C79.415 53.8685 79.6396 53.6429 79.6396 53.3646C79.6396 53.0863 79.415 52.8607 79.1379 52.8607C78.8608 52.8607 78.6362 53.0863 78.6362 53.3646C78.6362 53.6429 78.8608 53.8685 79.1379 53.8685Z" fill="#067FC0"/>
    <path d="M8.80685e-07 99.8001C-7.70497e-05 99.8264 0.00501772 99.8524 0.0149903 99.8767C0.0249629 99.901 0.039618 99.9231 0.0581113 99.9416C0.0766046 99.9602 0.0985708 99.9749 0.122748 99.9849C0.146926 99.995 0.172836 100 0.198989 100H119.801C119.854 100 119.904 99.9789 119.942 99.9414C119.979 99.904 120 99.8531 120 99.8001C120 99.7471 119.979 99.6962 119.942 99.6588C119.904 99.6213 119.854 99.6002 119.801 99.6002H0.198979C0.172827 99.6001 0.146919 99.6053 0.122743 99.6153C0.0985672 99.6253 0.0766008 99.64 0.0581087 99.6586C0.0396166 99.6772 0.0249625 99.6992 0.0149903 99.7235C0.00501803 99.7478 -7.61556e-05 99.7738 8.80685e-07 99.8001Z" fill="#CCCCCC"/>
    <path d="M41.5769 95.4687C41.4807 95.4731 41.3855 95.4478 41.3042 95.396C41.2229 95.3443 41.1593 95.2687 41.1222 95.1795C41.0851 95.0903 41.0761 94.9918 41.0966 94.8973C41.1171 94.8028 41.166 94.717 41.2366 94.6513L41.2688 94.5229C41.2646 94.5126 41.2603 94.5023 41.256 94.492C41.1592 94.2622 40.9969 94.0662 40.7895 93.9288C40.5821 93.7913 40.3389 93.7184 40.0905 93.7194C39.8421 93.7203 39.5994 93.795 39.3931 93.934C39.1867 94.073 39.0259 94.2701 38.9307 94.5007C38.5504 95.4209 38.0662 96.3426 37.947 97.3156C37.8945 97.7456 37.9166 98.1816 38.0124 98.604C37.1192 96.6466 36.6553 94.519 36.6523 92.3657C36.6522 91.8253 36.682 91.2854 36.7419 90.7484C36.7913 90.3081 36.8599 89.871 36.9476 89.4371C37.4264 87.0824 38.4543 84.8754 39.947 82.9974C40.6695 82.6014 41.2537 81.9924 41.6211 81.2526C41.7541 80.9866 41.8482 80.7027 41.9003 80.4097C41.8188 80.4204 41.593 79.1736 41.6545 79.0971C41.5409 78.9239 41.3376 78.8379 41.2136 78.6689C40.5967 77.8287 39.7467 77.9754 39.303 79.1172C38.3552 79.5978 38.346 80.3948 38.9276 81.1613C39.2976 81.649 39.3485 82.3089 39.6731 82.831C39.6397 82.8739 39.605 82.9155 39.5716 82.9585C38.961 83.7472 38.4289 84.5941 37.9827 85.4871C38.0912 84.4867 37.9618 83.4747 37.6049 82.5344C37.2433 81.658 36.5655 80.9199 35.9686 80.1623C35.2517 79.2523 33.7815 79.6494 33.6552 80.803C33.654 80.8142 33.6528 80.8254 33.6516 80.8365C33.7403 80.8868 33.8271 80.9401 33.912 80.9965C34.0187 81.0681 34.1013 81.1704 34.1491 81.29C34.1969 81.4096 34.2077 81.5409 34.1799 81.6667C34.1522 81.7926 34.0872 81.907 33.9936 81.9951C33.9 82.0833 33.7821 82.1409 33.6553 82.1606L33.6423 82.1626C33.6739 82.4836 33.7297 82.8017 33.8093 83.1142C33.0436 86.089 34.6967 87.1725 37.0572 87.2212C37.1093 87.248 37.1601 87.2749 37.2122 87.3004C36.764 88.5764 36.4828 89.9055 36.3758 91.2544C36.3152 92.0501 36.3188 92.8495 36.3865 93.6447L36.3825 93.6166C36.2115 92.7323 35.7419 91.9345 35.0531 91.3577C34.0301 90.5135 32.5848 90.2026 31.4811 89.524C31.3638 89.4484 31.2275 89.408 31.0881 89.4077C30.9487 89.4073 30.8121 89.447 30.6945 89.5221C30.5768 89.5972 30.483 89.7045 30.424 89.8314C30.3651 89.9583 30.3435 90.0994 30.3618 90.2382C30.3633 90.2481 30.3648 90.258 30.3663 90.2679C30.5308 90.3352 30.691 90.4127 30.8459 90.5001C30.9346 90.5503 31.0214 90.6037 31.1063 90.6601C31.213 90.7317 31.2956 90.8339 31.3434 90.9535C31.3912 91.0731 31.402 91.2045 31.3742 91.3303C31.3465 91.4561 31.2815 91.5706 31.1879 91.6587C31.0943 91.7468 30.9764 91.8045 30.8496 91.8241L30.8366 91.8261C30.8272 91.8275 30.8192 91.8288 30.8099 91.8301C31.091 92.5044 31.4855 93.1251 31.9762 93.6649C32.455 96.2618 34.5114 96.5082 36.7111 95.7519H36.7125C36.9538 96.8055 37.3035 97.8311 37.7559 98.8121H41.4835C41.4968 98.7705 41.5088 98.7275 41.5209 98.6859C41.1758 98.7077 40.8295 98.6869 40.4894 98.6242C40.766 98.2832 41.0426 97.9396 41.3191 97.5987C41.3253 97.5924 41.3311 97.5856 41.3365 97.5786C41.4768 97.4041 41.6184 97.231 41.7587 97.0565L41.7588 97.0563C41.7662 96.5215 41.705 95.9878 41.5769 95.4687Z" fill="#F2F2F2"/>
    <path d="M31.2681 22.5236V17.7292H33.3226C33.7475 17.7292 34.1137 17.8 34.4211 17.9416C34.7285 18.0785 34.9658 18.2772 35.133 18.5374C35.3003 18.7977 35.3839 19.1082 35.3839 19.4689C35.3839 19.8251 35.3003 20.1333 35.133 20.3935C34.9658 20.6538 34.7285 20.8547 34.4211 20.9963C34.1137 21.1332 33.7475 21.2017 33.3226 21.2017H31.8783L32.3665 20.7017V22.5236H31.2681ZM32.3665 20.825L31.8783 20.2976H33.2616C33.6006 20.2976 33.8537 20.2246 34.021 20.0785C34.1883 19.9324 34.2719 19.7292 34.2719 19.4689C34.2719 19.2041 34.1883 18.9986 34.021 18.8525C33.8537 18.7064 33.6006 18.6333 33.2616 18.6333H31.8783L32.3665 18.1059V20.825Z" fill="#005E9E"/>
    <path d="M36.0869 22.5236V18.8388H37.0972V19.8799L36.9548 19.5785C37.0633 19.3182 37.2374 19.1219 37.477 18.9895C37.7165 18.8525 38.0081 18.784 38.3517 18.784V19.7703C38.3065 19.7657 38.2658 19.7634 38.2296 19.7634C38.1934 19.7589 38.155 19.7566 38.1143 19.7566C37.825 19.7566 37.59 19.841 37.4092 20.01C37.2329 20.1744 37.1447 20.4323 37.1447 20.7839V22.5236H36.0869Z" fill="#005E9E"/>
    <path d="M40.7646 22.5784C40.3487 22.5784 39.9825 22.4962 39.6661 22.3318C39.3542 22.1675 39.1123 21.9437 38.9406 21.6606C38.7688 21.373 38.6829 21.0465 38.6829 20.6812C38.6829 20.3113 38.7665 19.9849 38.9338 19.7018C39.1056 19.4141 39.3384 19.1904 39.6322 19.0306C39.926 18.8662 40.2583 18.784 40.6289 18.784C40.9861 18.784 41.307 18.8616 41.5918 19.0169C41.8811 19.1675 42.1094 19.3867 42.2766 19.6744C42.4439 19.9575 42.5275 20.2976 42.5275 20.6949C42.5275 20.736 42.5253 20.7839 42.5207 20.8387C42.5162 20.889 42.5117 20.9369 42.5072 20.9826H39.544V20.3593H41.9512L41.5443 20.5442C41.5443 20.3524 41.5059 20.1858 41.4291 20.0442C41.3522 19.9027 41.246 19.7931 41.1104 19.7155C40.9748 19.6333 40.8165 19.5922 40.6357 19.5922C40.4549 19.5922 40.2944 19.6333 40.1543 19.7155C40.0187 19.7931 39.9125 19.905 39.8356 20.0511C39.7588 20.1926 39.7203 20.3616 39.7203 20.5579V20.7223C39.7203 20.9232 39.7633 21.1013 39.8492 21.2565C39.9396 21.4072 40.0639 21.5236 40.2221 21.6058C40.3848 21.6834 40.5747 21.7223 40.7917 21.7223C40.9861 21.7223 41.1556 21.6926 41.3002 21.6332C41.4494 21.5739 41.585 21.4848 41.7071 21.3661L42.2699 21.9825C42.1026 22.1743 41.8924 22.3227 41.6393 22.4277C41.3861 22.5282 41.0945 22.5784 40.7646 22.5784Z" fill="#005E9E"/>
    <path d="M45.388 22.5784C45.0806 22.5784 44.8116 22.5099 44.5811 22.3729C44.3506 22.2359 44.1697 22.0282 44.0387 21.7497C43.9121 21.4666 43.8488 21.1104 43.8488 20.6812C43.8488 20.2474 43.9098 19.8913 44.0319 19.6127C44.1539 19.3342 44.3302 19.1265 44.5608 18.9895C44.7913 18.8525 45.067 18.784 45.388 18.784C45.7315 18.784 46.0389 18.8639 46.3102 19.0237C46.5859 19.179 46.8029 19.3981 46.9611 19.6812C47.1238 19.9643 47.2052 20.2976 47.2052 20.6812C47.2052 21.0693 47.1238 21.4049 46.9611 21.688C46.8029 21.9711 46.5859 22.1903 46.3102 22.3455C46.0389 22.5008 45.7315 22.5784 45.388 22.5784ZM43.2318 23.8523V18.8388H44.2421V19.5922L44.2217 20.688L44.2895 21.7771V23.8523H43.2318ZM45.2049 21.7017C45.3812 21.7017 45.5372 21.6606 45.6728 21.5784C45.8129 21.4962 45.9237 21.3798 46.005 21.2291C46.0909 21.0739 46.1339 20.8912 46.1339 20.6812C46.1339 20.4666 46.0909 20.2839 46.005 20.1333C45.9237 19.9826 45.8129 19.8662 45.6728 19.784C45.5372 19.7018 45.3812 19.6607 45.2049 19.6607C45.0286 19.6607 44.8704 19.7018 44.7303 19.784C44.5901 19.8662 44.4794 19.9826 44.398 20.1333C44.3167 20.2839 44.276 20.4666 44.276 20.6812C44.276 20.8912 44.3167 21.0739 44.398 21.2291C44.4794 21.3798 44.5901 21.4962 44.7303 21.5784C44.8704 21.6606 45.0286 21.7017 45.2049 21.7017Z" fill="#005E9E"/>
    <path d="M50.0913 22.5236V21.8045L50.0235 21.6469V20.3593C50.0235 20.131 49.9534 19.9529 49.8133 19.8251C49.6777 19.6972 49.4675 19.6333 49.1827 19.6333C48.9883 19.6333 48.7962 19.6652 48.6064 19.7292C48.421 19.7885 48.2628 19.8707 48.1317 19.9757L47.752 19.2292C47.9509 19.0876 48.1905 18.9781 48.4707 18.9004C48.751 18.8228 49.0358 18.784 49.3251 18.784C49.8811 18.784 50.3128 18.9164 50.6202 19.1812C50.9276 19.4461 51.0813 19.8593 51.0813 20.4209V22.5236H50.0913ZM48.9793 22.5784C48.6945 22.5784 48.4504 22.5305 48.247 22.4346C48.0436 22.3341 47.8876 22.1994 47.7791 22.0305C47.6706 21.8615 47.6164 21.672 47.6164 21.462C47.6164 21.2428 47.6684 21.051 47.7723 20.8867C47.8808 20.7223 48.0504 20.5944 48.2809 20.5031C48.5114 20.4072 48.812 20.3593 49.1827 20.3593H50.1523V20.9826H49.298C49.0494 20.9826 48.8776 21.0237 48.7827 21.1058C48.6922 21.188 48.647 21.2908 48.647 21.4141C48.647 21.551 48.699 21.6606 48.803 21.7428C48.9115 21.8204 49.0584 21.8592 49.2437 21.8592C49.42 21.8592 49.5783 21.8181 49.7184 21.736C49.8585 21.6492 49.9602 21.5236 50.0235 21.3593L50.1862 21.8524C50.1094 22.0898 49.9693 22.2702 49.7659 22.3935C49.5624 22.5168 49.3002 22.5784 48.9793 22.5784Z" fill="#005E9E"/>
    <path d="M52.0386 22.5236V18.8388H53.0964V22.5236H52.0386ZM52.5675 18.3251C52.3731 18.3251 52.2149 18.268 52.0929 18.1539C51.9708 18.0397 51.9098 17.8982 51.9098 17.7292C51.9098 17.5603 51.9708 17.4187 52.0929 17.3046C52.2149 17.1904 52.3731 17.1334 52.5675 17.1334C52.7619 17.1334 52.9201 17.1882 53.0422 17.2977C53.1642 17.4028 53.2252 17.5397 53.2252 17.7087C53.2252 17.8868 53.1642 18.0352 53.0422 18.1539C52.9246 18.268 52.7664 18.3251 52.5675 18.3251Z" fill="#005E9E"/>
    <path d="M55.6444 22.5784C55.3009 22.5784 54.9912 22.5008 54.7155 22.3455C54.4398 22.1857 54.2205 21.9643 54.0578 21.6812C53.8996 21.3981 53.8205 21.0647 53.8205 20.6812C53.8205 20.2931 53.8996 19.9575 54.0578 19.6744C54.2205 19.3913 54.4398 19.1721 54.7155 19.0169C54.9912 18.8616 55.3009 18.784 55.6444 18.784C55.9518 18.784 56.2208 18.8525 56.4513 18.9895C56.6819 19.1265 56.8604 19.3342 56.987 19.6127C57.1136 19.8913 57.1769 20.2474 57.1769 20.6812C57.1769 21.1104 57.1158 21.4666 56.9938 21.7497C56.8717 22.0282 56.6954 22.2359 56.4649 22.3729C56.2389 22.5099 55.9654 22.5784 55.6444 22.5784ZM55.8275 21.7017C55.9993 21.7017 56.1553 21.6606 56.2954 21.5784C56.4355 21.4962 56.5463 21.3798 56.6276 21.2291C56.7135 21.0739 56.7565 20.8912 56.7565 20.6812C56.7565 20.4666 56.7135 20.2839 56.6276 20.1333C56.5463 19.9826 56.4355 19.8662 56.2954 19.784C56.1553 19.7018 55.9993 19.6607 55.8275 19.6607C55.6512 19.6607 55.493 19.7018 55.3529 19.784C55.2127 19.8662 55.0997 19.9826 55.0138 20.1333C54.9325 20.2839 54.8918 20.4666 54.8918 20.6812C54.8918 20.8912 54.9325 21.0739 55.0138 21.2291C55.0997 21.3798 55.2127 21.4962 55.3529 21.5784C55.493 21.6606 55.6512 21.7017 55.8275 21.7017ZM56.7836 22.5236V21.7702L56.8039 20.6743L56.7361 19.5853V17.4416H57.7939V22.5236H56.7836Z" fill="#005E9E"/>
    <path d="M63.0393 22.6058C62.6732 22.6058 62.3319 22.5464 62.0154 22.4277C61.7035 22.3044 61.4323 22.1309 61.2018 21.9072C60.9712 21.6834 60.7904 21.4209 60.6593 21.1195C60.5327 20.8182 60.4695 20.4871 60.4695 20.1264C60.4695 19.7657 60.5327 19.4347 60.6593 19.1333C60.7904 18.8319 60.9712 18.5694 61.2018 18.3457C61.4368 18.1219 61.7103 17.9507 62.0222 17.832C62.3341 17.7087 62.6754 17.647 63.0461 17.647C63.4575 17.647 63.8281 17.7201 64.1581 17.8662C64.4926 18.0078 64.7729 18.2178 64.9989 18.4963L64.2937 19.1538C64.131 18.9666 63.9502 18.8274 63.7513 18.7361C63.5524 18.6402 63.3354 18.5922 63.1003 18.5922C62.8788 18.5922 62.6754 18.6287 62.4901 18.7018C62.3047 18.7749 62.1443 18.8799 62.0087 19.0169C61.873 19.1538 61.7668 19.3159 61.69 19.5032C61.6176 19.6904 61.5815 19.8981 61.5815 20.1264C61.5815 20.3547 61.6176 20.5625 61.69 20.7497C61.7668 20.9369 61.873 21.099 62.0087 21.236C62.1443 21.373 62.3047 21.478 62.4901 21.551C62.6754 21.6241 62.8788 21.6606 63.1003 21.6606C63.3354 21.6606 63.5524 21.615 63.7513 21.5236C63.9502 21.4278 64.131 21.2839 64.2937 21.0921L64.9989 21.7497C64.7729 22.0282 64.4926 22.2405 64.1581 22.3866C63.8281 22.5327 63.4552 22.6058 63.0393 22.6058Z" fill="#005E9E"/>
    <path d="M67.8839 22.5236V21.8045L67.8161 21.6469V20.3593C67.8161 20.131 67.746 19.9529 67.6059 19.8251C67.4702 19.6972 67.26 19.6333 66.9753 19.6333C66.7809 19.6333 66.5888 19.6652 66.3989 19.7292C66.2136 19.7885 66.0554 19.8707 65.9243 19.9757L65.5445 19.2292C65.7434 19.0876 65.983 18.9781 66.2633 18.9004C66.5436 18.8228 66.8283 18.784 67.1177 18.784C67.6737 18.784 68.1054 18.9164 68.4128 19.1812C68.7201 19.4461 68.8738 19.8593 68.8738 20.4209V22.5236H67.8839ZM66.7718 22.5784C66.4871 22.5784 66.243 22.5305 66.0395 22.4346C65.8361 22.3341 65.6802 22.1994 65.5717 22.0305C65.4632 21.8615 65.4089 21.672 65.4089 21.462C65.4089 21.2428 65.4609 21.051 65.5649 20.8867C65.6734 20.7223 65.8429 20.5944 66.0734 20.5031C66.304 20.4072 66.6046 20.3593 66.9753 20.3593H67.9449V20.9826H67.0905C66.8419 20.9826 66.6701 21.0237 66.5752 21.1058C66.4848 21.188 66.4396 21.2908 66.4396 21.4141C66.4396 21.551 66.4916 21.6606 66.5955 21.7428C66.704 21.8204 66.8509 21.8592 67.0363 21.8592C67.2126 21.8592 67.3708 21.8181 67.5109 21.736C67.6511 21.6492 67.7528 21.5236 67.8161 21.3593L67.9788 21.8524C67.902 22.0898 67.7618 22.2702 67.5584 22.3935C67.355 22.5168 67.0928 22.5784 66.7718 22.5784Z" fill="#005E9E"/>
    <path d="M69.8312 22.5236V18.8388H70.8415V19.8799L70.6991 19.5785C70.8076 19.3182 70.9816 19.1219 71.2212 18.9895C71.4608 18.8525 71.7524 18.784 72.0959 18.784V19.7703C72.0507 19.7657 72.01 19.7634 71.9739 19.7634C71.9377 19.7589 71.8993 19.7566 71.8586 19.7566C71.5693 19.7566 71.3342 19.841 71.1534 20.01C70.9771 20.1744 70.889 20.4323 70.889 20.7839V22.5236H69.8312Z" fill="#005E9E"/>
    <path d="M74.2647 22.5784C73.9212 22.5784 73.6115 22.5008 73.3358 22.3455C73.06 22.1857 72.8408 21.9643 72.678 21.6812C72.5198 21.3981 72.4407 21.0647 72.4407 20.6812C72.4407 20.2931 72.5198 19.9575 72.678 19.6744C72.8408 19.3913 73.06 19.1721 73.3358 19.0169C73.6115 18.8616 73.9212 18.784 74.2647 18.784C74.5721 18.784 74.8411 18.8525 75.0716 18.9895C75.3021 19.1265 75.4807 19.3342 75.6073 19.6127C75.7338 19.8913 75.7971 20.2474 75.7971 20.6812C75.7971 21.1104 75.7361 21.4666 75.6141 21.7497C75.492 22.0282 75.3157 22.2359 75.0852 22.3729C74.8591 22.5099 74.5857 22.5784 74.2647 22.5784ZM74.4478 21.7017C74.6196 21.7017 74.7755 21.6606 74.9156 21.5784C75.0558 21.4962 75.1665 21.3798 75.2479 21.2291C75.3338 21.0739 75.3767 20.8912 75.3767 20.6812C75.3767 20.4666 75.3338 20.2839 75.2479 20.1333C75.1665 19.9826 75.0558 19.8662 74.9156 19.784C74.7755 19.7018 74.6196 19.6607 74.4478 19.6607C74.2715 19.6607 74.1133 19.7018 73.9731 19.784C73.833 19.8662 73.72 19.9826 73.6341 20.1333C73.5527 20.2839 73.5121 20.4666 73.5121 20.6812C73.5121 20.8912 73.5527 21.0739 73.6341 21.2291C73.72 21.3798 73.833 21.4962 73.9731 21.5784C74.1133 21.6606 74.2715 21.7017 74.4478 21.7017ZM75.4039 22.5236V21.7702L75.4242 20.6743L75.3564 19.5853V17.4416H76.4142V22.5236H75.4039Z" fill="#005E9E"/>
  </g>
  <defs>
    <clipPath id="clip0_1428_442">
      <rect width="120" height="100" fill="white"/>
    </clipPath>
  </defs>
</svg>