<svg xmlns="http://www.w3.org/2000/svg" width="134" height="96" viewBox="0 0 134 96" fill="none">
  <path d="M75.3079 60.8537L65.9957 66.1364L64.0682 61.6245C63.3317 59.9005 62.7208 58.1377 62.2308 56.3505C54.5249 44.8972 39.797 41.2391 27.1023 48.4407C12.768 56.5724 6.36809 75.5233 12.8459 90.6795L4.31095 95.5213C-4.29004 75.3889 4.20513 50.2194 23.2472 39.417C35.9868 32.1899 50.2735 33.1954 60.9087 40.6828C62.2449 26.4041 70.2628 12.7425 83.0057 5.51657C102.048 -5.28579 124.539 2.30545 133.14 22.4378L124.605 27.2796C118.128 12.1198 101.195 6.40855 86.8608 14.5403C74.1661 21.7418 67.7003 37.423 70.8793 51.4414C71.8083 52.9824 72.6495 54.6117 73.386 56.3357L75.3079 60.8537Z" fill="#005E9E"/>
</svg>